<?xml version="1.0" encoding="UTF-8" standalone="no"?>
<!-- Created with Inkscape (http://www.inkscape.org/) -->

<svg
   xmlns:dc="http://purl.org/dc/elements/1.1/"
   xmlns:cc="http://creativecommons.org/ns#"
   xmlns:rdf="http://www.w3.org/1999/02/22-rdf-syntax-ns#"
   xmlns:svg="http://www.w3.org/2000/svg"
   xmlns="http://www.w3.org/2000/svg"
   xmlns:sodipodi="http://sodipodi.sourceforge.net/DTD/sodipodi-0.dtd"
   xmlns:inkscape="http://www.inkscape.org/namespaces/inkscape"
   id="svg2"
   version="1.1"
   inkscape:version="0.48.4 r9939"
   width="765.92798"
   height="1245.4368"
   xml:space="preserve"
   sodipodi:docname="rotary_ver03.svg"><metadata
     id="metadata8"><rdf:RDF><cc:Work
         rdf:about=""><dc:format>image/svg+xml</dc:format><dc:type
           rdf:resource="http://purl.org/dc/dcmitype/StillImage" /><dc:title></dc:title></cc:Work></rdf:RDF></metadata><defs
     id="defs6"><clipPath
       clipPathUnits="userSpaceOnUse"
       id="clipPath26"><path
         d="m 0,841.89 2267.72,0 L 2267.72,0 0,0 0,841.89 z"
         id="path28"
         inkscape:connector-curvature="0" /></clipPath><clipPath
       clipPathUnits="userSpaceOnUse"
       id="clipPath56"><path
         d="m 0,841.89 2267.72,0 L 2267.72,0 0,0 0,841.89 z"
         id="path58"
         inkscape:connector-curvature="0" /></clipPath><clipPath
       clipPathUnits="userSpaceOnUse"
       id="clipPath200"><path
         d="m 0,841.89 2267.72,0 L 2267.72,0 0,0 0,841.89 z"
         id="path202"
         inkscape:connector-curvature="0" /></clipPath><clipPath
       clipPathUnits="userSpaceOnUse"
       id="clipPath232"><path
         d="m 0,841.89 2267.72,0 L 2267.72,0 0,0 0,841.89 z"
         id="path234"
         inkscape:connector-curvature="0" /></clipPath><clipPath
       clipPathUnits="userSpaceOnUse"
       id="clipPath366"><path
         d="m 0,841.89 2267.72,0 L 2267.72,0 0,0 0,841.89 z"
         id="path368"
         inkscape:connector-curvature="0" /></clipPath><clipPath
       clipPathUnits="userSpaceOnUse"
       id="clipPath446"><path
         d="m 0,841.89 2267.72,0 L 2267.72,0 0,0 0,841.89 z"
         id="path448"
         inkscape:connector-curvature="0" /></clipPath></defs><sodipodi:namedview
     pagecolor="#ffffff"
     bordercolor="#666666"
     borderopacity="1"
     objecttolerance="10"
     gridtolerance="10"
     guidetolerance="10"
     inkscape:pageopacity="0"
     inkscape:pageshadow="2"
     inkscape:window-width="1362"
     inkscape:window-height="729"
     id="namedview4"
     showgrid="false"
     inkscape:zoom="0.68648966"
     inkscape:cx="657.66818"
     inkscape:cy="448.2372"
     inkscape:window-x="0"
     inkscape:window-y="18"
     inkscape:window-maximized="0"
     inkscape:current-layer="g10"
     fit-margin-top="0"
     fit-margin-left="0"
     fit-margin-right="0"
     fit-margin-bottom="0" /><g
     id="g10"
     inkscape:groupmode="layer"
     inkscape:label="rotary_ver02"
     transform="matrix(1.25,0,0,-1.25,45.896706,1048.2688)"><path
       style="fill:none;stroke:#110f0d;stroke-width:1;stroke-linecap:round;stroke-linejoin:round;stroke-miterlimit:10;stroke-opacity:1;stroke-dasharray:none"
       d="m 42.84375,4.59375 0,211.1875 45.1875,0 0,834.09375 1.78125,0 421.65625,0 1.78125,0 0,-834.09375 120.15625,0 86.125,0 0,-211.1875 -19.78125,0 0,18.78125 0,16.0625 -14.15625,0 0,-16.0625 0,-18.78125 -52.1875,0 -474.125,0 -31.375,0 -14.625,0 -1.125,0 -14.09375,0 -21.25,0 0,18.78125 0,16.0625 -14.1875,0 0,-16.0625 0,-18.78125 -19.78125,0 z m 130.0625,19.9375 57.03125,0 0,14.53125 -57.03125,0 0,-14.53125 z m 198.4375,0 57.03125,0 0,14.53125 -57.03125,0 0,-14.53125 z M 68.0625,55.4375 c 4.40375,0 7.96875,3.56625 7.96875,7.96875 0,4.4025 -3.565,7.96875 -7.96875,7.96875 -4.4025,0 -7.96875,-3.56625 -7.96875,-7.96875 0,-4.4025 3.56625,-7.96875 7.96875,-7.96875 z m 626.25,10.40625 c 4.4025,0 7.96875,3.56625 7.96875,7.96875 0,4.4025 -3.56625,7.96875 -7.96875,7.96875 -4.4025,0 -7.96875,-3.56625 -7.96875,-7.96875 0,-4.4025 3.56625,-7.96875 7.96875,-7.96875 z M 60.84375,86.75 l 14.1875,0 0,95.65625 -14.1875,0 0,-95.65625 z m 112.0625,1.5625 57.03125,0 0,14.53125 -57.03125,0 0,-14.53125 z m 198.4375,0 57.03125,0 0,14.53125 -57.03125,0 0,-14.53125 z m 316,8.84375 14.1875,0 0,95.65625 -14.1875,0 0,-95.65625 z M 300.625,195.09375 c 4.10875,0 7.46875,4.28375 7.46875,9.59375 l 0,776.75 c 0,5.31 -3.36,9.625 -7.46875,9.625 -4.11,0 -7.4375,-4.315 -7.4375,-9.625 l 0,-776.75 c 0,-5.31 3.3275,-9.59375 7.4375,-9.59375 z"
       transform="matrix(0.8,0,0,-0.8,0,841.89)"
       id="path46"
       inkscape:connector-curvature="0" /><path
       style="fill:none;stroke:#110f0d;stroke-width:1;stroke-linecap:round;stroke-linejoin:round;stroke-miterlimit:10;stroke-opacity:1;stroke-dasharray:none"
       d="M 614.75 217.40625 L 614.75 228.0625 L 602.53125 228.0625 L 593.5 228.0625 L 579.34375 228.0625 L 579.34375 242.21875 L 579.34375 269.625 L 579.34375 282.75 L 579.34375 291 L 579.34375 360.5625 L 579.34375 487.1875 L 568.6875 487.1875 L 568.6875 515.5625 L 568.6875 543.90625 L 579.34375 543.90625 L 579.34375 607.75 L 579.34375 621.8125 L 579.34375 685.625 L 568.6875 685.625 L 568.6875 713.96875 L 568.6875 742.3125 L 579.34375 742.3125 L 579.34375 781.3125 L 579.34375 795.40625 L 579.34375 813.53125 L 579.34375 823.75 L 579.34375 826.28125 L 579.34375 840.46875 L 593.5 840.46875 L 614.75 840.46875 L 614.75 851.09375 L 643.09375 851.09375 L 643.09375 840.46875 L 658.71875 840.46875 L 658.71875 820.6875 L 650.875 820.6875 L 650.875 802.40625 L 658.71875 802.40625 L 658.71875 786.96875 L 676.8125 786.96875 L 676.8125 802.40625 L 684.625 802.40625 L 684.625 820.6875 L 676.8125 820.6875 L 676.8125 840.46875 L 696.25 840.46875 L 696.25 851.09375 L 724.59375 851.09375 L 724.59375 840.46875 L 730.09375 840.46875 L 744.28125 840.46875 L 744.28125 826.28125 L 744.28125 823.75 L 744.28125 809.59375 L 744.28125 795.40625 L 744.28125 781.3125 L 744.28125 762.75 L 736.5625 762.75 C 735.88875 762.84 735.18625 762.875 734.46875 762.875 C 729.05875 762.875 724.6875 760.18255 724.6875 756.84375 L 724.6875 728.09375 L 724.6875 501.4375 L 724.6875 472.6875 C 724.6875 469.34875 729.05875 466.625 734.46875 466.625 L 744.28125 466.625 L 744.28125 459.59375 L 744.28125 360.5625 L 744.28125 291 L 744.28125 282.75 L 744.28125 228.0625 L 724.59375 228.0625 L 724.59375 217.40625 L 696.25 217.40625 L 696.25 228.0625 L 677.03125 228.0625 L 677.03125 248.125 L 684.84375 248.125 L 684.84375 266.40625 L 677.03125 266.40625 L 677.03125 281.84375 L 658.9375 281.84375 L 658.9375 266.40625 L 651.09375 266.40625 L 651.09375 248.125 L 658.9375 248.125 L 658.9375 228.0625 L 643.09375 228.0625 L 643.09375 217.40625 L 614.75 217.40625 z M 601.625 249.40625 C 605.49 249.40625 608.625 252.54125 608.625 256.40625 C 608.625 260.27125 605.49 263.40625 601.625 263.40625 C 597.76 263.40625 594.625 260.27125 594.625 256.40625 C 594.625 252.54125 597.76 249.40625 601.625 249.40625 z M 722.09375 249.40625 C 725.95875 249.40625 729.09375 252.54125 729.09375 256.40625 C 729.09375 260.27125 725.95875 263.40625 722.09375 263.40625 C 718.22875 263.40625 715.09375 260.27125 715.09375 256.40625 C 715.09375 252.54125 718.22875 249.40625 722.09375 249.40625 z M 606.9375 283.46875 C 609.8725 283.46875 612.25 285.84625 612.25 288.78125 L 612.25 320.65625 C 612.25 323.59125 609.8725 325.96875 606.9375 325.96875 C 604.0025 325.96875 601.625 323.59125 601.625 320.65625 L 601.625 288.78125 C 601.625 285.84625 604.0025 283.46875 606.9375 283.46875 z M 716.78125 283.46875 C 719.71625 283.46875 722.09375 285.84625 722.09375 288.78125 L 722.09375 320.65625 C 722.09375 323.59125 719.71625 325.96875 716.78125 325.96875 C 713.84625 325.96875 711.46875 323.59125 711.46875 320.65625 L 711.46875 288.78125 C 711.46875 285.84625 713.84625 283.46875 716.78125 283.46875 z M 658.53125 318.9375 L 665.1875 318.9375 C 676.92875 318.9375 686.46875 328.44625 686.46875 340.1875 L 686.46875 379.09375 C 686.46875 390.835 676.92875 400.375 665.1875 400.375 L 658.53125 400.375 C 646.79 400.375 637.28125 390.835 637.28125 379.09375 L 637.28125 340.1875 C 637.28125 328.44625 646.79 318.9375 658.53125 318.9375 z M 606.9375 393.3125 C 609.8725 393.3125 612.25 395.69 612.25 398.625 L 612.25 430.5 C 612.25 433.435 609.8725 435.8125 606.9375 435.8125 C 604.0025 435.8125 601.625 433.435 601.625 430.5 L 601.625 398.625 C 601.625 395.69 604.0025 393.3125 606.9375 393.3125 z M 716.78125 393.3125 C 719.71625 393.3125 722.09375 395.69 722.09375 398.625 L 722.09375 430.5 C 722.09375 433.435 719.71625 435.8125 716.78125 435.8125 C 713.84625 435.8125 711.46875 433.435 711.46875 430.5 L 711.46875 398.625 C 711.46875 395.69 713.84625 393.3125 716.78125 393.3125 z M 661.875 485.6875 C 678.36 485.6877 691.71875 499.0777 691.71875 515.5625 C 691.71875 532.0464 678.36 545.40625 661.875 545.40625 C 645.39125 545.40625 632 532.0464 632 515.5625 C 632 499.0775 645.39125 485.6875 661.875 485.6875 z M 613.53125 607.78125 L 628.5 607.78125 C 632.19375 607.78125 635.1875 610.8848 635.1875 614.75 C 635.1875 618.6136 632.19375 621.75 628.5 621.75 L 613.53125 621.75 C 609.8375 621.75 606.84375 618.6136 606.84375 614.75 C 606.84375 610.8848 609.8375 607.78125 613.53125 607.78125 z M 686.65625 607.78125 C 690.52125 607.78125 693.65625 610.8848 693.65625 614.75 C 693.65625 618.615 690.52125 621.75 686.65625 621.75 C 682.79125 621.75 679.6875 618.6148 679.6875 614.75 C 679.6875 610.8848 682.79125 607.78125 686.65625 607.78125 z M 661.875 684.125 C 678.36 684.125 691.71875 697.48375 691.71875 713.96875 C 691.71875 730.45245 678.36 743.84375 661.875 743.84375 C 645.39125 743.84375 632 730.45255 632 713.96875 C 632 697.48375 645.39125 684.125 661.875 684.125 z M 601.625 805.125 C 605.49 805.125 608.625 808.2599 608.625 812.125 C 608.625 815.99 605.49 819.125 601.625 819.125 C 597.76 819.125 594.625 815.9898 594.625 812.125 C 594.625 808.2598 597.76 805.125 601.625 805.125 z M 722.09375 805.125 C 725.95875 805.125 729.09375 808.2599 729.09375 812.125 C 729.09375 815.99 725.95875 819.125 722.09375 819.125 C 718.22875 819.125 715.09375 815.9898 715.09375 812.125 C 715.09375 808.2598 718.22875 805.125 722.09375 805.125 z "
       transform="matrix(0.8,0,0,-0.8,-36.717365,838.61504)"
       id="path122" /><path
       style="fill:none;stroke:#110f0d;stroke-width:1;stroke-linecap:round;stroke-linejoin:round;stroke-miterlimit:10;stroke-opacity:1;stroke-dasharray:none"
       d="M 568.6875 872.03125 L 568.6875 906.90625 L 579.3125 906.90625 L 579.3125 921.8125 L 599.03125 921.8125 L 599.03125 913.96875 L 617.3125 913.96875 L 617.3125 921.8125 L 632.75 921.8125 L 632.75 939.90625 L 617.3125 939.90625 L 617.3125 947.71875 L 599.03125 947.71875 L 599.03125 939.90625 L 579.3125 939.90625 L 579.3125 955.0625 L 568.6875 955.0625 L 568.6875 1022.5 L 568.6875 1049.3125 L 589.96875 1049.3125 L 606.71875 1049.3125 L 723 1049.3125 C 734.74125 1049.3125 744.28125 1039.8038 744.28125 1028.0625 L 744.28125 893.3125 C 744.28125 881.5713 734.74125 872.03125 723 872.03125 L 594.96875 872.03125 L 589.96875 872.03125 L 568.6875 872.03125 z M 667.8125 891.09375 C 672.215 891.09375 675.78125 894.6601 675.78125 899.0625 C 675.78125 903.465 672.215 907.03125 667.8125 907.03125 C 663.41 907.03125 659.84375 903.4652 659.84375 899.0625 C 659.84375 894.6601 663.41 891.09375 667.8125 891.09375 z M 614.75 891.96875 L 643.09375 891.96875 L 643.09375 906.15625 L 614.75 906.15625 L 614.75 891.96875 z M 696.25 891.96875 L 724.59375 891.96875 L 724.59375 906.15625 L 696.25 906.15625 L 696.25 891.96875 z M 667.8125 954.875 C 672.215 954.875 675.78125 958.44125 675.78125 962.84375 C 675.78125 967.24745 672.215 970.8125 667.8125 970.8125 C 663.41 970.8125 659.84375 967.24755 659.84375 962.84375 C 659.84375 958.44125 663.41 954.875 667.8125 954.875 z M 614.75 955.75 L 643.09375 955.75 L 643.09375 969.9375 L 614.75 969.9375 L 614.75 955.75 z M 696.25 955.75 L 724.59375 955.75 L 724.59375 969.9375 L 696.25 969.9375 L 696.25 955.75 z "
       transform="matrix(0.8,0,0,-0.8,-36.717365,838.61504)"
       id="path166" /><path
       style="fill:none;stroke:#110f0d;stroke-width:1;stroke-linecap:round;stroke-linejoin:round;stroke-miterlimit:10;stroke-opacity:1;stroke-dasharray:none"
       d="M 152.5 1067.6562 L 152.5 1094.5 L 152.5 1161.9375 L 163.125 1161.9375 L 163.125 1176.8438 L 182.84375 1176.8438 L 182.84375 1169 L 201.125 1169 L 201.125 1176.8438 L 216.5625 1176.8438 L 216.5625 1194.9375 L 201.125 1194.9375 L 201.125 1202.75 L 182.84375 1202.75 L 182.84375 1194.9375 L 163.125 1194.9375 L 163.125 1210.0938 L 152.5 1210.0938 L 152.5 1244.9375 L 173.78125 1244.9375 L 178.78125 1244.9375 L 306.8125 1244.9375 C 318.55375 1244.9375 328.09375 1235.4288 328.09375 1223.6875 L 328.09375 1088.9375 C 328.09375 1077.1962 318.55375 1067.6562 306.8125 1067.6562 L 190.53125 1067.6562 L 173.78125 1067.6562 L 152.5 1067.6562 z M 251.625 1146.1562 C 256.0275 1146.1562 259.59375 1149.7525 259.59375 1154.1562 C 259.59375 1158.5588 256.0275 1162.125 251.625 1162.125 C 247.2225 1162.125 243.65625 1158.5588 243.65625 1154.1562 C 243.65625 1149.7525 247.2225 1146.1562 251.625 1146.1562 z M 198.5625 1147.0625 L 226.90625 1147.0625 L 226.90625 1161.2188 L 198.5625 1161.2188 L 198.5625 1147.0625 z M 280.0625 1147.0625 L 308.40625 1147.0625 L 308.40625 1161.2188 L 280.0625 1161.2188 L 280.0625 1147.0625 z M 251.625 1209.9375 C 256.0275 1209.9375 259.59375 1213.5025 259.59375 1217.9062 C 259.59375 1222.3087 256.0275 1225.9062 251.625 1225.9062 C 247.2225 1225.9062 243.65625 1222.3088 243.65625 1217.9062 C 243.65625 1213.5025 247.2225 1209.9375 251.625 1209.9375 z M 198.5625 1210.8438 L 226.90625 1210.8438 L 226.90625 1225 L 198.5625 1225 L 198.5625 1210.8438 z M 280.0625 1210.8438 L 308.40625 1210.8438 L 308.40625 1225 L 280.0625 1225 L 280.0625 1210.8438 z "
       transform="matrix(0.8,0,0,-0.8,-36.717365,838.61504)"
       id="path222" /><path
       style="fill:none;stroke:#110f0d;stroke-width:1;stroke-linecap:round;stroke-linejoin:round;stroke-miterlimit:10;stroke-opacity:1;stroke-dasharray:none"
       d="M 8.6875 645.59375 L 8.6875 656.15625 L 8.6875 1081.3438 L 8.6875 1091.9062 L 33.5 1091.9062 L 33.5 1081.3438 L 54.78125 1081.3438 L 54.78125 1081 L 50.8125 1081 L 50.8125 1060.7188 L 43 1060.7188 L 43 1042.4375 L 50.8125 1042.4375 L 50.8125 1027 L 68.90625 1027 L 68.90625 1034.75 L 68.90625 1042.4375 L 76.75 1042.4375 L 76.75 1060.7188 L 68.90625 1060.7188 L 68.90625 1081 L 68.90625 1081.3438 L 89.90625 1081.3438 L 89.90625 1091.9062 L 114.71875 1091.9062 L 114.71875 1081.3438 L 115 1081.3438 L 115 1001.625 L 125.625 1001.625 L 125.625 948.46875 L 115 948.46875 L 115 877.8125 L 94.9375 877.8125 L 94.9375 885.625 L 76.65625 885.625 L 76.65625 881.15625 L 76.375 881.15625 L 76.375 877.8125 L 61.21875 877.8125 L 61.21875 859.71875 L 76.375 859.71875 L 76.375 856.34375 L 76.65625 856.34375 L 76.65625 851.875 L 94.9375 851.875 L 94.9375 859.71875 L 115 859.71875 L 115 789.03125 L 125.625 789.03125 L 125.625 735.875 L 115 735.875 L 115 656.15625 L 114.71875 656.15625 L 114.71875 645.59375 L 89.90625 645.59375 L 89.90625 656.15625 L 68.90625 656.15625 L 68.90625 675.0625 L 76.75 675.0625 L 76.75 693.34375 L 74.25 693.34375 L 74.25 694.75 L 69 694.75 L 69 702.71875 L 68.90625 702.71875 L 68.90625 708.78125 L 50.8125 708.78125 L 50.8125 694.75 L 49.4375 694.75 L 49.4375 693.34375 L 43 693.34375 L 43 675.0625 L 50.8125 675.0625 L 50.8125 656.15625 L 33.5 656.15625 L 33.5 645.59375 L 8.6875 645.59375 z M 40.5625 861.46875 C 44.5737 861.46875 47.84375 864.73875 47.84375 868.75 C 47.84375 872.76125 44.5737 876 40.5625 876 C 36.5512 876 33.3125 872.76125 33.3125 868.75 C 33.3125 864.73875 36.5512 861.46875 40.5625 861.46875 z "
       transform="matrix(0.8,0,0,-0.8,-36.717365,838.61504)"
       id="path242" /><path
       style="fill:none;stroke:#110f0d;stroke-width:0.80000001;stroke-linecap:round;stroke-linejoin:round;stroke-miterlimit:10;stroke-opacity:1;stroke-dasharray:none"
       d="m 394.89208,-119.40546 c 0,5.5 -3.492,12.869 -7.75,16.35 l -82.9,67.775005 c -4.258,3.482 -12.249,6.35 -17.75,6.35 l -23.975,0 c -5.5,0 -10,-4.499 -10,-10 l 0,-107.575005 c 0,-5.501 4.5,-10 10,-10 l 122.375,0 c 5.5,0 10,4.499 10,10 l 0,27.1 z m -17.375,-15.725 0,-8.5 -56.7,0 0,8.5 56.7,0 z m -91.025,84.825005 0,-19.85 -22.675,0 0,19.85 22.675,0 z m 0,-64.975005 0,-19.85 -22.675,0 0,19.85 22.675,0 z m -5.525,22.550005 c 0,-3.209 -2.591,-5.8 -5.8,-5.8 -3.209,0 -5.825,2.591 -5.825,5.8 0,3.209 2.616,5.825 5.825,5.825 3.209,0 5.8,-2.616 5.8,-5.825 z"
       id="path250"
       inkscape:connector-curvature="0" /><path
       style="fill:none;stroke:#110f0d;stroke-width:0.80000001;stroke-linecap:round;stroke-linejoin:round;stroke-miterlimit:10;stroke-opacity:1;stroke-dasharray:none"
       d="m 526.02215,-155.58159 c 5.50104,0 10,4.5 10,10 l 0,122.375003 c 0,5.5 -4.49896,10 -10,10 l -107.55,0 c -5.501,0 -10,-4.5 -10,-10 l 0,-23.975 c 0,-5.501 2.843,-13.492 6.325,-17.75 l 67.8,-82.900003 c 3.481,-4.258 10.825,-7.75 16.325,-7.75 l 27.1,0 z m -2.87496,17.375 -8.5,0 0,56.700003 8.5,0 0,-56.700003 z m -8.5,91.025003 -19.82504,0 0,22.675 19.82504,0 0,-22.675 z m -64.97504,0 -19.85,0 0,22.675 19.85,0 0,-22.675 z m 22.575,5.525 c -3.2091,0 -5.825,2.591 -5.825,5.8 0,3.209 2.6159,5.825 5.825,5.825 3.2089,0 5.8,-2.616 5.8,-5.825 0,-3.209 -2.5911,-5.8 -5.8,-5.8 z"
       id="path264"
       inkscape:connector-curvature="0" /><path
       style="fill:none;stroke:#110f0d;stroke-width:0.80000001;stroke-linecap:round;stroke-linejoin:round;stroke-miterlimit:10;stroke-opacity:1;stroke-dasharray:none"
       d="m 65.732635,655.03531 c 0,5.5 -4.499,10 -10,10 l -82.05,0 c -5.5,0 -10,-4.5 -10,-10 l 0,-148.7 c 6.262,0 11.35,-5.088 11.35,-11.35 0,-6.263 -5.088,-11.325 -11.35,-11.325 l 0,-148.77504 c 0,-5.5 4.5,-9.99992 10,-10 l 82.05,0 c 5.501,0 10,4.5 10,10 l 0,87.12504 c 0,5.50104 -2.716,13.606 -6.025,18 0,0 -21.9,29.084 -21.9,54.95 0,25.866 21.9,54.975 21.9,54.975 3.309,4.394 6.025,12.5 6.025,18 l 0,87.1 z m -28.9,-24 c 0,-3.131 -1.677,-5.675 -3.725,-5.675 l -52.675,0 c -2.048,0 -3.7,2.544 -3.7,5.675 0,3.131 1.652,5.675 3.7,5.675 l 52.675,0 c 2.048,0 3.725,-2.544 3.725,-5.675 z m 0,-272.125 c 0,-3.13104 -1.677,-5.67496 -3.725,-5.67496 l -52.675,0 c -2.048,0 -3.7,2.54392 -3.7,5.67496 0,3.13096 1.652,5.67512 3.7,5.67496 l 52.675,0 c 2.048,0 3.725,-2.54392 3.725,-5.67496 z m -2.025,215.5 0,-17.225 c 0,-3.053 -2.472,-5.525 -5.525,-5.525 -3.053,0 -5.55,2.472 -5.55,5.525 l 0,17.225 c 0,3.052 2.497,5.525 5.55,5.525 3.053,0 5.525,-2.473 5.525,-5.525 z m 0,-141.85 0,-17.22496 c 0,-3.05304 -2.472,-5.52504 -5.525,-5.52504 -3.053,0 -5.55,2.47192 -5.55,5.52504 l 0,17.22496 c 0,3.05304 2.497,5.52496 5.55,5.52496 3.053,0 5.525,-2.47192 5.525,-5.52496 z"
       id="path290"
       inkscape:connector-curvature="0" /></g></svg>