<?xml version="1.0" encoding="UTF-8" standalone="no"?>
<!-- Created with Inkscape (http://www.inkscape.org/) -->

<svg
   xmlns:dc="http://purl.org/dc/elements/1.1/"
   xmlns:cc="http://creativecommons.org/ns#"
   xmlns:rdf="http://www.w3.org/1999/02/22-rdf-syntax-ns#"
   xmlns:svg="http://www.w3.org/2000/svg"
   xmlns="http://www.w3.org/2000/svg"
   version="1.1"
   width="290"
   height="543"
   id="svg3132">
  <metadata
     id="metadata3138">
    <rdf:RDF>
      <cc:Work
         rdf:about="">
        <dc:format>image/svg+xml</dc:format>
        <dc:type
           rdf:resource="http://purl.org/dc/dcmitype/StillImage" />
        <dc:title></dc:title>
      </cc:Work>
    </rdf:RDF>
  </metadata>
  <defs
     id="defs3136" />
  <path
     d="m 75.364833,288.98654 c -14.82486,-1.62231 -31.90514,-9.12321 -44.4546,-19.5225 C 20.290613,260.66394 9.3939231,242.97615 5.0580031,227.5 c -2.22979,-7.95876 -2.24139,-8.38407 -2.24925,-82.5 -0.007,-68.532021 0.13557,-75.020696 1.78317,-81 C 13.211953,32.717058 33.737553,11.505778 63.800843,2.8131532 l 8,-2.3131532 75.499997,0 c 69.66849,0 75.96343,0.13835877 81.5,1.7913162 30.20634,9.0181858 50.75023,29.3276238 59.68086,58.9998028 2.12006,7.043927 2.17845,8.822069 2.55178,77.708881 0.25114,46.34153 0.0174,73.24139 -0.68222,78.5 -4.45963,33.52226 -28.26209,60.46321 -61.55042,69.6662 -7.85992,2.17297 -9.20821,2.2154 -77,2.42289 -37.95,0.11615 -72.346197,-0.15499 -76.436007,-0.60255 z M 216.40301,267.05323 c 24.4817,-6.1704 43.10155,-23.72261 51.3155,-48.37315 3.1517,-9.45842 3.71562,-23.05787 3.34555,-80.68008 -0.35394,-55.110337 -0.41856,-56.696767 -2.62715,-64.5 -7.03534,-24.856808 -26.0704,-43.848753 -50.83559,-50.720425 -7.46173,-2.070428 -10.13618,-2.180803 -61.58466,-2.541607 -59.384157,-0.416457 -73.135247,0.253965 -84.523057,4.120847 -14.62887,4.967426 -28.14595,15.285695 -36.44563,27.820774 -4.54007,6.856914 -7.21982,12.942865 -9.80219,22.261678 -1.83259,6.613123 -1.94405,10.658755 -1.92958,70.038633 0.0144,59.14736 0.13522,63.49578 1.96601,70.76074 5.01843,19.91414 19.04516,37.38152 37.02539,46.1074 15.51986,7.53185 14.49192,7.44016 84.493237,7.5362 57.94703,0.0795 62.49696,-0.0402 69.60217,-1.83101 z M 121.44054,249.25 c 2.30528,-4.2625 4.50817,-8.2 4.89531,-8.75 1.96863,-2.79672 8.40495,-24.09739 10.06802,-33.31957 C 138.32166,196.54569 138.95063,183 137.52663,183 c -0.42582,0 -4.32763,2.025 -8.67069,4.5 -4.34307,2.475 -7.99125,4.5 -8.10708,4.5 -0.11583,0 -8.70152,5.01708 -19.0793,11.14907 -22.857947,13.50621 -27.805057,15.78016 -35.994307,16.54489 -7.9675,0.74402 -13.97034,-1.35854 -20.15525,-7.0596 -10.45923,-9.64098 -12.23584,-20.5301 -5.85661,-35.89607 4.59372,-11.0651 4.71814,-15.99242 0.66972,-26.52055 -4.62642,-12.03122 -5.58233,-17.32283 -4.20626,-23.2843 2.04918,-8.87754 9.19987,-17.26188 18.09124,-21.21238 3.49333,-1.55211 5.89868,-1.86468 11.5,-1.49443 7.97119,0.5269 14.98265,3.66003 37.436307,16.7287 17.40831,10.13213 20.55967,8.9949 13.32952,-4.81022 -2.20218,-4.20481 -8.31106,-14.76458 -13.57528,-23.466153 C 89.776573,70.97212 87.400013,62.76381 90.867073,51.088964 c 1.92506,-6.482385 8.22623,-13.153011 15.720457,-16.642197 7.77402,-3.619454 14.38268,-3.308846 26.43984,1.242676 12.50716,4.721399 16.72375,4.708791 28.98577,-0.08667 11.90342,-4.655219 18.19546,-4.827544 26.84571,-0.735241 11.16689,5.282882 17.22587,15.551029 16.15366,27.375568 -0.61936,6.830487 -5.01484,16.555117 -16.83991,37.256902 -10.98049,19.223198 -13.28983,23.968138 -12.57359,25.834628 1.44049,3.75387 7.34208,1.63876 20.8751,-7.48155 24.38142,-16.43138 38.43743,-19.389979 50.01667,-10.52784 5.85935,4.48443 11.64664,13.3922 13.05116,20.08831 1.22046,5.81856 0.23648,10.64397 -4.80966,23.58645 -2.8385,7.28025 -2.29336,14.1043 2.02927,25.40243 3.31334,8.66013 3.72694,10.67108 3.29682,16.02941 -0.59791,7.4488 -3.61353,13.76732 -9.00021,18.85786 -6.57896,6.21727 -9.15778,7.18097 -19.25732,7.19648 -11.10698,0.0171 -10.7128,0.20061 -56.43436,-26.27917 -9.58889,-5.55344 -17.80139,-9.87032 -18.25,-9.59307 -0.4486,0.27725 -0.82483,5.54004 -0.83605,11.69508 -0.0229,12.52954 -2.86237,35.56496 -6.06363,49.19098 -1.16294,4.95 -2.34724,10.0125 -2.63178,11.25 -0.50804,2.20959 -0.78509,2.25 -15.42661,2.25 l -14.90927,0 z"
     id="path3142"
     style="fill:#000000" />
</svg>
