<?xml version="1.0" encoding="UTF-8" standalone="no"?>
<svg
   xmlns:dc="http://purl.org/dc/elements/1.1/"
   xmlns:cc="http://creativecommons.org/ns#"
   xmlns:rdf="http://www.w3.org/1999/02/22-rdf-syntax-ns#"
   xmlns:svg="http://www.w3.org/2000/svg"
   xmlns="http://www.w3.org/2000/svg"
   xmlns:sodipodi="http://sodipodi.sourceforge.net/DTD/sodipodi-0.dtd"
   xmlns:inkscape="http://www.inkscape.org/namespaces/inkscape"
   width="743.41003"
   height="348.63684"
   id="svg6903"
   version="1.1"
   inkscape:version="0.48.4 r9939"
   sodipodi:docname="girl guides logo.dxf">
  <metadata
     id="metadata7016">
    <rdf:RDF>
      <cc:Work
         rdf:about="">
        <dc:format>image/svg+xml</dc:format>
        <dc:type
           rdf:resource="http://purl.org/dc/dcmitype/StillImage" />
        <dc:title></dc:title>
      </cc:Work>
    </rdf:RDF>
  </metadata>
  <sodipodi:namedview
     pagecolor="#ffffff"
     bordercolor="#666666"
     borderopacity="1"
     objecttolerance="10"
     gridtolerance="10"
     guidetolerance="10"
     inkscape:pageopacity="0"
     inkscape:pageshadow="2"
     inkscape:window-width="1676"
     inkscape:window-height="1011"
     id="namedview7014"
     showgrid="false"
     fit-margin-top="0"
     fit-margin-left="0"
     fit-margin-right="0"
     fit-margin-bottom="0"
     inkscape:zoom="1.2685914"
     inkscape:cx="407.2033"
     inkscape:cy="109.30381"
     inkscape:window-x="0"
     inkscape:window-y="18"
     inkscape:window-maximized="0"
     inkscape:current-layer="g6924" />
  <desc
     id="desc6905">/home/pierre/Downloads/girl guides logo.dxf - scale = 27.814512</desc>
  <defs
     id="defs6907">
    <marker
       id="DistanceX"
       orient="auto"
       refX="0"
       refY="0"
       style="overflow:visible">
      <path
         d="M 3,-3 -3,3 M 0,-5 0,5"
         style="stroke:#000000;stroke-width:0.5"
         id="path6910"
         inkscape:connector-curvature="0" />
    </marker>
    <pattern
       height="8"
       id="Hatch"
       patternUnits="userSpaceOnUse"
       width="8"
       x="0"
       y="0">
      <path
         d="M8 4 l-4,4"
         linecap="square"
         stroke="#000000"
         stroke-width="0.25"
         id="path6913" />
      <path
         d="M6 2 l-4,4"
         linecap="square"
         stroke="#000000"
         stroke-width="0.25"
         id="path6915" />
      <path
         d="M4 0 l-4,4"
         linecap="square"
         stroke="#000000"
         stroke-width="0.25"
         id="path6917" />
    </pattern>
    <symbol
       id="*Model_Space" />
    <symbol
       id="*Paper_Space" />
    <symbol
       id="*Paper_Space0" />
  </defs>
  <g
     inkscape:groupmode="layer"
     inkscape:label="0"
     id="g6922"
     transform="translate(-0.342228,-275.94777)" />
  <g
     inkscape:groupmode="layer"
     inkscape:label="Layer 1"
     id="g6924"
     transform="translate(-0.342228,-275.94777)">
    <path
       style="color:#000000;fill:#000000;fill-opacity:1;fill-rule:nonzero;stroke:none;marker:none;visibility:visible;display:inline;overflow:visible;enable-background:accumulate"
       d="m 406.73136,530.50151 c 15.5742,-3.43801 26.11943,-19.70448 24.67276,-35.29218 -0.1554,-16.11652 0.005,-32.23747 -0.46184,-48.34993 -2.6001,-15.95387 -18.27647,-28.7049 -34.54221,-27.03927 -16.11032,0.0905 -32.25659,-0.75739 -48.34364,0.12228 -15.30241,1.98848 -28.61493,15.84863 -28.05961,31.62561 0.46476,18.14761 -0.6476,36.33484 0.65468,54.45959 2.31038,7.0609 4.75296,16.1528 11.98353,19.41608 5.9155,3.22881 12.16008,6.87663 19.17403,5.82608 17.90508,-0.16257 35.85822,0.63268 53.73077,-0.50026 0.39716,-0.0894 0.79443,-0.17856 1.19153,-0.268 z m -63.32027,9.84816 c -12.81262,-1.52756 -24.55808,-10.26508 -30.01339,-21.86292 -2.93376,-7.63006 -2.83651,-15.79682 -2.54999,-23.816 0.13045,-17.46502 -0.32052,-34.96178 0.23321,-52.40669 2.57035,-18.34891 20.59296,-33.66503 39.31644,-31.37996 19.84146,7.2e-4 39.69562,-0.35763 59.53232,0.30974 9.42338,2.12797 18.09599,7.06113 25.1534,13.60588 2.07816,7.86248 5.85013,15.53005 4.98684,23.88167 -0.0297,20.16253 0.76707,40.37357 -0.30867,60.50469 -1.84388,9.60825 -6.06914,18.82048 -12.51759,26.21332 -8.8921,2.17601 -17.61858,6.03985 -26.96523,5.12642 -18.95555,0.0523 -37.91515,0.32033 -56.86734,-0.17615 z"
       id="path6928"
       inkscape:connector-curvature="0" />
    <path
       d="m 364.09685,522.50882 c 1.03483,-1.91368 2.02349,-3.67991 2.19693,-3.92824 0,0 0.88506,-1.256 3.7746,-10.81859 0.74537,-4.14126 0.74537,-4.14126 1.60753,-8.91576 0.28248,-6.08133 -0.35813,-6.08133 -0.35813,-6.08133 -0.19013,0 -1.94201,0.9095 -3.891,2.02154 0,0 -1.95093,1.10894 -3.58834,2.01884 -0.0528,0 -0.0528,0 -0.10515,0 -3.85375,2.25358 -8.51224,5.00731 -8.51224,5.00731 -10.2645,6.06348 -12.4851,7.08279 -16.16114,7.42735 0,0 -3.57787,0.33252 -6.27223,-0.60957 -2.7774,-2.56089 -2.7774,-2.56089 -7.47314,-6.8884 -0.79814,-4.88897 2.06695,-11.78745 2.06695,-11.78745 2.06307,-4.96968 2.11817,-7.18135 0.30071,-11.90774 0,0 -2.07665,-5.40153 -2.50618,-7.77812 0.6185,-2.67457 0.6185,-2.67457 1.53692,-6.66218 3.21198,-3.76451 7.20425,-5.53812 7.20425,-5.53812 1.56679,-0.69687 2.6478,-0.83733 5.16212,-0.67048 0,0 3.57787,0.23669 6.72544,1.64401 10.08213,5.86598 10.08213,5.86598 17.89749,10.41505 1.41431,-0.51062 -1.83064,-6.70758 -1.83064,-6.70758 -0.98788,-1.88769 -3.73114,-6.62999 -6.09414,-10.5365 0,0 -5.89702,-9.74418 -6.96445,-13.42914 1.55594,-5.24167 1.55594,-5.24167 2.42198,-8.15332 2.82784,-2.99469 6.19308,-4.56187 6.19308,-4.56187 3.48979,-1.62461 6.45809,-1.48415 11.87126,0.55912 0,0 5.61417,2.12011 7.50806,2.11312 5.50436,-2.15269 5.50436,-2.15269 10.84963,-4.24137 2.8259,-0.0791 6.70797,1.75731 6.70797,1.75731 5.01313,2.3727 7.73427,6.98308 7.25197,12.29265 0,0 -0.27627,3.06686 -2.25165,7.43123 -5.30724,9.29486 -5.30724,9.29486 -10.23734,17.92582 -1.03716,2.13097 -0.71704,2.96791 -0.71704,2.96791 0.64914,1.68631 3.29656,0.73684 9.37401,-3.35786 0,0 10.94624,-7.3773 17.25727,-8.70547 5.19783,3.97908 5.19783,3.97908 7.82856,5.9917 2.59813,4.00042 3.22904,7.00597 3.22904,7.00597 0.54788,2.61327 0.10477,4.77877 -2.15929,10.58888 0,0 -1.27346,3.26785 -1.03056,6.33315 1.942,5.07289 1.942,5.07289 3.42848,8.95962 0.18664,0.90329 -0.006,3.31014 -0.006,3.31014 -0.27006,3.34312 -1.62267,6.17988 -4.04077,8.46645 0,0 -2.95511,2.79097 -4.11255,3.22206 -4.53355,0.009 -4.53355,0.009 -9.52068,0.0159 0.17732,0.083 -20.35052,-11.80568 -20.35052,-11.80568 -4.30578,-2.49454 -7.99268,-4.43267 -8.19484,-4.30695 0,0 -0.20176,0.12455 -0.37055,2.48755 -0.004,2.76266 -0.004,2.76266 -0.0147,8.38807 -1.27424,10.34249 -2.71222,16.45875 -2.71222,16.45875 -0.52187,2.22331 -1.0519,4.4959 -1.18189,5.05115 0,0 -0.22737,0.99293 -0.3527,1.01039 -6.57255,0 -6.57255,0 -6.57255,0 -6.6944,0 -6.6944,0 -6.6944,0 0,0 1.88264,-3.47932 1.88264,-3.47932 z"
       style="color:#000000;fill:#000000;fill-opacity:1;fill-rule:nonzero;stroke:none;marker:none;visibility:visible;display:inline;overflow:visible;enable-background:accumulate"
       id="path6930"
       inkscape:connector-curvature="0" />
    <path
       d="m 43.938616,607.29126 c 0.503641,0 0.923084,-0.18896 1.258715,-0.5665 0,0 0.335631,-0.37753 0.503641,-0.81793 0,-0.50364 0,-0.50364 0,-0.50364 0,-45.56245 0,-45.56245 0,-45.56245 0,-0.50364 -0.16801,-0.94404 -0.503641,-1.32157 0,0 -0.335631,-0.37754 -0.755074,-0.5665 -0.503641,0 -0.503641,0 -0.503641,0 -9.502443,0 -9.502443,0 -9.502443,0 -0.964989,0.96498 -1.856644,1.79339 -2.674576,2.486 0,0 -0.818319,0.69221 -1.583869,1.20594 -0.713169,0.33563 -0.713169,0.33563 -1.510536,0.71317 -0.975465,0.36706 -2.129028,0.72403 -2.129028,0.72403 -1.153952,0.35659 -2.506954,0.70269 -4.059007,1.03833 0,0 -0.377924,0.0838 -0.713556,0.29372 -0.293338,0.33563 -0.293338,0.33563 -0.587064,0.67126 -0.147057,0.39849 -0.147057,0.85984 -0.147057,0.85984 0,0 0,9.88037 0,9.88037 0,0 0,0.67126 0.230868,1.20633 0.461348,0.39849 0.461348,0.39849 0.923083,0.79698 0.524206,0.0943 1.111658,-0.11524 1.111658,-0.11524 1.426337,-0.41983 2.737433,-0.86022 3.93329,-1.32157 0,0 1.195857,-0.46174 2.401802,-1.0488 1.216809,-0.71356 1.216809,-0.71356 1.216809,-0.71356 0,30.77372 0,30.77372 0,30.77372 0,0.50364 0.178098,0.94404 0.534683,1.32157 0,0 0.356972,0.37754 0.765938,0.5665 0.461347,0 0.461347,0 0.461347,0 z"
       style="color:#000000;fill:#000000;fill-opacity:1;fill-rule:nonzero;stroke:none;marker:none;visibility:visible;display:inline;overflow:visible;enable-background:accumulate"
       id="path6932"
       inkscape:connector-curvature="0" />
    <path
       d="m 78.99173,596.404 c 0,-2.76886 -0.838885,-5.04495 -2.517042,-6.82787 0,0 -1.678157,-1.78331 -4.027577,-3.24107 -3.021071,-1.133 -3.021071,-1.133 -5.621924,-2.09799 -1.856643,-0.76555 -2.968301,-1.33205 -2.968301,-1.33205 -1.112046,-0.56611 -1.66768,-1.14309 -1.66768,-1.73054 0,0 0,-0.29372 0.188574,-0.55602 0.377537,-0.23048 0.377537,-0.23048 0.755074,-0.46135 0.503641,-0.11524 1.132998,-0.11524 1.132998,-0.11524 1.678157,0 3.440125,0.46135 5.286292,1.38443 0,0 0.964989,0.46135 1.730539,0.84936 0.566499,0.31468 0.566499,0.31468 1.132611,0.62936 0.367448,0.19944 0.53507,0.28325 0.53507,0.28325 0.629357,0.46173 1.258715,0.53507 1.888072,0.22039 0,0 0.629358,-0.31468 0.944036,-0.89165 0,-0.83889 0,-0.83889 0,-0.83889 0,-7.42618 0,-7.42618 0,-7.42618 0,-0.33563 -0.105151,-0.69222 -0.314678,-1.06976 0,0 -0.209915,-0.37753 -0.461736,-0.6084 -0.293726,-0.0838 -0.293726,-0.0838 -0.88079,-0.33563 -0.692216,-0.2623 -1.489583,-0.53468 -1.489583,-0.53468 -0.796979,-0.27278 -1.667681,-0.51412 -2.611717,-0.72404 0,0 -0.944036,-0.20952 -1.929977,-0.38801 -1.027847,-0.14667 -1.027847,-0.14667 -2.055694,-0.29373 -1.017371,-0.0733 -2.024265,-0.0733 -2.024265,-0.0733 -2.139505,0 -4.111388,0.24134 -5.91565,0.72364 0,0 -1.803873,0.48269 -3.377267,1.20634 -1.342525,0.96499 -1.342525,0.96499 -2.894966,2.05569 -1.132611,1.30062 -1.845779,2.81116 -1.845779,2.81116 -0.713168,1.51015 -1.069753,3.27211 -1.069753,5.28629 0,0 0,3.94338 1.405384,6.81739 2.810768,1.80426 2.810768,1.80426 5.328198,3.39822 2.055694,1.04919 3.65004,1.55244 3.65004,1.55244 0,0 0,-0.0629 0,-0.0629 0,0 1.971883,0.71317 3.5348,1.30062 1.153564,0.46135 1.153564,0.46135 2.307127,0.92309 0.576976,0.50325 0.576976,1.0488 0.576976,1.0488 0,0.33563 -0.23048,0.57697 -0.692216,0.72364 0,0 -0.461348,0.14667 -1.090705,0.22039 -0.797367,0 -0.797367,0 -3.272504,0 -2.412278,-0.46173 -4.761698,-1.38482 -4.761698,-1.38482 -1.258715,-0.46134 -2.286562,-0.84936 -3.083929,-1.16404 0,0 -0.796979,-0.31467 -1.384431,-0.55602 -0.377537,-0.16762 -0.377537,-0.16762 -1.090705,-0.50325 -0.618881,0.0419 -1.143475,0.46135 -1.143475,0.46135 -0.524206,0.41944 -0.744597,1.00689 -0.660786,1.76196 0,0 0,0 0.818319,7.74087 0,0 0,0 0.04191,0.33563 0.146669,0.31468 0.398489,0.6084 0.398489,0.6084 0.251821,0.29373 0.524594,0.48231 0.81832,0.56612 0,0 1.887685,0.62935 3.954243,1.12252 2.244268,0.35658 2.244268,0.35658 4.488925,0.71317 2.401802,0.17809 4.961137,0.17809 4.961137,0.17809 4.69884,0 8.369833,-1.00689 11.012979,-3.02068 0,0 2.643146,-2.01379 3.964719,-4.90837 z"
       style="color:#000000;fill:#000000;fill-opacity:1;fill-rule:nonzero;stroke:none;marker:none;visibility:visible;display:inline;overflow:visible;enable-background:accumulate"
       id="path6934"
       inkscape:connector-curvature="0" />
    <path
       d="m 98.878571,594.95671 c 0,0 0,-13.34183 0,-13.34183 0,0 0,0 7.048259,0 0,0 0,0 0.50364,0 0.42992,-0.18858 0.78651,-0.56612 0.78651,-0.56612 0.35658,-0.37753 0.53506,-0.83927 0.53506,-1.38443 0,0 0,0 0,-6.73397 0,0 0,0 0,-0.54515 -0.17848,-0.45126 -0.53506,-0.80785 -0.53506,-0.80785 -0.35659,-0.35658 -0.78651,-0.53468 -1.29015,-0.53468 0,0 0,0 -7.048259,0 0,0 0,0 0,0 0.06286,-9.62894 0.06286,-9.62894 0.06286,-9.62894 0,-0.58706 -0.209915,-1.08022 -0.629358,-1.47871 0,0 -0.419442,-0.39849 -0.923083,-0.53507 -0.587064,0.1261 -0.587064,0.1261 -0.587064,0.1261 -10.509726,1.82483 -10.509726,1.82483 -10.509726,1.82483 -0.419442,0.0419 -0.786891,0.25182 -1.101569,0.62935 0,0 -0.314291,0.37754 -0.471824,0.79737 0,0.46135 0,0.46135 0,0.46135 0,7.80372 0,7.80372 0,7.80372 0,0 -5.09733,0 -5.09733,0 0,0 -0.461736,0 -0.881178,0.1781 -0.377537,0.35658 -0.377537,0.35658 -0.755074,0.71317 -0.188962,0.45126 -0.188962,0.99641 -0.188962,0.99641 0,0 0,6.73397 0,6.73397 0,0 0,0.54516 0.188962,1.0069 0.377537,0.37753 0.377537,0.37753 0.755074,0.75507 0.419442,0.18858 0.881178,0.18858 0.881178,0.18858 0,0 5.09733,0 5.09733,0 0,0 0,0 0,16.04783 0,0 0,0 0,4.06949 1.01737,2.89496 3.052112,4.61503 3.052112,4.61503 2.034741,1.72006 5.296768,2.58028 9.786081,2.58028 0,0 0.838884,0 1.678157,-0.0629 0.838883,-0.12611 0.838883,-0.12611 1.678153,-0.25182 0.90213,-0.16801 1.86712,-0.37754 1.86712,-0.37754 0.88079,-0.20992 1.64673,-0.39849 2.29704,-0.5665 0,0 0.64992,-0.16762 1.18499,-0.35658 0.41944,-0.20992 0.41944,-0.20992 0.71317,-0.29373 0.25182,-0.22 0.46174,-0.57698 0.46174,-0.57698 0.20952,-0.35658 0.31467,-0.70269 0.31467,-1.03832 0,0 0,0 0,-7.48866 0,0 0,0 0,-0.71316 -0.26229,-0.54555 -0.78689,-0.92309 -0.78689,-0.92309 -0.5242,-0.37753 -1.10118,-0.41983 -1.73053,-0.1261 0,0 -0.46135,0.20991 -1.11166,0.46174 -0.83927,0.29372 -0.83927,0.29372 -1.67816,0.58745 -0.94404,0.14667 -1.99284,0.14667 -1.99284,0.14667 -0.461729,0 -0.839266,-0.19944 -1.132992,-0.59793 0,0 -0.293726,-0.39849 -0.440395,-0.99642 z"
       style="color:#000000;fill:#000000;fill-opacity:1;fill-rule:nonzero;stroke:none;marker:none;visibility:visible;display:inline;overflow:visible;enable-background:accumulate"
       id="path6936"
       inkscape:connector-curvature="0" />
    <path
       d="m 169.1109,591.30667 c 0,-4.19559 -1.40577,-7.63571 -4.21654,-10.32076 0,0 -2.51743,-2.51743 -7.17436,-4.44741 -6.79644,-1.34253 -6.79644,-1.34253 -8.68451,-1.67816 -1.63626,-0.36706 -3.02069,-0.76555 -3.02069,-0.76555 -1.38443,-0.39849 -2.55933,-0.76594 -3.52432,-1.10157 0,0 -1.0488,-0.37753 -1.57339,-0.90174 0,-0.67126 0,-0.67126 0,-1.38443 0.51411,-0.50364 1.54196,-0.79737 1.54196,-0.79737 1.02785,-0.29373 2.486,-0.44039 4.37369,-0.44039 0,0 2.47552,0 5.26533,0.44039 3.10489,0.88118 3.10489,0.88118 4.65694,1.34253 1.48958,0.50364 2.91592,1.0488 2.91592,1.0488 1.42633,0.54554 2.78981,1.13299 4.09043,1.76235 0,0 0.71356,0.37754 1.36348,0.34611 0.58745,-0.44078 0.58745,-0.44078 1.17491,-0.88118 0.25182,-0.61888 0.16801,-1.41586 0.16801,-1.41586 0,0 -1.25872,-11.01298 -1.25872,-11.01298 0,0 -0.0419,-0.33563 -0.19944,-0.67126 -0.27277,-0.33602 -0.27277,-0.33602 -0.54554,-0.67165 -0.30382,-0.20953 -0.63945,-0.29334 -0.63945,-0.29334 -0.79737,-0.25182 -1.79379,-0.50364 -2.98925,-0.75546 0,0 -1.19586,-0.25143 -2.59077,-0.52421 -1.59434,-0.29372 -1.59434,-0.29372 -4.90875,-0.88117 -3.12584,-0.29373 -6.06232,-0.29373 -6.06232,-0.29373 -6.71302,0 -11.94654,1.36348 -15.70173,4.09082 0,0 -3.75481,2.72696 -5.6324,6.73358 0,5.2863 0,5.2863 0,9.81751 1.53149,3.52394 4.59407,6.04137 4.59407,6.04137 2.81116,2.34942 7.84563,4.25845 15.10381,5.72669 0,0 3.85956,0.75507 6.33509,1.46824 1.0907,0.67126 1.0907,0.67126 1.76197,1.133 0.33563,0.46135 0.33563,0.92308 0.33563,0.92308 0,0.88079 -0.57698,1.55205 -1.73054,2.01379 0,0 -1.15395,0.46135 -2.67458,0.69222 -1.88807,0 -1.88807,0 -4.95066,0 -3.41917,-0.62936 -7.19531,-1.88808 -7.19531,-1.88808 -3.65004,-1.30062 -6.50272,-2.45418 -8.5588,-3.46107 0,0 -0.71317,-0.33564 -1.36348,-0.30421 -0.58745,0.39849 -0.58745,0.39849 -1.17451,0.79698 -0.25182,0.59793 -0.16801,1.39491 -0.16801,1.39491 0,0 1.00689,11.95702 1.00689,11.95702 0,0 0.0419,0.37792 0.20992,0.7345 0.29372,0.33563 0.29372,0.33563 0.58745,0.67127 0.33563,0.20952 0.71317,0.29372 0.71317,0.29372 0.46134,0.0838 1.12213,0.22001 1.98236,0.40897 0,0 0.85983,0.18857 1.89816,0.38801 1.21681,0.20992 1.21681,0.20992 1.21681,0.20992 0,-0.0633 0,-0.0633 0,-0.0633 0.33563,0.0842 0.66078,0.14706 0.97546,0.18896 0,0 0.31468,0.0419 0.68174,0.10477 0.41944,0.0842 0.41944,0.0842 2.2237,0.37792 1.81435,0.22 3.63957,0.36706 3.63957,0.36706 1.82482,0.14667 3.66051,0.22001 5.50629,0.22001 0,0 3.44052,0 6.53453,-0.36707 2.74791,-0.73412 2.74791,-0.73412 5.49621,-1.46824 2.32847,-1.06975 4.23749,-2.47552 4.23749,-2.47552 1.90864,-1.40539 3.37727,-3.1464 4.40512,-5.22344 0,0 1.02784,-2.07664 1.54196,-4.47844 z"
       style="color:#000000;fill:#000000;fill-opacity:1;fill-rule:nonzero;stroke:none;marker:none;visibility:visible;display:inline;overflow:visible;enable-background:accumulate"
       id="path6938"
       inkscape:connector-curvature="0" />
    <path
       d="m 206.11495,585.51674 c 0,2.89496 -0.67127,4.98209 -2.01418,6.26175 0,0 -1.34253,1.27967 -3.52394,1.9195 -3.02068,0 -3.02068,0 -6.20937,0 -2.27609,-0.6084 -3.63957,-1.82521 -3.63957,-1.82521 -1.36347,-1.21642 -2.04521,-3.27211 -2.04521,-6.16708 0,0 0,0 0,-25.92782 0,0 0,0 0,-0.50364 -0.18897,-0.4404 -0.5665,-0.81793 -0.5665,-0.81793 -0.37754,-0.37793 -0.83889,-0.5665 -1.38443,-0.5665 0,0 0,0 -12.90106,0 0,0 0,0 -0.54554,0 -0.46135,0.18857 -0.83889,0.5665 -0.83889,0.5665 -0.37753,0.37753 -0.5665,0.81793 -0.5665,1.32157 0,0 0,0 0,31.33983 0,0 0,0 0,6.5031 2.24466,4.50988 6.73397,7.02731 6.73397,7.02731 4.06949,2.2656 10.29981,3.39822 18.6906,3.39822 0,0 8.13935,0 14.34834,-1.13262 4.2794,-2.2656 4.2794,-2.2656 8.93633,-4.78303 2.32847,-4.30035 2.32847,-10.38362 2.32847,-10.38362 0,0 0,-31.96919 0,-31.96919 0,0 0,-0.50364 -0.18857,-0.94404 -0.37754,-0.37753 -0.37754,-0.37753 -0.75547,-0.75546 -0.44039,-0.18857 -0.94364,-0.18857 -0.94364,-0.18857 0,0 -12.9643,0 -12.9643,0 0,0 -0.54516,0 -1.0069,0.18857 -0.37753,0.37793 -0.37753,0.37793 -0.75507,0.75546 -0.18857,0.4404 -0.18857,0.94404 -0.18857,0.94404 0,0 0,25.73886 0,25.73886 z"
       style="color:#000000;fill:#000000;fill-opacity:1;fill-rule:nonzero;stroke:none;marker:none;visibility:visible;display:inline;overflow:visible;enable-background:accumulate"
       id="path6940"
       inkscape:connector-curvature="0" />
    <path
       d="m 278.48639,557.95267 c -0.29372,0 -0.6084,0.0943 -0.94403,0.28325 0,0 -0.33563,0.18857 -0.58745,0.40896 -0.16801,0.25182 -0.16801,0.25182 -0.16801,0.25182 -16.29927,26.74614 -16.29927,26.74614 -16.29927,26.74614 0,0 -16.48824,-26.74614 -16.48824,-26.74614 0,0 -0.12571,-0.25182 -0.36706,-0.47221 -0.35658,-0.18857 -0.35658,-0.18857 -0.71317,-0.37754 -0.3042,-0.0943 -0.55563,-0.0943 -0.55563,-0.0943 0,0 -14.72627,0 -14.72627,0 0,0 -0.54554,0 -1.00689,0.18896 -0.37754,0.37754 -0.37754,0.37754 -0.75508,0.75507 -0.18896,0.4404 -0.18896,0.94404 -0.18896,0.94404 0,0 0,45.56245 0,45.56245 0,0 0,0.50364 0.18896,0.94404 0.37754,0.37753 0.37754,0.37753 0.75508,0.75507 0.46135,0.18896 1.00689,0.18896 1.00689,0.18896 0,0 12.58638,0 12.58638,0 0,0 0.54554,0 1.00689,-0.18896 0.37754,-0.37754 0.37754,-0.37754 0.75507,-0.75507 0.18897,-0.4404 0.18897,-0.94404 0.18897,-0.94404 0,0 0,-24.54339 0,-24.54339 0,0 0,0 13.59326,25.36171 0,0 0,0 0.16801,0.29373 0.25143,0.25143 0.58707,0.46134 0.58707,0.46134 0.33563,0.20992 0.65031,0.31468 0.94403,0.31468 0,0 0,0 5.91565,0 0,0 0,0 0.29373,0 0.31468,-0.10476 0.65031,-0.31468 0.65031,-0.31468 0.33563,-0.20991 0.58745,-0.46134 0.75507,-0.75507 0,0 0,0 13.65613,-25.42457 0,0 0,0 0,0 0,24.60625 0,24.60625 0,24.60625 0,0.50364 0.18896,0.94404 0.5665,1.32157 0,0 0.37753,0.37754 0.83927,0.5665 0.54516,0 0.54516,0 0.54516,0 12.58637,0 12.58637,0 12.58637,0 0.54555,0 1.00689,-0.18896 1.38443,-0.5665 0,0 0.37793,-0.37753 0.5665,-0.81793 0,-0.50364 0,-0.50364 0,-0.50364 0,-45.56245 0,-45.56245 0,-45.56245 0,-0.50364 -0.18857,-0.94404 -0.5665,-1.32157 0,0 -0.37754,-0.37754 -0.83888,-0.5665 -0.54555,0 -0.54555,0 -0.54555,0 z"
       style="color:#000000;fill:#000000;fill-opacity:1;fill-rule:nonzero;stroke:none;marker:none;visibility:visible;display:inline;overflow:visible;enable-background:accumulate"
       id="path6942"
       inkscape:connector-curvature="0" />
    <path
       d="m 350.79498,557.95267 c -0.29372,0 -0.6084,0.0943 -0.94403,0.28325 0,0 -0.33563,0.18857 -0.58745,0.40896 -0.16801,0.25182 -0.16801,0.25182 -0.16801,0.25182 -16.29927,26.74614 -16.29927,26.74614 -16.29927,26.74614 0,0 -16.48824,-26.74614 -16.48824,-26.74614 0,0 -0.12571,-0.25182 -0.36706,-0.47221 -0.35658,-0.18857 -0.35658,-0.18857 -0.71317,-0.37754 -0.3042,-0.0943 -0.55563,-0.0943 -0.55563,-0.0943 0,0 -14.72627,0 -14.72627,0 0,0 -0.54554,0 -1.00689,0.18896 -0.37754,0.37754 -0.37754,0.37754 -0.75508,0.75507 -0.18896,0.4404 -0.18896,0.94404 -0.18896,0.94404 0,0 0,45.56245 0,45.56245 0,0 0,0.50364 0.18896,0.94404 0.37754,0.37753 0.37754,0.37753 0.75508,0.75507 0.46135,0.18896 1.00689,0.18896 1.00689,0.18896 0,0 12.58638,0 12.58638,0 0,0 0.54554,0 1.00689,-0.18896 0.37754,-0.37754 0.37754,-0.37754 0.75507,-0.75507 0.18897,-0.4404 0.18897,-0.94404 0.18897,-0.94404 0,0 0,-24.54339 0,-24.54339 0,0 0,0 13.59326,25.36171 0,0 0,0 0.16801,0.29373 0.25143,0.25143 0.58707,0.46134 0.58707,0.46134 0.33563,0.20992 0.65031,0.31468 0.94403,0.31468 0,0 0,0 5.91565,0 0,0 0,0 0.29373,0 0.31468,-0.10476 0.65031,-0.31468 0.65031,-0.31468 0.33563,-0.20991 0.58745,-0.46134 0.75507,-0.75507 0,0 0,0 13.65613,-25.42457 0,0 0,0 0,0 0,24.60625 0,24.60625 0,24.60625 0,0.50364 0.18896,0.94404 0.5665,1.32157 0,0 0.37753,0.37754 0.83927,0.5665 0.54516,0 0.54516,0 0.54516,0 12.58637,0 12.58637,0 12.58637,0 0.54555,0 1.00689,-0.18896 1.38443,-0.5665 0,0 0.37793,-0.37753 0.5665,-0.81793 0,-0.50364 0,-0.50364 0,-0.50364 0,-45.56245 0,-45.56245 0,-45.56245 0,-0.50364 -0.18857,-0.94404 -0.5665,-1.32157 0,0 -0.37754,-0.37754 -0.83888,-0.5665 -0.54555,0 -0.54555,0 -0.54555,0 z"
       style="color:#000000;fill:#000000;fill-opacity:1;fill-rule:nonzero;stroke:none;marker:none;visibility:visible;display:inline;overflow:visible;enable-background:accumulate"
       id="path6944"
       inkscape:connector-curvature="0" />
    <path
       d="m 383.64496,607.29126 c 0.46173,0 0.84975,-0.18896 1.16443,-0.5665 0,0 0.31467,-0.37753 0.47182,-0.81793 0,-0.50364 0,-0.50364 0,-0.50364 0,-45.56245 0,-45.56245 0,-45.56245 0,-0.50364 -0.15715,-0.94404 -0.47182,-1.32157 0,0 -0.31468,-0.37754 -0.7027,-0.5665 -0.46173,0 -0.46173,0 -0.46173,0 -11.7052,0 -11.7052,0 -11.7052,0 -0.46134,0 -0.84936,0.18896 -1.16403,0.5665 0,0 -0.31468,0.37753 -0.47222,0.81793 0,0.50364 0,0.50364 0,0.50364 0,45.56245 0,45.56245 0,45.56245 0,0.50364 0.15754,0.94404 0.47222,1.32157 0,0 0.31467,0.37754 0.70269,0.5665 0.46134,0 0.46134,0 0.46134,0 z"
       style="color:#000000;fill:#000000;fill-opacity:1;fill-rule:nonzero;stroke:none;marker:none;visibility:visible;display:inline;overflow:visible;enable-background:accumulate"
       id="path6946"
       inkscape:connector-curvature="0" />
    <path
       d="m 419.076,607.29126 c 0.54516,0 0.99641,-0.18896 1.353,-0.5665 0,0 0.35658,-0.37753 0.53507,-0.81793 0,-0.50364 0,-0.50364 0,-0.50364 0,-35.05311 0,-35.05311 0,-35.05311 0,0 12.96391,0 12.96391,0 0,0 0.54516,0 1.00689,-0.18858 0.37754,-0.37754 0.37754,-0.37754 0.75508,-0.75507 0.18896,-0.46174 0.18896,-1.0069 0.18896,-1.0069 0,0 0,-8.55879 0,-8.55879 0,0 0,-0.50364 -0.18896,-0.94404 -0.37754,-0.37753 -0.37754,-0.37753 -0.75508,-0.75507 -0.46173,-0.18896 -1.00689,-0.18896 -1.00689,-0.18896 0,0 -43.54905,0 -43.54905,0 0,0 -0.54516,0 -0.99642,0.18896 -0.35658,0.37754 -0.35658,0.37754 -0.71317,0.75507 -0.1781,0.4404 -0.1781,0.94404 -0.1781,0.94404 0,0 0,8.55879 0,8.55879 0,0 0,0.54516 0.1781,1.0069 0.35659,0.37753 0.35659,0.37753 0.71317,0.75507 0.45126,0.18858 0.99642,0.18858 0.99642,0.18858 0,0 13.02715,0 13.02715,0 0,0 0,0 0,35.05311 0,0 0,0 0,0.50364 0.18858,0.4404 0.56611,0.81793 0.56611,0.81793 0.37754,0.37754 0.81833,0.5665 1.32158,0.5665 0,0 0,0 13.78223,0 z"
       style="color:#000000;fill:#000000;fill-opacity:1;fill-rule:nonzero;stroke:none;marker:none;visibility:visible;display:inline;overflow:visible;enable-background:accumulate"
       id="path6948"
       inkscape:connector-curvature="0" />
    <path
       d="m 472.37931,582.93645 c 0,-4.11139 1.44729,-7.4258 4.34226,-9.94323 0,0 3.02068,-2.51704 7.00635,-3.77575 4.95066,0 4.95066,0 6.54501,0 1.58387,0.0838 3.15687,0.25182 3.15687,0.25182 1.5734,0.16762 3.13632,0.39849 4.68876,0.69221 0,0 3.1883,0.62936 5.91526,1.27967 2.26561,0.67126 2.26561,0.67126 2.97878,0.88079 0.6084,-0.11524 1.11204,-0.55563 1.11204,-0.55563 0.50326,-0.44079 0.71317,-1.01738 0.62936,-1.73054 0,0 0,0 -1.07014,-8.74776 0,0 0,0 -0.0419,-0.33563 -0.15714,-0.32516 -0.42992,-0.63984 -0.42992,-0.63984 -0.27277,-0.31468 -0.57697,-0.51373 -0.9126,-0.59793 0,0 -2.18141,-0.67126 -5.05543,-1.29014 -3.56623,-0.56611 -3.56623,-0.56611 -7.13246,-1.13261 -4.00662,-0.28325 -8.45364,-0.28325 -8.45364,-0.28325 -9.14625,0 -16.55109,2.34942 -22.21492,7.04826 0,0 -5.66383,4.78304 -8.49594,11.2648 0,8.18126 0,8.18126 0,16.53014 2.74791,6.17794 8.24412,10.18457 8.24412,10.18457 5.49621,4.00662 13.42564,6.00994 23.78831,6.00994 0,0 4.57313,0 8.8211,-0.29373 3.92242,-0.58706 3.92242,-0.58706 7.84523,-1.17452 3.4929,-0.77602 6.55549,-1.74101 6.55549,-1.74101 0.37753,-0.12611 0.70269,-0.36745 0.97546,-0.72403 0,0 0.27278,-0.35659 0.40897,-0.72365 0,-0.37754 0,-0.37754 0,-0.37754 0,-22.0892 0,-22.0892 0,-22.0892 0,-0.54516 -0.18857,-0.99642 -0.5665,-1.353 0,0 -0.37754,-0.35659 -0.83888,-0.53468 -0.54555,0 -0.54555,0 -0.54555,0 -20.13828,0 -20.13828,0 -20.13828,0 -0.54515,0 -1.00689,0.17809 -1.38443,0.53468 0,0 -0.37753,0.35658 -0.56611,0.80784 0,0.54516 0,0.54516 0,0.54516 0,8.37022 0,8.37022 0,8.37022 0,0.54516 0.18858,1.0069 0.56611,1.38443 0,0 0.37754,0.37754 0.83928,0.5665 0.54515,0 0.54515,0 0.54515,0 6.60787,0 6.60787,0 6.60787,0 0,0 0,3.1464 0,3.1464 0,0 -1.97188,0.75507 -4.84551,1.13261 -3.77614,0 -3.77614,0 -8.51689,0 -3.7129,-1.13261 -6.39795,-3.39822 -6.39795,-3.39822 -2.64314,-2.26561 -3.96472,-5.3282 -3.96472,-9.18815 z"
       style="color:#000000;fill:#000000;fill-opacity:1;fill-rule:nonzero;stroke:none;marker:none;visibility:visible;display:inline;overflow:visible;enable-background:accumulate"
       id="path6950"
       inkscape:connector-curvature="0" />
    <path
       d="m 548.58976,585.51674 c 0,2.89496 -0.67126,4.98209 -2.01417,6.26175 0,0 -1.34253,1.27967 -3.52394,1.9195 -3.02068,0 -3.02068,0 -6.20938,0 -2.27608,-0.6084 -3.63956,-1.82521 -3.63956,-1.82521 -1.36348,-1.21642 -2.04522,-3.27211 -2.04522,-6.16708 0,0 0,0 0,-25.92782 0,0 0,0 0,-0.50364 -0.18896,-0.4404 -0.5665,-0.81793 -0.5665,-0.81793 -0.37753,-0.37793 -0.83888,-0.5665 -1.38443,-0.5665 0,0 0,0 -12.90105,0 0,0 0,0 -0.54555,0 -0.46134,0.18857 -0.83888,0.5665 -0.83888,0.5665 -0.37754,0.37753 -0.5665,0.81793 -0.5665,1.32157 0,0 0,0 0,31.33983 0,0 0,0 0,6.5031 2.24466,4.50988 6.73397,7.02731 6.73397,7.02731 4.06948,2.2656 10.29981,3.39822 18.6906,3.39822 0,0 8.13935,0 14.34834,-1.13262 4.2794,-2.2656 4.2794,-2.2656 8.93633,-4.78303 2.32847,-4.30035 2.32847,-10.38362 2.32847,-10.38362 0,0 0,-31.96919 0,-31.96919 0,0 0,-0.50364 -0.18858,-0.94404 -0.37753,-0.37753 -0.37753,-0.37753 -0.75546,-0.75546 -0.44039,-0.18857 -0.94365,-0.18857 -0.94365,-0.18857 0,0 -12.96429,0 -12.96429,0 0,0 -0.54516,0 -1.0069,0.18857 -0.37753,0.37793 -0.37753,0.37793 -0.75507,0.75546 -0.18858,0.4404 -0.18858,0.94404 -0.18858,0.94404 0,0 0,25.73886 0,25.73886 z"
       style="color:#000000;fill:#000000;fill-opacity:1;fill-rule:nonzero;stroke:none;marker:none;visibility:visible;display:inline;overflow:visible;enable-background:accumulate"
       id="path6952"
       inkscape:connector-curvature="0" />
    <path
       d="m 581.5026,607.29126 c 0.46173,0 0.84975,-0.18896 1.16442,-0.5665 0,0 0.31468,-0.37753 0.47183,-0.81793 0,-0.50364 0,-0.50364 0,-0.50364 0,-45.56245 0,-45.56245 0,-45.56245 0,-0.50364 -0.15715,-0.94404 -0.47183,-1.32157 0,0 -0.31467,-0.37754 -0.70269,-0.5665 -0.46173,0 -0.46173,0 -0.46173,0 -11.7052,0 -11.7052,0 -11.7052,0 -0.46135,0 -0.84936,0.18896 -1.16404,0.5665 0,0 -0.31468,0.37753 -0.47221,0.81793 0,0.50364 0,0.50364 0,0.50364 0,45.56245 0,45.56245 0,45.56245 0,0.50364 0.15753,0.94404 0.47221,1.32157 0,0 0.31468,0.37754 0.70269,0.5665 0.46135,0 0.46135,0 0.46135,0 z"
       style="color:#000000;fill:#000000;fill-opacity:1;fill-rule:nonzero;stroke:none;marker:none;visibility:visible;display:inline;overflow:visible;enable-background:accumulate"
       id="path6954"
       inkscape:connector-curvature="0" />
    <path
       id="path6958"
       style="color:#000000;fill:#000000;fill-opacity:1;fill-rule:nonzero;stroke:none;marker:none;visibility:visible;display:inline;overflow:visible;enable-background:accumulate"
       d="m 623.47864,582.68502 c 0,3.1883 -0.77641,5.59049 -2.32847,7.2054 0,0 -1.55244,1.6153 -3.839,2.42314 -3.02068,0 -3.02068,0 -3.02068,0 -10.57259,0 -10.57259,0 -10.57259,0 0,0 0,-19.3832 0,-19.3832 0,0 0,0 11.07584,0 0,0 0,0 2.85306,0 2.16085,0.81832 3.62909,2.45458 3.62909,2.45458 1.46824,1.63625 2.20275,4.06948 2.20275,7.30008 z m -35.61961,-24.73235 c -0.54555,0 -1.0069,0.18896 -1.38443,0.5665 0,0 -0.37754,0.37753 -0.5665,0.81793 0,0.50364 0,0.50364 0,0.50364 0,45.56245 0,45.56245 0,45.56245 0,0.50364 0.18896,0.94404 0.5665,1.32157 0,0 0.37753,0.37754 0.83888,0.5665 0.54555,0 0.54555,0 0.54555,0 27.69017,0 27.69017,0 27.69017,0 7.34199,0 13.34145,-2.30751 17.99838,-6.92254 0,0 4.69884,-4.65694 7.04826,-10.57259 0,-7.17397 0,-7.17397 0,-14.51635 -2.32846,-5.9366 -6.9854,-10.46743 -6.9854,-10.46743 -4.69884,-4.57312 -10.80306,-6.85968 -18.31306,-6.85968 0,0 0,0 -27.43835,0 z"
       inkscape:connector-curvature="0" />
    <path
       d="m 683.64125,607.29126 c 0.54516,0 0.99642,-0.18896 1.35301,-0.5665 0,0 0.35658,-0.37753 0.53468,-0.81793 0,-0.50364 0,-0.50364 0,-0.50364 0,-9.18777 0,-9.18777 0,-9.18777 0,-0.54554 -0.1781,-1.00689 -0.53468,-1.38481 0,0 -0.35659,-0.37754 -0.80785,-0.56612 -0.54516,0 -0.54516,0 -0.54516,0 -22.84427,0 -22.84427,0 -22.84427,0 0,0 0,-5.28629 0,-5.28629 0,0 0,0 18.06123,-0.0629 0,0 0,0 0.50365,0 0.44039,-0.18896 0.81793,-0.5665 0.81793,-0.5665 0.37753,-0.37753 0.5665,-0.83927 0.5665,-1.38443 0,0 0,0 0,-9.06243 0,0 0,0 0,-0.50326 -0.18897,-0.44078 -0.5665,-0.81831 -0.5665,-0.81831 -0.37754,-0.37754 -0.81793,-0.56612 -1.32158,-0.56612 0,0 0,0 -18.06123,0 0,0 0,0 0,0 0,-5.03486 0,-5.03486 0,-5.03486 0,0 21.14516,0 21.14516,0 0,0 0.50326,0 0.94404,-0.18857 0.37754,-0.37754 0.37754,-0.37754 0.75507,-0.75507 0.18858,-0.46174 0.18858,-1.00729 0.18858,-1.00729 0,0 0,-9.18776 0,-9.18776 0,0 0,-0.50364 -0.18858,-0.94404 -0.37753,-0.37753 -0.37753,-0.37753 -0.75507,-0.75507 -0.44078,-0.18896 -0.94404,-0.18896 -0.94404,-0.18896 0,0 -36.68936,0 -36.68936,0 0,0 -0.50364,0 -0.94404,0.18896 -0.37753,0.37754 -0.37753,0.37754 -0.75507,0.75507 -0.18896,0.4404 -0.18896,0.94404 -0.18896,0.94404 0,0 0,45.56245 0,45.56245 0,0 0,0.50364 0.18896,0.94404 0.37754,0.37753 0.37754,0.37753 0.75507,0.75507 0.4404,0.18896 0.94404,0.18896 0.94404,0.18896 0,0 38.38847,0 38.38847,0 z"
       style="color:#000000;fill:#000000;fill-opacity:1;fill-rule:nonzero;stroke:none;marker:none;visibility:visible;display:inline;overflow:visible;enable-background:accumulate"
       id="path6960"
       inkscape:connector-curvature="0" />
    <path
       d="m 731.4697,591.30667 c 0,-4.19559 -1.40577,-7.63571 -4.21654,-10.32076 0,0 -2.51743,-2.51743 -7.17436,-4.44741 -6.79644,-1.34253 -6.79644,-1.34253 -8.68451,-1.67816 -1.63626,-0.36706 -3.02069,-0.76555 -3.02069,-0.76555 -1.38443,-0.39849 -2.55933,-0.76594 -3.52432,-1.10157 0,0 -1.0488,-0.37753 -1.57339,-0.90174 0,-0.67126 0,-0.67126 0,-1.38443 0.51411,-0.50364 1.54196,-0.79737 1.54196,-0.79737 1.02785,-0.29373 2.486,-0.44039 4.37369,-0.44039 0,0 2.47552,0 5.26533,0.44039 3.10489,0.88118 3.10489,0.88118 4.65694,1.34253 1.48958,0.50364 2.91592,1.0488 2.91592,1.0488 1.42633,0.54554 2.78981,1.13299 4.09043,1.76235 0,0 0.71356,0.37754 1.36348,0.34611 0.58746,-0.44078 0.58746,-0.44078 1.17491,-0.88118 0.25182,-0.61888 0.16801,-1.41586 0.16801,-1.41586 0,0 -1.25872,-11.01298 -1.25872,-11.01298 0,0 -0.0419,-0.33563 -0.19944,-0.67126 -0.27277,-0.33602 -0.27277,-0.33602 -0.54554,-0.67165 -0.30382,-0.20953 -0.63945,-0.29334 -0.63945,-0.29334 -0.79737,-0.25182 -1.79378,-0.50364 -2.98925,-0.75546 0,0 -1.19586,-0.25143 -2.59077,-0.52421 -1.59434,-0.29372 -1.59434,-0.29372 -4.90875,-0.88117 -3.12584,-0.29373 -6.06232,-0.29373 -6.06232,-0.29373 -6.71302,0 -11.94654,1.36348 -15.70173,4.09082 0,0 -3.75481,2.72696 -5.6324,6.73358 0,5.2863 0,5.2863 0,9.81751 1.53149,3.52394 4.59407,6.04137 4.59407,6.04137 2.81116,2.34942 7.84563,4.25845 15.10381,5.72669 0,0 3.85956,0.75507 6.33509,1.46824 1.0907,0.67126 1.0907,0.67126 1.76197,1.133 0.33563,0.46135 0.33563,0.92308 0.33563,0.92308 0,0.88079 -0.57698,1.55205 -1.73054,2.01379 0,0 -1.15395,0.46135 -2.67458,0.69222 -1.88807,0 -1.88807,0 -4.95066,0 -3.41917,-0.62936 -7.19531,-1.88808 -7.19531,-1.88808 -3.65004,-1.30062 -6.50272,-2.45418 -8.5588,-3.46107 0,0 -0.71317,-0.33564 -1.36348,-0.30421 -0.58745,0.39849 -0.58745,0.39849 -1.17451,0.79698 -0.25182,0.59793 -0.16801,1.39491 -0.16801,1.39491 0,0 1.00689,11.95702 1.00689,11.95702 0,0 0.0419,0.37792 0.20992,0.7345 0.29372,0.33563 0.29372,0.33563 0.58745,0.67127 0.33563,0.20952 0.71317,0.29372 0.71317,0.29372 0.46134,0.0838 1.12213,0.22001 1.98236,0.40897 0,0 0.85983,0.18857 1.89816,0.38801 1.21681,0.20992 1.21681,0.20992 1.21681,0.20992 0,-0.0633 0,-0.0633 0,-0.0633 0.33563,0.0842 0.66078,0.14706 0.97546,0.18896 0,0 0.31468,0.0419 0.68174,0.10477 0.41944,0.0842 0.41944,0.0842 2.2237,0.37792 1.81435,0.22 3.63957,0.36706 3.63957,0.36706 1.82483,0.14667 3.66052,0.22001 5.50629,0.22001 0,0 3.44052,0 6.53453,-0.36707 2.74791,-0.73412 2.74791,-0.73412 5.49621,-1.46824 2.32847,-1.06975 4.23749,-2.47552 4.23749,-2.47552 1.90864,-1.40539 3.37727,-3.1464 4.40512,-5.22344 0,0 1.02785,-2.07664 1.54196,-4.47844 z"
       style="color:#000000;fill:#000000;fill-opacity:1;fill-rule:nonzero;stroke:none;marker:none;visibility:visible;display:inline;overflow:visible;enable-background:accumulate"
       id="path6962"
       inkscape:connector-curvature="0" />
    <path
       d="m 29.525865,532.84162 c 0,0 59.945713,-35.85437 59.945713,-35.85437 0,0 0,0 51.615072,-47.62939 0,0 0,0 0,0 21.65113,5.88111 21.65113,5.88111 21.65113,5.88111 0,0 66.94509,-73.1432 66.94509,-73.1432 0,0 0,0 40.15238,28.61946 0,0 0,0 0,0 98.24029,-116.36205 98.24029,-116.36205 98.24029,-116.36205 0,0 79.87485,96.36036 79.87485,96.36036 0,0 0,0 27.39373,-25.77494 0,0 0,0 0,0 50.80684,53.99631 50.80684,53.99631 50.80684,53.99631 0,0 7.91857,-7.55811 7.91857,-7.55811 0,0 0,0 67.97798,76.47818 0,0 0,0 0,0 22.24557,-13.72364 22.24557,-13.72364 22.24557,-13.72364 0,0 35.84233,37.41029 35.84233,37.41029 0,0 0,0 59.91817,22.91567 0,0 0,0 -4.49863,-0.97934 -80.39323,-10.64127 -84.72734,-11.45726 -84.72734,-11.45726 0,0 -5.94436,-37.37188 -5.94436,-37.37188 0,0 0,0 -35.83535,28.40063 0,0 0,0 0,0 -2.7351,-33.49485 -2.7351,-33.49485 -2.7351,-33.49485 0,0 -25.87738,2.28656 -25.87738,2.28656 0,0 0,0 7.62407,-15.11156 0,0 0,0 0,0 -51.03111,9.53193 -51.03111,9.53193 -51.03111,9.53193 0,0 15.10923,-22.15866 15.10923,-22.15866 0,0 0,0 -33.60543,11.75214 0,0 0,0 0,0 21.53628,-32.03437 21.53628,-32.03437 21.53628,-32.03437 0,0 -40.74992,-11.41185 -40.74992,-11.41185 0,0 0,0 -27.87215,17.23166 0,0 0,0 0,0 3.69854,-31.5478 3.69854,-31.5478 3.69854,-31.5478 0,0 -42.74509,-30.92194 -42.74509,-30.92194 0,0 0,0 -22.56141,8.5297 0,0 0,0 0,0 -7.94341,-25.77184 -7.94341,-25.77184 -7.94341,-25.77184 0,0 -61.38253,46.22246 -61.38253,46.22246 0,0 0,0 -2.1915,-31.40811 0,0 0,0 0,0 -45.41306,55.66864 -45.41306,55.66864 -45.41306,55.66864 0,0 -34.92856,-12.06566 -34.92856,-12.06566 0,0 0,0 -59.58719,49.28699 0,0 0,0 0,0 -73.87151,35.95369 -73.87151,35.95369 -73.87151,35.95369 0,0 -74.994805,29.25504 -74.994805,29.25504 z"
       style="color:#000000;fill:#000000;fill-opacity:1;fill-rule:nonzero;stroke:none;stroke-width:0.60000002;marker:none;visibility:visible;display:inline;overflow:visible;enable-background:accumulate"
       id="path6964"
       inkscape:connector-curvature="0" />
    <path
       id="path6968"
       style="color:#000000;fill:#000000;fill-opacity:1;fill-rule:nonzero;stroke:none;stroke-width:0.60000002;marker:none;visibility:visible;display:inline;overflow:visible;enable-background:accumulate"
       d="M 663.79403,508.33507 625.3361,466.56001 c 0,0 0,0 -22.17069,13.67747 l 0,0 C 534.4184,402.89326 534.4184,402.89326 534.4184,402.89326 l -8.04235,7.67645 c 0,0 0,0 -50.77813,-53.96566 l 0,0 c -27.11475,25.51343 -27.11475,25.51343 -27.11475,25.51343 L 368.1171,285.16384 c 0,0 0,0 -99.28249,117.59749 l 0,0 C 228.85605,374.2668 228.85605,374.2668 228.85605,374.2668 l -68.04122,74.34023 c 0,0 0,0 -21.48429,-5.83572 l 0,0 c -53.424763,53.50043 -53.424763,53.50043 -53.424763,53.50043 l -75.010326,39.01279 c 0,0 -2.896907,1.88108 -4.639862,5.14001 0,3.45525 0,3.45525 0,3.45525 0,64.4199 0,64.4199 0,64.4199 0,5.69875 4.672843,10.37159 10.371593,10.37159 0,0 0,0 710.840208,0 0,0 0,0 5.69875,0 4.67284,-4.67284 4.67284,-10.37159 4.67284,-10.37159 l 0,-64.4199 c 0,0 0,-4.46525 -2.86858,-8.30037 z M 82.367057,491.4472 137.57047,436.16579 c 0,0 0,0 21.3159,5.78994 l 0,0 c 69.14085,-75.54152 69.14085,-75.54152 69.14085,-75.54152 l 39.80317,28.36959 c 0,0 0,0 100.32857,-118.83603 l 0,0 c 80.85808,97.54807 80.85808,97.54807 80.85808,97.54807 l 26.83538,-25.25035 c 0,0 0,0 50.74863,53.93462 l 0,0 c 8.16652,-7.79441 8.16652,-7.79441 8.16652,-7.79441 l 69.51916,78.21182 c 0,0 0,0 22.09619,-13.63168 l 0,0 c 40.82869,44.35069 40.82869,44.35069 40.82869,44.35069 l 63.79985,24.66871 c 0,0 7.27098,1.62733 12.7408,8.14828 0,7.74629 0,7.74629 0,7.74629 0,64.4199 0,64.4199 0,64.4199 0,8.96272 -7.3222,16.28491 -16.28491,16.28491 0,0 0,0 -710.840208,0 0,0 0,0 -8.962717,0 -7.322197,-7.32219 -7.322197,-16.28491 -7.322197,-16.28491 l 0,-64.4199 c 0,0 0,-5.52181 2.821632,-10.70101 4.667799,-2.95433 4.667799,-2.95433 4.667799,-2.95433 0.105927,-0.0667 0.105927,-0.0667 0.105927,-0.0667 l 74.429471,-38.71053 z"
       inkscape:connector-curvature="0"
       sodipodi:nodetypes="ccccccccccccccccccccccccccccccccccccccccccccccccccccccccccc" />
  </g>
</svg>
