  0
SECTION
  2
HEADER
  9
$ACADVER
  1
AC1014
  9
$HANDSEED
  5
FFFF
  9
$MEASUREMENT
 70
     1
  0
ENDSEC
  0
SECTION
  2
TABLES
  0
TABLE
  2
VPORT
  5
8
330
0
100
AcDbSymbolTable
 70
     4
  0
VPORT
  5
2E
330
8
100
AcDbSymbolTableRecord
100
AcDbViewportTableRecord
  2
*ACTIVE
 70
     0
 10
0.0
 20
0.0
 11
1.0
 21
1.0
 12
210.0
 22
148.5
 13
0.0
 23
0.0
 14
10.0
 24
10.0
 15
10.0
 25
10.0
 16
0.0
 26
0.0
 36
1.0
 17
0.0
 27
0.0
 37
0.0
 40
341.0
 41
1.24
 42
50.0
 43
0.0
 44
0.0
 50
0.0
 51
0.0
 71
     0
 72
   100
 73
     1
 74
     3
 75
     0
 76
     0
 77
     0
 78
     0
  0
ENDTAB
  0
TABLE
  2
LTYPE
  5
5
330
0
100
AcDbSymbolTable
 70
     1
  0
LTYPE
  5
14
330
5
100
AcDbSymbolTableRecord
100
AcDbLinetypeTableRecord
  2
BYBLOCK
 70
     0
  3

 72
    65
 73
     0
 40
0.0
  0
LTYPE
  5
15
330
5
100
AcDbSymbolTableRecord
100
AcDbLinetypeTableRecord
  2
BYLAYER
 70
     0
  3

 72
    65
 73
     0
 40
0.0
  0
LTYPE
  5
16
330
5
100
AcDbSymbolTableRecord
100
AcDbLinetypeTableRecord
  2
CONTINUOUS
 70
     0
  3
Solid line
 72
    65
 73
     0
 40
0.0
  0
ENDTAB
  0
TABLE
  2
LAYER
  5
2
100
AcDbSymbolTable
 70
3
  0
LAYER
  5
50
100
AcDbSymbolTableRecord
100
AcDbLayerTableRecord
  2
0
 70
0
  6
CONTINUOUS
  0
LAYER
  5
51
100
AcDbSymbolTableRecord
100
AcDbLayerTableRecord
  2
Page
 70
0
  6
CONTINUOUS
  0
LAYER
  5
52
100
AcDbSymbolTableRecord
100
AcDbLayerTableRecord
  2
layout
 70
0
  6
CONTINUOUS
  0
ENDTAB
  0
TABLE
  2
STYLE
  5
3
330
0
100
AcDbSymbolTable
 70
     1
  0
STYLE
  5
11
330
3
100
AcDbSymbolTableRecord
100
AcDbTextStyleTableRecord
  2
STANDARD
 70
     0
 40
0.0
 41
1.0
 50
0.0
 71
     0
 42
2.5
  3
txt
  4

  0
ENDTAB
  0
TABLE
  2
VIEW
  5
6
330
0
100
AcDbSymbolTable
 70
     0
  0
ENDTAB
  0
TABLE
  2
UCS
  5
7
330
0
100
AcDbSymbolTable
 70
     0
  0
ENDTAB
  0
TABLE
  2
APPID
  5
9
330
0
100
AcDbSymbolTable
 70
     2
  0
APPID
  5
12
330
9
100
AcDbSymbolTableRecord
100
AcDbRegAppTableRecord
  2
ACAD
 70
     0
  0
ENDTAB
  0
TABLE
  2
DIMSTYLE
  5
A
330
0
100
AcDbSymbolTable
 70
     1
  0
DIMSTYLE
105
27
330
A
100
AcDbSymbolTableRecord
100
AcDbDimStyleTableRecord
  2
ISO-25
 70
     0
  3

  4

  5

  6

  7

 40
1.0
 41
2.5
 42
0.625
 43
3.75
 44
1.25
 45
0.0
 46
0.0
 47
0.0
 48
0.0
140
2.5
141
2.5
142
0.0
143
0.03937007874016
144
1.0
145
0.0
146
1.0
147
0.625
 71
     0
 72
     0
 73
     0
 74
     0
 75
     0
 76
     0
 77
     1
 78
     8
170
     0
171
     3
172
     1
173
     0
174
     0
175
     0
176
     0
177
     0
178
     0
270
     2
271
     2
272
     2
273
     2
274
     3
340
11
275
     0
280
     0
281
     0
282
     0
283
     0
284
     8
285
     0
286
     0
287
     3
288
     0
  0
ENDTAB
  0
TABLE
  2
BLOCK_RECORD
  5
1
330
0
100
AcDbSymbolTable
 70
     1
  0
BLOCK_RECORD
  5
1F
330
1
100
AcDbSymbolTableRecord
100
AcDbBlockTableRecord
  2
*MODEL_SPACE
  0
BLOCK_RECORD
  5
1B
330
1
100
AcDbSymbolTableRecord
100
AcDbBlockTableRecord
  2
*PAPER_SPACE
  0
ENDTAB
  0
ENDSEC
  0
SECTION
  2
BLOCKS
  0
BLOCK
  5
20
330
1F
100
AcDbEntity
  8
0
100
AcDbBlockBegin
  2
*MODEL_SPACE
 70
     0
 10
0.0
 20
0.0
 30
0.0
  3
*MODEL_SPACE
  1

  0
ENDBLK
  5
21
330
1F
100
AcDbEntity
  8
0
100
AcDbBlockEnd
  0
BLOCK
  5
1C
330
1B
100
AcDbEntity
 67
     1
  8
0
100
AcDbBlockBegin
  2
*PAPER_SPACE
  1

  0
ENDBLK
  5
1D
330
1B
100
AcDbEntity
 67
     1
  8
0
100
AcDbBlockEnd
  0
ENDSEC
  0
SECTION
  2
ENTITIES
  0
SPLINE
  5
100
100
AcDbEntity
  8
Page
 62
7
100
AcDbSpline
 70
8
 71
3
 72
8
 73
4
 74
0
 40
0
 40
0
 40
0
 40
0
 40
1
 40
1
 40
1
 40
1
 10
7.668899
 20
26.713948
 30
0.0
 10
4.918546
 20
26.722894
 30
0.0
 10
2.693632
 20
28.947818
 30
0.0
 10
2.693632
 20
31.697072
 30
0.0
  0
SPLINE
  5
101
100
AcDbEntity
  8
Page
 62
7
100
AcDbSpline
 70
8
 71
3
 72
8
 73
4
 74
0
 40
0
 40
0
 40
0
 40
0
 40
1
 40
1
 40
1
 40
1
 10
2.693632
 20
31.697072
 30
0.0
 10
2.693632
 20
34.446326
 30
0.0
 10
4.918546
 20
36.680058
 30
0.0
 10
7.668899
 20
36.692524
 30
0.0
  0
SPLINE
  5
102
100
AcDbEntity
  8
Page
 62
7
100
AcDbSpline
 70
8
 71
3
 72
8
 73
4
 74
0
 40
0
 40
0
 40
0
 40
0
 40
1
 40
1
 40
1
 40
1
 10
7.668899
 20
36.692524
 30
0.0
 10
10.418152
 20
36.692524
 30
0.0
 10
14.111111
 20
36.704998
 30
0.0
 10
14.111111
 20
36.704998
 30
0.0
  0
LWPOLYLINE
  5
103
100
AcDbEntity
  8
Page
 62
7
100
AcDbPolyline
 90
7
 70
0
 10
20.320000
 20
252.720000
 30
0.0
 10
20.320000
 20
279.400000
 30
0.0
 10
215.900000
 20
279.400000
 30
0.0
 10
215.900000
 20
0.000000
 30
0.0
 10
20.320000
 20
0.000000
 30
0.0
 10
20.320000
 20
26.705001
 30
0.0
 10
7.668899
 20
26.713948
 30
0.0
  0
SPLINE
  5
104
100
AcDbEntity
  8
Page
 62
7
100
AcDbSpline
 70
8
 71
3
 72
8
 73
4
 74
0
 40
0
 40
0
 40
0
 40
0
 40
1
 40
1
 40
1
 40
1
 10
7.668899
 20
134.716915
 30
0.0
 10
4.918546
 20
134.725833
 30
0.0
 10
2.693632
 20
136.950746
 30
0.0
 10
2.693632
 20
139.700000
 30
0.0
  0
SPLINE
  5
105
100
AcDbEntity
  8
Page
 62
7
100
AcDbSpline
 70
8
 71
3
 72
8
 73
4
 74
0
 40
0
 40
0
 40
0
 40
0
 40
1
 40
1
 40
1
 40
1
 10
2.693632
 20
139.700000
 30
0.0
 10
2.693632
 20
142.449254
 30
0.0
 10
4.918546
 20
144.674167
 30
0.0
 10
7.668899
 20
144.691083
 30
0.0
  0
LWPOLYLINE
  5
106
100
AcDbEntity
  8
Page
 62
7
100
AcDbPolyline
 90
3
 70
0
 10
14.111111
 20
36.704998
 30
0.0
 10
14.111111
 20
134.707997
 30
0.0
 10
7.668899
 20
134.716915
 30
0.0
  0
SPLINE
  5
107
100
AcDbEntity
  8
Page
 62
7
100
AcDbSpline
 70
8
 71
3
 72
8
 73
4
 74
0
 40
0
 40
0
 40
0
 40
0
 40
1
 40
1
 40
1
 40
1
 10
7.668899
 20
242.719967
 30
0.0
 10
4.918546
 20
242.719931
 30
0.0
 10
2.693632
 20
244.953663
 30
0.0
 10
2.693632
 20
247.702917
 30
0.0
  0
SPLINE
  5
108
100
AcDbEntity
  8
Page
 62
7
100
AcDbSpline
 70
8
 71
3
 72
8
 73
4
 74
0
 40
0
 40
0
 40
0
 40
0
 40
1
 40
1
 40
1
 40
1
 10
2.693632
 20
247.702917
 30
0.0
 10
2.693632
 20
250.452170
 30
0.0
 10
4.918546
 20
252.677084
 30
0.0
 10
7.668899
 20
252.698542
 30
0.0
  0
LWPOLYLINE
  5
109
100
AcDbEntity
  8
Page
 62
7
100
AcDbPolyline
 90
4
 70
0
 10
7.668899
 20
144.691083
 30
0.0
 10
14.111111
 20
144.707999
 30
0.0
 10
14.111111
 20
242.720001
 30
0.0
 10
7.668899
 20
242.719967
 30
0.0
  0
SPLINE
  5
10a
100
AcDbEntity
  8
Page
 62
7
100
AcDbSpline
 70
8
 71
3
 72
8
 73
4
 74
0
 40
0
 40
0
 40
0
 40
0
 40
1
 40
1
 40
1
 40
1
 10
7.667799
 20
251.680487
 30
0.0
 10
9.868342
 20
251.680487
 30
0.0
 10
11.654187
 20
249.903460
 30
0.0
 10
11.654187
 20
247.702917
 30
0.0
  0
SPLINE
  5
10b
100
AcDbEntity
  8
Page
 62
7
100
AcDbSpline
 70
8
 71
3
 72
8
 73
4
 74
0
 40
0
 40
0
 40
0
 40
0
 40
1
 40
1
 40
1
 40
1
 10
11.654187
 20
247.702917
 30
0.0
 10
11.654187
 20
245.502374
 30
0.0
 10
9.868342
 20
243.716528
 30
0.0
 10
7.667799
 20
243.716528
 30
0.0
  0
SPLINE
  5
10c
100
AcDbEntity
  8
Page
 62
7
100
AcDbSpline
 70
8
 71
3
 72
8
 73
4
 74
0
 40
0
 40
0
 40
0
 40
0
 40
1
 40
1
 40
1
 40
1
 10
7.667799
 20
243.716528
 30
0.0
 10
5.467255
 20
243.716528
 30
0.0
 10
3.690229
 20
245.502374
 30
0.0
 10
3.690229
 20
247.702917
 30
0.0
  0
SPLINE
  5
10d
100
AcDbEntity
  8
Page
 62
7
100
AcDbSpline
 70
8
 71
3
 72
8
 73
4
 74
0
 40
0
 40
0
 40
0
 40
0
 40
1
 40
1
 40
1
 40
1
 10
3.690229
 20
247.702917
 30
0.0
 10
3.690229
 20
249.903460
 30
0.0
 10
5.467255
 20
251.680487
 30
0.0
 10
7.667799
 20
251.680487
 30
0.0
  0
LWPOLYLINE
  5
10e
100
AcDbEntity
  8
Page
 62
7
100
AcDbPolyline
 90
2
 70
0
 10
7.668899
 20
252.698542
 30
0.0
 10
20.320000
 20
252.720000
 30
0.0
  0
SPLINE
  5
10f
100
AcDbEntity
  8
Page
 62
7
100
AcDbSpline
 70
8
 71
3
 72
8
 73
4
 74
0
 40
0
 40
0
 40
0
 40
0
 40
1
 40
1
 40
1
 40
1
 10
7.667799
 20
35.683472
 30
0.0
 10
9.868342
 20
35.683472
 30
0.0
 10
11.654187
 20
33.897626
 30
0.0
 10
11.654187
 20
31.697083
 30
0.0
  0
SPLINE
  5
110
100
AcDbEntity
  8
Page
 62
7
100
AcDbSpline
 70
8
 71
3
 72
8
 73
4
 74
0
 40
0
 40
0
 40
0
 40
0
 40
1
 40
1
 40
1
 40
1
 10
11.654187
 20
31.697083
 30
0.0
 10
11.654187
 20
29.496540
 30
0.0
 10
9.868342
 20
27.719514
 30
0.0
 10
7.667799
 20
27.719514
 30
0.0
  0
SPLINE
  5
111
100
AcDbEntity
  8
Page
 62
7
100
AcDbSpline
 70
8
 71
3
 72
8
 73
4
 74
0
 40
0
 40
0
 40
0
 40
0
 40
1
 40
1
 40
1
 40
1
 10
7.667799
 20
27.719514
 30
0.0
 10
5.467255
 20
27.719514
 30
0.0
 10
3.690229
 20
29.496540
 30
0.0
 10
3.690229
 20
31.697083
 30
0.0
  0
SPLINE
  5
112
100
AcDbEntity
  8
Page
 62
7
100
AcDbSpline
 70
8
 71
3
 72
8
 73
4
 74
0
 40
0
 40
0
 40
0
 40
0
 40
1
 40
1
 40
1
 40
1
 10
3.690229
 20
31.697083
 30
0.0
 10
3.690229
 20
33.897626
 30
0.0
 10
5.467255
 20
35.683472
 30
0.0
 10
7.667799
 20
35.683472
 30
0.0
  0
LWPOLYLINE
  5
113
100
AcDbEntity
  8
Page
 62
7
100
AcDbPolyline
 90
2
 70
0
 10
7.667799
 20
251.680487
 30
0.0
 10
7.667799
 20
251.680487
 30
0.0
  0
SPLINE
  5
114
100
AcDbEntity
  8
Page
 62
7
100
AcDbSpline
 70
8
 71
3
 72
8
 73
4
 74
0
 40
0
 40
0
 40
0
 40
0
 40
1
 40
1
 40
1
 40
1
 10
7.667799
 20
143.686389
 30
0.0
 10
9.868342
 20
143.686389
 30
0.0
 10
11.654187
 20
141.900543
 30
0.0
 10
11.654187
 20
139.700000
 30
0.0
  0
SPLINE
  5
115
100
AcDbEntity
  8
Page
 62
7
100
AcDbSpline
 70
8
 71
3
 72
8
 73
4
 74
0
 40
0
 40
0
 40
0
 40
0
 40
1
 40
1
 40
1
 40
1
 10
11.654187
 20
139.700000
 30
0.0
 10
11.654187
 20
137.499457
 30
0.0
 10
9.868342
 20
135.713611
 30
0.0
 10
7.667799
 20
135.713611
 30
0.0
  0
SPLINE
  5
116
100
AcDbEntity
  8
Page
 62
7
100
AcDbSpline
 70
8
 71
3
 72
8
 73
4
 74
0
 40
0
 40
0
 40
0
 40
0
 40
1
 40
1
 40
1
 40
1
 10
7.667799
 20
135.713611
 30
0.0
 10
5.467255
 20
135.713611
 30
0.0
 10
3.690229
 20
137.499457
 30
0.0
 10
3.690229
 20
139.700000
 30
0.0
  0
SPLINE
  5
117
100
AcDbEntity
  8
Page
 62
7
100
AcDbSpline
 70
8
 71
3
 72
8
 73
4
 74
0
 40
0
 40
0
 40
0
 40
0
 40
1
 40
1
 40
1
 40
1
 10
3.690229
 20
139.700000
 30
0.0
 10
3.690229
 20
141.900543
 30
0.0
 10
5.467255
 20
143.686389
 30
0.0
 10
7.667799
 20
143.686389
 30
0.0
  0
LWPOLYLINE
  5
118
100
AcDbEntity
  8
Page
 62
7
100
AcDbPolyline
 90
2
 70
0
 10
7.667799
 20
35.683472
 30
0.0
 10
7.667799
 20
35.683472
 30
0.0
  0
LWPOLYLINE
  5
119
100
AcDbEntity
  8
Page
 62
7
100
AcDbPolyline
 90
2
 70
0
 10
7.667799
 20
143.686389
 30
0.0
 10
7.667799
 20
143.686389
 30
0.0
  0
LWPOLYLINE
  5
11a
100
AcDbEntity
  8
layout
 62
3
100
AcDbPolyline
 90
2
 70
0
 10
108.871374
 20
226.997974
 30
0.0
 10
108.871374
 20
29.932156
 30
0.0
  0
LWPOLYLINE
  5
11b
100
AcDbEntity
  8
layout
 62
3
100
AcDbPolyline
 90
2
 70
0
 10
124.299528
 20
226.997974
 30
0.0
 10
124.299528
 20
29.932156
 30
0.0
  0
LWPOLYLINE
  5
11c
100
AcDbEntity
  8
layout
 62
3
100
AcDbPolyline
 90
2
 70
0
 10
139.727672
 20
226.997974
 30
0.0
 10
139.727672
 20
29.932156
 30
0.0
  0
LWPOLYLINE
  5
11d
100
AcDbEntity
  8
layout
 62
3
100
AcDbPolyline
 90
2
 70
0
 10
155.155818
 20
226.997974
 30
0.0
 10
155.155818
 20
29.932156
 30
0.0
  0
LWPOLYLINE
  5
11e
100
AcDbEntity
  8
layout
 62
3
100
AcDbPolyline
 90
2
 70
0
 10
170.583973
 20
226.997974
 30
0.0
 10
170.583973
 20
29.932156
 30
0.0
  0
LWPOLYLINE
  5
11f
100
AcDbEntity
  8
layout
 62
3
100
AcDbPolyline
 90
2
 70
0
 10
186.012108
 20
226.997974
 30
0.0
 10
186.012108
 20
29.932156
 30
0.0
  0
LWPOLYLINE
  5
120
100
AcDbEntity
  8
layout
 62
3
100
AcDbPolyline
 90
2
 70
0
 10
201.440263
 20
226.997974
 30
0.0
 10
201.440263
 20
29.932156
 30
0.0
  0
LWPOLYLINE
  5
121
100
AcDbEntity
  8
layout
 62
3
100
AcDbPolyline
 90
2
 70
0
 10
93.443227
 20
226.997974
 30
0.0
 10
93.443227
 20
29.932156
 30
0.0
  0
LWPOLYLINE
  5
122
100
AcDbEntity
  8
layout
 62
3
100
AcDbPolyline
 90
2
 70
0
 10
78.015076
 20
226.997974
 30
0.0
 10
78.015076
 20
29.932156
 30
0.0
  0
LWPOLYLINE
  5
123
100
AcDbEntity
  8
layout
 62
3
100
AcDbPolyline
 90
2
 70
0
 10
62.586929
 20
226.997974
 30
0.0
 10
62.586929
 20
29.932156
 30
0.0
  0
LWPOLYLINE
  5
124
100
AcDbEntity
  8
layout
 62
3
100
AcDbPolyline
 90
2
 70
0
 10
28.106013
 20
45.363068
 30
0.0
 10
212.430326
 20
45.363068
 30
0.0
  0
LWPOLYLINE
  5
125
100
AcDbEntity
  8
layout
 62
3
100
AcDbPolyline
 90
2
 70
0
 10
28.106013
 20
59.072980
 30
0.0
 10
212.430326
 20
59.072980
 30
0.0
  0
LWPOLYLINE
  5
126
100
AcDbEntity
  8
layout
 62
3
100
AcDbPolyline
 90
2
 70
0
 10
28.106013
 20
73.322434
 30
0.0
 10
212.430326
 20
73.322434
 30
0.0
  0
LWPOLYLINE
  5
127
100
AcDbEntity
  8
layout
 62
3
100
AcDbPolyline
 90
2
 70
0
 10
28.106013
 20
87.571885
 30
0.0
 10
212.430326
 20
87.571885
 30
0.0
  0
LWPOLYLINE
  5
128
100
AcDbEntity
  8
layout
 62
3
100
AcDbPolyline
 90
2
 70
0
 10
28.106013
 20
102.360885
 30
0.0
 10
212.430326
 20
102.360885
 30
0.0
  0
LWPOLYLINE
  5
129
100
AcDbEntity
  8
layout
 62
3
100
AcDbPolyline
 90
2
 70
0
 10
33.750456
 20
114.991710
 30
0.0
 10
212.430326
 20
114.991710
 30
0.0
  0
LWPOLYLINE
  5
12a
100
AcDbEntity
  8
layout
 62
3
100
AcDbPolyline
 90
2
 70
0
 10
33.750456
 20
130.104444
 30
0.0
 10
212.430326
 20
130.104444
 30
0.0
  0
LWPOLYLINE
  5
12b
100
AcDbEntity
  8
layout
 62
3
100
AcDbPolyline
 90
2
 70
0
 10
33.750456
 20
143.839266
 30
0.0
 10
212.430326
 20
143.839266
 30
0.0
  0
LWPOLYLINE
  5
12c
100
AcDbEntity
  8
layout
 62
3
100
AcDbPolyline
 90
2
 70
0
 10
28.106013
 20
158.138529
 30
0.0
 10
212.430326
 20
158.138529
 30
0.0
  0
LWPOLYLINE
  5
12d
100
AcDbEntity
  8
layout
 62
3
100
AcDbPolyline
 90
2
 70
0
 10
28.106013
 20
173.002222
 30
0.0
 10
212.430326
 20
173.002222
 30
0.0
  0
LWPOLYLINE
  5
12e
100
AcDbEntity
  8
layout
 62
3
100
AcDbPolyline
 90
2
 70
0
 10
28.106013
 20
185.796307
 30
0.0
 10
212.430326
 20
185.796307
 30
0.0
  0
LWPOLYLINE
  5
12f
100
AcDbEntity
  8
layout
 62
3
100
AcDbPolyline
 90
2
 70
0
 10
28.106013
 20
200.660000
 30
0.0
 10
212.430326
 20
200.660000
 30
0.0
  0
LWPOLYLINE
  5
130
100
AcDbEntity
  8
layout
 62
3
100
AcDbPolyline
 90
5
 70
0
 10
48.019281
 20
215.277652
 30
0.0
 10
213.119281
 20
215.277652
 30
0.0
 10
213.119281
 20
29.674631
 30
0.0
 10
48.019281
 20
29.674631
 30
0.0
 10
48.019281
 20
215.277652
 30
0.0
  0
LWPOLYLINE
  5
131
100
AcDbEntity
  8
layout
 62
3
100
AcDbPolyline
 90
9
 70
0
 10
181.834245
 20
250.268918
 30
0.0
 10
181.376738
 20
251.977686
 30
0.0
 10
180.103430
 20
252.584023
 30
0.0
 10
178.830122
 20
251.977686
 30
0.0
 10
178.378127
 20
250.268918
 30
0.0
 10
178.830122
 20
248.565664
 30
0.0
 10
180.103430
 20
247.959327
 30
0.0
 10
181.376738
 20
248.565664
 30
0.0
 10
181.834245
 20
250.268918
 30
0.0
  0
LWPOLYLINE
  5
132
100
AcDbEntity
  8
layout
 62
3
100
AcDbPolyline
 90
22
 70
0
 10
182.848481
 20
247.876644
 30
0.0
 10
182.148438
 20
245.533980
 30
0.0
 10
180.004212
 20
244.762277
 30
0.0
 10
178.995488
 20
244.844959
 30
0.0
 10
178.074958
 20
245.087496
 30
0.0
 10
178.074958
 20
246.074170
 30
0.0
 10
178.956902
 20
245.715880
 30
0.0
 10
179.844359
 20
245.600124
 30
0.0
 10
181.338152
 20
246.123779
 30
0.0
 10
181.834245
 20
247.694744
 30
0.0
 10
181.834245
 20
248.196348
 30
0.0
 10
181.029472
 20
247.380551
 30
0.0
 10
179.855382
 20
247.110456
 30
0.0
 10
178.025349
 20
247.975862
 30
0.0
 10
177.330817
 20
250.268918
 30
0.0
 10
178.025349
 20
252.567486
 30
0.0
 10
179.855382
 20
253.432894
 30
0.0
 10
181.029472
 20
253.162799
 30
0.0
 10
181.834245
 20
252.347000
 30
0.0
 10
181.834245
 20
253.284066
 30
0.0
 10
182.848481
 20
253.284066
 30
0.0
 10
182.848481
 20
247.876644
 30
0.0
  0
LWPOLYLINE
  5
133
100
AcDbEntity
  8
layout
 62
3
100
AcDbPolyline
 90
17
 70
0
 10
175.737805
 20
250.836670
 30
0.0
 10
175.737805
 20
247.110456
 30
0.0
 10
174.723569
 20
247.110456
 30
0.0
 10
174.723569
 20
250.803596
 30
0.0
 10
174.381815
 20
252.115490
 30
0.0
 10
173.356555
 20
252.550950
 30
0.0
 10
172.061197
 20
252.027295
 30
0.0
 10
171.587154
 20
250.599648
 30
0.0
 10
171.587154
 20
247.110456
 30
0.0
 10
170.567406
 20
247.110456
 30
0.0
 10
170.567406
 20
253.284066
 30
0.0
 10
171.587154
 20
253.284066
 30
0.0
 10
171.587154
 20
252.324952
 30
0.0
 10
172.441537
 20
253.157287
 30
0.0
 10
173.582553
 20
253.432894
 30
0.0
 10
175.192100
 20
252.771436
 30
0.0
 10
175.737805
 20
250.836670
 30
0.0
  0
LWPOLYLINE
  5
134
100
AcDbEntity
  8
layout
 62
3
100
AcDbPolyline
 90
5
 70
0
 10
167.475086
 20
253.284066
 30
0.0
 10
168.489322
 20
253.284066
 30
0.0
 10
168.489322
 20
247.110456
 30
0.0
 10
167.475086
 20
247.110456
 30
0.0
 10
167.475086
 20
253.284066
 30
0.0
  0
LWPOLYLINE
  5
135
100
AcDbEntity
  8
layout
 62
3
100
AcDbPolyline
 90
5
 70
0
 10
167.475086
 20
255.687365
 30
0.0
 10
168.489322
 20
255.687365
 30
0.0
 10
168.489322
 20
254.403033
 30
0.0
 10
167.475086
 20
254.403033
 30
0.0
 10
167.475086
 20
255.687365
 30
0.0
  0
LWPOLYLINE
  5
136
100
AcDbEntity
  8
layout
 62
3
100
AcDbPolyline
 90
8
 70
0
 10
160.066753
 20
253.284066
 30
0.0
 10
161.141624
 20
253.284066
 30
0.0
 10
163.070879
 20
248.102642
 30
0.0
 10
165.000130
 20
253.284066
 30
0.0
 10
166.075002
 20
253.284066
 30
0.0
 10
163.759896
 20
247.110456
 30
0.0
 10
162.381859
 20
247.110456
 30
0.0
 10
160.066753
 20
253.284066
 30
0.0
  0
LWPOLYLINE
  5
137
100
AcDbEntity
  8
layout
 62
3
100
AcDbPolyline
 90
9
 70
0
 10
156.676781
 20
250.213797
 30
0.0
 10
154.973525
 20
249.932678
 30
0.0
 10
154.499479
 20
248.973563
 30
0.0
 10
154.852257
 20
248.113666
 30
0.0
 10
155.822396
 20
247.799473
 30
0.0
 10
157.172874
 20
248.394787
 30
0.0
 10
157.685503
 20
249.987799
 30
0.0
 10
157.685503
 20
250.213797
 30
0.0
 10
156.676781
 20
250.213797
 30
0.0
  0
LWPOLYLINE
  5
138
100
AcDbEntity
  8
layout
 62
3
100
AcDbPolyline
 90
21
 70
0
 10
158.699739
 20
250.632722
 30
0.0
 10
158.699739
 20
247.110456
 30
0.0
 10
157.685503
 20
247.110456
 30
0.0
 10
157.685503
 20
248.047521
 30
0.0
 10
156.820097
 20
247.215186
 30
0.0
 10
155.552301
 20
246.950603
 30
0.0
 10
154.041972
 20
247.479769
 30
0.0
 10
153.485243
 20
248.907416
 30
0.0
 10
154.179775
 20
250.478380
 30
0.0
 10
156.263368
 20
251.007547
 30
0.0
 10
157.685503
 20
251.007547
 30
0.0
 10
157.685503
 20
251.106765
 30
0.0
 10
157.222484
 20
252.187148
 30
0.0
 10
155.932640
 20
252.572998
 30
0.0
 10
154.901866
 20
252.446219
 30
0.0
 10
153.937239
 20
252.065880
 30
0.0
 10
153.937239
 20
253.002946
 30
0.0
 10
155.017622
 20
253.322651
 30
0.0
 10
156.037370
 20
253.432894
 30
0.0
 10
158.038281
 20
252.738363
 30
0.0
 10
158.699739
 20
250.632722
 30
0.0
  0
LWPOLYLINE
  5
139
100
AcDbEntity
  8
layout
 62
3
100
AcDbPolyline
 90
15
 70
0
 10
152.796226
 20
252.335976
 30
0.0
 10
152.421398
 20
252.479292
 30
0.0
 10
151.980426
 20
252.528901
 30
0.0
 10
150.657509
 20
251.966662
 30
0.0
 10
150.200002
 20
250.362624
 30
0.0
 10
150.200002
 20
247.110456
 30
0.0
 10
149.180254
 20
247.110456
 30
0.0
 10
149.180254
 20
253.284066
 30
0.0
 10
150.200002
 20
253.284066
 30
0.0
 10
150.200002
 20
252.324952
 30
0.0
 10
151.032337
 20
253.157287
 30
0.0
 10
152.278083
 20
253.432894
 30
0.0
 10
152.509593
 20
253.416359
 30
0.0
 10
152.790711
 20
253.377774
 30
0.0
 10
152.796215
 20
252.335977
 30
0.0
  0
LWPOLYLINE
  5
13a
100
AcDbEntity
  8
layout
 62
3
100
AcDbPolyline
 90
9
 70
0
 10
146.115495
 20
250.268918
 30
0.0
 10
145.657988
 20
251.977686
 30
0.0
 10
144.384680
 20
252.584023
 30
0.0
 10
143.111372
 20
251.977686
 30
0.0
 10
142.659377
 20
250.268918
 30
0.0
 10
143.111372
 20
248.565664
 30
0.0
 10
144.384680
 20
247.959327
 30
0.0
 10
145.657988
 20
248.565664
 30
0.0
 10
146.115495
 20
250.268918
 30
0.0
  0
LWPOLYLINE
  5
13b
100
AcDbEntity
  8
layout
 62
3
100
AcDbPolyline
 90
22
 70
0
 10
147.129731
 20
247.876644
 30
0.0
 10
146.429688
 20
245.533980
 30
0.0
 10
144.285462
 20
244.762277
 30
0.0
 10
143.276738
 20
244.844959
 30
0.0
 10
142.356208
 20
245.087496
 30
0.0
 10
142.356208
 20
246.074170
 30
0.0
 10
143.238152
 20
245.715880
 30
0.0
 10
144.125609
 20
245.600124
 30
0.0
 10
145.619402
 20
246.123779
 30
0.0
 10
146.115495
 20
247.694744
 30
0.0
 10
146.115495
 20
248.196348
 30
0.0
 10
145.310722
 20
247.380551
 30
0.0
 10
144.136632
 20
247.110456
 30
0.0
 10
142.306599
 20
247.975862
 30
0.0
 10
141.612067
 20
250.268918
 30
0.0
 10
142.306599
 20
252.567486
 30
0.0
 10
144.136632
 20
253.432894
 30
0.0
 10
145.310722
 20
253.162799
 30
0.0
 10
146.115495
 20
252.347000
 30
0.0
 10
146.115495
 20
253.284066
 30
0.0
 10
147.129731
 20
253.284066
 30
0.0
 10
147.129731
 20
247.876644
 30
0.0
  0
LWPOLYLINE
  5
13c
100
AcDbEntity
  8
layout
 62
3
100
AcDbPolyline
 90
17
 70
0
 10
140.019055
 20
250.836670
 30
0.0
 10
140.019055
 20
247.110456
 30
0.0
 10
139.004819
 20
247.110456
 30
0.0
 10
139.004819
 20
250.803596
 30
0.0
 10
138.663065
 20
252.115490
 30
0.0
 10
137.637805
 20
252.550950
 30
0.0
 10
136.342447
 20
252.027295
 30
0.0
 10
135.868404
 20
250.599648
 30
0.0
 10
135.868404
 20
247.110456
 30
0.0
 10
134.848656
 20
247.110456
 30
0.0
 10
134.848656
 20
253.284066
 30
0.0
 10
135.868404
 20
253.284066
 30
0.0
 10
135.868404
 20
252.324952
 30
0.0
 10
136.722787
 20
253.157287
 30
0.0
 10
137.863803
 20
253.432894
 30
0.0
 10
139.473350
 20
252.771436
 30
0.0
 10
140.019055
 20
250.836670
 30
0.0
  0
LWPOLYLINE
  5
13d
100
AcDbEntity
  8
layout
 62
3
100
AcDbPolyline
 90
13
 70
0
 10
127.787586
 20
255.340099
 30
0.0
 10
132.991058
 20
255.340099
 30
0.0
 10
132.991058
 20
254.403033
 30
0.0
 10
128.901043
 20
254.403033
 30
0.0
 10
128.901043
 20
251.966662
 30
0.0
 10
132.820184
 20
251.966662
 30
0.0
 10
132.820184
 20
251.029597
 30
0.0
 10
128.901043
 20
251.029597
 30
0.0
 10
128.901043
 20
248.047521
 30
0.0
 10
133.090279
 20
248.047521
 30
0.0
 10
133.090279
 20
247.110456
 30
0.0
 10
127.787586
 20
247.110456
 30
0.0
 10
127.787586
 20
255.340099
 30
0.0
  0
LWPOLYLINE
  5
13e
100
AcDbEntity
  8
layout
 62
3
100
AcDbPolyline
 90
17
 70
0
 10
122.115583
 20
250.836670
 30
0.0
 10
122.115583
 20
247.110456
 30
0.0
 10
121.101347
 20
247.110456
 30
0.0
 10
121.101347
 20
250.803596
 30
0.0
 10
120.759593
 20
252.115490
 30
0.0
 10
119.734333
 20
252.550950
 30
0.0
 10
118.438975
 20
252.027295
 30
0.0
 10
117.964932
 20
250.599648
 30
0.0
 10
117.964932
 20
247.110456
 30
0.0
 10
116.945184
 20
247.110456
 30
0.0
 10
116.945184
 20
253.284066
 30
0.0
 10
117.964932
 20
253.284066
 30
0.0
 10
117.964932
 20
252.324952
 30
0.0
 10
118.819315
 20
253.157287
 30
0.0
 10
119.960331
 20
253.432894
 30
0.0
 10
121.569878
 20
252.771436
 30
0.0
 10
122.115583
 20
250.836670
 30
0.0
  0
LWPOLYLINE
  5
13f
100
AcDbEntity
  8
layout
 62
3
100
AcDbPolyline
 90
9
 70
0
 10
112.866190
 20
250.213797
 30
0.0
 10
111.162933
 20
249.932678
 30
0.0
 10
110.688890
 20
248.973563
 30
0.0
 10
111.041668
 20
248.113666
 30
0.0
 10
112.011807
 20
247.799473
 30
0.0
 10
113.362283
 20
248.394787
 30
0.0
 10
113.874914
 20
249.987799
 30
0.0
 10
113.874914
 20
250.213797
 30
0.0
 10
112.866190
 20
250.213797
 30
0.0
  0
LWPOLYLINE
  5
140
100
AcDbEntity
  8
layout
 62
3
100
AcDbPolyline
 90
21
 70
0
 10
114.889150
 20
250.632722
 30
0.0
 10
114.889150
 20
247.110456
 30
0.0
 10
113.874914
 20
247.110456
 30
0.0
 10
113.874914
 20
248.047521
 30
0.0
 10
113.009505
 20
247.215186
 30
0.0
 10
111.741712
 20
246.950603
 30
0.0
 10
110.231380
 20
247.479769
 30
0.0
 10
109.674654
 20
248.907416
 30
0.0
 10
110.369183
 20
250.478380
 30
0.0
 10
112.452779
 20
251.007547
 30
0.0
 10
113.874914
 20
251.007547
 30
0.0
 10
113.874914
 20
251.106765
 30
0.0
 10
113.411892
 20
252.187148
 30
0.0
 10
112.122049
 20
252.572998
 30
0.0
 10
111.091277
 20
252.446219
 30
0.0
 10
110.126650
 20
252.065880
 30
0.0
 10
110.126650
 20
253.002946
 30
0.0
 10
111.207031
 20
253.322651
 30
0.0
 10
112.226781
 20
253.432894
 30
0.0
 10
114.227692
 20
252.738363
 30
0.0
 10
114.889150
 20
250.632722
 30
0.0
  0
LWPOLYLINE
  5
141
100
AcDbEntity
  8
layout
 62
3
100
AcDbPolyline
 90
19
 70
0
 10
108.285590
 20
253.047044
 30
0.0
 10
108.285590
 20
252.098953
 30
0.0
 10
107.420184
 20
252.451731
 30
0.0
 10
106.549263
 20
252.572998
 30
0.0
 10
105.016884
 20
251.944613
 30
0.0
 10
104.471182
 20
250.191750
 30
0.0
 10
105.016884
 20
248.433373
 30
0.0
 10
106.549263
 20
247.810500
 30
0.0
 10
107.420184
 20
247.926253
 30
0.0
 10
108.285590
 20
248.284543
 30
0.0
 10
108.285590
 20
247.347478
 30
0.0
 10
107.403646
 20
247.049821
 30
0.0
 10
106.439019
 20
246.950603
 30
0.0
 10
104.223134
 20
247.827035
 30
0.0
 10
103.401822
 20
250.191750
 30
0.0
 10
104.228646
 20
252.567486
 30
0.0
 10
106.505166
 20
253.432894
 30
0.0
 10
107.420184
 20
253.333676
 30
0.0
 10
108.285590
 20
253.047044
 30
0.0
  0
LWPOLYLINE
  5
142
100
AcDbEntity
  8
layout
 62
3
100
AcDbPolyline
 90
29
 70
0
 10
101.654472
 20
255.070004
 30
0.0
 10
101.654472
 20
253.984109
 30
0.0
 10
100.458335
 20
254.436106
 30
0.0
 10
99.372440
 20
254.584934
 30
0.0
 10
97.966840
 20
254.232156
 30
0.0
 10
97.476259
 20
253.228945
 30
0.0
 10
97.801475
 20
252.402122
 30
0.0
 10
99.047224
 20
251.955637
 30
0.0
 10
99.719706
 20
251.817834
 30
0.0
 10
101.555254
 20
250.979985
 30
0.0
 10
102.150565
 20
249.381462
 30
0.0
 10
101.345791
 20
247.567964
 30
0.0
 10
98.997615
 20
246.950603
 30
0.0
 10
97.751866
 20
247.082894
 30
0.0
 10
96.390364
 20
247.474257
 30
0.0
 10
96.390364
 20
248.620785
 30
0.0
 10
97.718795
 20
248.047521
 30
0.0
 10
98.997615
 20
247.854597
 30
0.0
 10
100.469359
 20
248.229422
 30
0.0
 10
100.987502
 20
249.298779
 30
0.0
 10
100.612674
 20
250.246871
 30
0.0
 10
99.394490
 20
250.759499
 30
0.0
 10
98.716493
 20
250.891791
 30
0.0
 10
96.914019
 20
251.669005
 30
0.0
 10
96.357293
 20
253.140750
 30
0.0
 10
97.123481
 20
254.860542
 30
0.0
 10
99.245660
 20
255.488927
 30
0.0
 10
100.425261
 20
255.384196
 30
0.0
 10
101.654472
 20
255.070004
 30
0.0
  0
LWPOLYLINE
  5
143
100
AcDbEntity
  8
layout
 62
3
100
AcDbPolyline
 90
15
 70
0
 10
92.008204
 20
252.335976
 30
0.0
 10
91.633379
 20
252.479292
 30
0.0
 10
91.192406
 20
252.528901
 30
0.0
 10
89.869490
 20
251.966662
 30
0.0
 10
89.411979
 20
250.362624
 30
0.0
 10
89.411979
 20
247.110456
 30
0.0
 10
88.392231
 20
247.110456
 30
0.0
 10
88.392231
 20
253.284066
 30
0.0
 10
89.411979
 20
253.284066
 30
0.0
 10
89.411979
 20
252.324952
 30
0.0
 10
90.244315
 20
253.157287
 30
0.0
 10
91.490061
 20
253.432894
 30
0.0
 10
91.721573
 20
253.416359
 30
0.0
 10
92.002692
 20
253.377774
 30
0.0
 10
92.008195
 20
252.335977
 30
0.0
  0
LWPOLYLINE
  5
144
100
AcDbEntity
  8
layout
 62
3
100
AcDbPolyline
 90
16
 70
0
 10
86.766146
 20
250.450818
 30
0.0
 10
86.766146
 20
249.954725
 30
0.0
 10
82.102864
 20
249.954725
 30
0.0
 10
82.731252
 20
248.356202
 30
0.0
 10
84.307725
 20
247.810500
 30
0.0
 10
85.437718
 20
247.953815
 30
0.0
 10
86.529124
 20
248.383764
 30
0.0
 10
86.529124
 20
247.424648
 30
0.0
 10
85.410156
 20
247.071871
 30
0.0
 10
84.247093
 20
246.950603
 30
0.0
 10
81.904428
 20
247.810500
 30
0.0
 10
81.044531
 20
250.136626
 30
0.0
 10
81.860331
 20
252.539926
 30
0.0
 10
84.070704
 20
253.432894
 30
0.0
 10
86.038543
 20
252.628120
 30
0.0
 10
86.766146
 20
250.450818
 30
0.0
  0
LWPOLYLINE
  5
145
100
AcDbEntity
  8
layout
 62
3
100
AcDbPolyline
 90
6
 70
0
 10
85.751910
 20
250.748475
 30
0.0
 10
85.283379
 20
252.076905
 30
0.0
 10
84.081727
 20
252.572998
 30
0.0
 10
82.720225
 20
252.093441
 30
0.0
 10
82.135938
 20
250.742964
 30
0.0
 10
85.751910
 20
250.748467
 30
0.0
  0
LWPOLYLINE
  5
146
100
AcDbEntity
  8
layout
 62
3
100
AcDbPolyline
 90
19
 70
0
 10
78.056946
 20
255.036931
 30
0.0
 10
78.056946
 20
253.284066
 30
0.0
 10
80.146051
 20
253.284066
 30
0.0
 10
80.146051
 20
252.495828
 30
0.0
 10
78.056946
 20
252.495828
 30
0.0
 10
78.056946
 20
249.144440
 30
0.0
 10
78.260894
 20
248.174301
 30
0.0
 10
79.104253
 20
247.959327
 30
0.0
 10
80.146051
 20
247.959327
 30
0.0
 10
80.146051
 20
247.110456
 30
0.0
 10
79.104253
 20
247.110456
 30
0.0
 10
77.483682
 20
247.545916
 30
0.0
 10
77.037198
 20
249.144440
 30
0.0
 10
77.037198
 20
252.495828
 30
0.0
 10
76.293057
 20
252.495828
 30
0.0
 10
76.293057
 20
253.284066
 30
0.0
 10
77.037198
 20
253.284066
 30
0.0
 10
77.037198
 20
255.036931
 30
0.0
 10
78.056946
 20
255.036931
 30
0.0
  0
LWPOLYLINE
  5
147
100
AcDbEntity
  8
layout
 62
3
100
AcDbPolyline
 90
29
 70
0
 10
75.102432
 20
253.102165
 30
0.0
 10
75.102432
 20
252.143051
 30
0.0
 10
74.209461
 20
252.473780
 30
0.0
 10
73.250349
 20
252.584023
 30
0.0
 10
72.114845
 20
252.352512
 30
0.0
 10
71.740017
 20
251.657981
 30
0.0
 10
72.010115
 20
251.101253
 30
0.0
 10
73.096007
 20
250.720916
 30
0.0
 10
73.443273
 20
250.643746
 30
0.0
 10
74.975652
 20
249.987799
 30
0.0
 10
75.433160
 20
248.813709
 30
0.0
 10
74.749654
 20
247.452207
 30
0.0
 10
72.881033
 20
246.950603
 30
0.0
 10
71.844749
 20
247.049821
 30
0.0
 10
70.714757
 20
247.336454
 30
0.0
 10
70.714757
 20
248.383764
 30
0.0
 10
71.822699
 20
247.942791
 30
0.0
 10
72.903083
 20
247.799473
 30
0.0
 10
74.005513
 20
248.042009
 30
0.0
 10
74.391365
 20
248.736541
 30
0.0
 10
74.110243
 20
249.370438
 30
0.0
 10
72.892059
 20
249.794875
 30
0.0
 10
72.539281
 20
249.877555
 30
0.0
 10
71.177779
 20
250.483892
 30
0.0
 10
70.758854
 20
251.613884
 30
0.0
 10
71.376215
 20
252.958849
 30
0.0
 10
73.129081
 20
253.432894
 30
0.0
 10
74.187414
 20
253.350212
 30
0.0
 10
75.102432
 20
253.102165
 30
0.0
  0
LWPOLYLINE
  5
148
100
AcDbEntity
  8
layout
 62
3
100
AcDbPolyline
 90
9
 70
0
 10
67.049176
 20
250.213797
 30
0.0
 10
65.345920
 20
249.932678
 30
0.0
 10
64.871877
 20
248.973563
 30
0.0
 10
65.224654
 20
248.113666
 30
0.0
 10
66.194793
 20
247.799473
 30
0.0
 10
67.545269
 20
248.394787
 30
0.0
 10
68.057900
 20
249.987799
 30
0.0
 10
68.057900
 20
250.213797
 30
0.0
 10
67.049176
 20
250.213797
 30
0.0
  0
LWPOLYLINE
  5
149
100
AcDbEntity
  8
layout
 62
3
100
AcDbPolyline
 90
21
 70
0
 10
69.072136
 20
250.632722
 30
0.0
 10
69.072136
 20
247.110456
 30
0.0
 10
68.057900
 20
247.110456
 30
0.0
 10
68.057900
 20
248.047521
 30
0.0
 10
67.192491
 20
247.215186
 30
0.0
 10
65.924698
 20
246.950603
 30
0.0
 10
64.414366
 20
247.479769
 30
0.0
 10
63.857640
 20
248.907416
 30
0.0
 10
64.552170
 20
250.478380
 30
0.0
 10
66.635765
 20
251.007547
 30
0.0
 10
68.057900
 20
251.007547
 30
0.0
 10
68.057900
 20
251.106765
 30
0.0
 10
67.594878
 20
252.187148
 30
0.0
 10
66.305035
 20
252.572998
 30
0.0
 10
65.274263
 20
252.446219
 30
0.0
 10
64.309636
 20
252.065880
 30
0.0
 10
64.309636
 20
253.002946
 30
0.0
 10
65.390017
 20
253.322651
 30
0.0
 10
66.409768
 20
253.432894
 30
0.0
 10
68.410678
 20
252.738363
 30
0.0
 10
69.072136
 20
250.632722
 30
0.0
  0
LWPOLYLINE
  5
14a
100
AcDbEntity
  8
layout
 62
3
100
AcDbPolyline
 90
17
 70
0
 10
60.583420
 20
250.968962
 30
0.0
 10
61.277952
 20
250.450818
 30
0.0
 10
61.961460
 20
249.359414
 30
0.0
 10
63.091449
 20
247.110456
 30
0.0
 10
61.895313
 20
247.110456
 30
0.0
 10
60.842491
 20
249.221611
 30
0.0
 10
60.048741
 20
250.318527
 30
0.0
 10
59.006946
 20
250.588625
 30
0.0
 10
57.794271
 20
250.588625
 30
0.0
 10
57.794271
 20
247.110456
 30
0.0
 10
56.680817
 20
247.110456
 30
0.0
 10
56.680817
 20
255.340099
 30
0.0
 10
59.194359
 20
255.340099
 30
0.0
 10
61.300002
 20
254.750299
 30
0.0
 10
61.994531
 20
252.969873
 30
0.0
 10
61.630729
 20
251.680030
 30
0.0
 10
60.583420
 20
250.968962
 30
0.0
  0
LWPOLYLINE
  5
14b
100
AcDbEntity
  8
layout
 62
3
100
AcDbPolyline
 90
8
 70
0
 10
57.794271
 20
254.425082
 30
0.0
 10
57.794271
 20
251.503641
 30
0.0
 10
59.194359
 20
251.503641
 30
0.0
 10
60.407031
 20
251.872955
 30
0.0
 10
60.820444
 20
252.969873
 30
0.0
 10
60.407031
 20
254.055767
 30
0.0
 10
59.194359
 20
254.425082
 30
0.0
 10
57.794271
 20
254.425082
 30
0.0
  0
LWPOLYLINE
  5
14c
100
AcDbEntity
  8
layout
 62
3
100
AcDbPolyline
 90
15
 70
0
 10
169.181100
 20
263.053013
 30
0.0
 10
168.343253
 20
261.614341
 30
0.0
 10
167.251846
 20
261.278100
 30
0.0
 10
166.441560
 20
261.278100
 30
0.0
 10
166.441560
 20
262.126972
 30
0.0
 10
167.036871
 20
262.126972
 30
0.0
 10
167.687306
 20
262.325409
 30
0.0
 10
168.199935
 20
263.262475
 30
0.0
 10
168.381838
 20
263.725496
 30
0.0
 10
165.884832
 20
269.799888
 30
0.0
 10
166.959701
 20
269.799888
 30
0.0
 10
168.888955
 20
264.971242
 30
0.0
 10
170.818209
 20
269.799888
 30
0.0
 10
171.893078
 20
269.799888
 30
0.0
 10
169.181100
 20
263.053013
 30
0.0
  0
LWPOLYLINE
  5
14d
100
AcDbEntity
  8
layout
 62
3
100
AcDbPolyline
 90
5
 70
0
 10
163.481532
 20
272.203187
 30
0.0
 10
164.495768
 20
272.203187
 30
0.0
 10
164.495768
 20
263.626277
 30
0.0
 10
163.481532
 20
263.626277
 30
0.0
 10
163.481532
 20
272.203187
 30
0.0
  0
LWPOLYLINE
  5
14e
100
AcDbEntity
  8
layout
 62
3
100
AcDbPolyline
 90
8
 70
0
 10
157.826064
 20
270.940904
 30
0.0
 10
157.826064
 20
267.848586
 30
0.0
 10
159.226151
 20
267.848586
 30
0.0
 10
160.427800
 20
268.250973
 30
0.0
 10
160.852237
 20
269.397501
 30
0.0
 10
160.427800
 20
270.538517
 30
0.0
 10
159.226151
 20
270.940904
 30
0.0
 10
157.826064
 20
270.940904
 30
0.0
  0
LWPOLYLINE
  5
14f
100
AcDbEntity
  8
layout
 62
3
100
AcDbPolyline
 90
10
 70
0
 10
156.712610
 20
271.855921
 30
0.0
 10
159.226151
 20
271.855921
 30
0.0
 10
161.315256
 20
271.227536
 30
0.0
 10
162.026323
 20
269.397501
 30
0.0
 10
161.315256
 20
267.556442
 30
0.0
 10
159.226151
 20
266.933569
 30
0.0
 10
157.826064
 20
266.933569
 30
0.0
 10
157.826064
 20
263.626277
 30
0.0
 10
156.712610
 20
263.626277
 30
0.0
 10
156.712610
 20
271.855921
 30
0.0
  0
LWPOLYLINE
  5
150
100
AcDbEntity
  8
layout
 62
3
100
AcDbPolyline
 90
17
 70
0
 10
151.040603
 20
267.352492
 30
0.0
 10
151.040603
 20
263.626277
 30
0.0
 10
150.026367
 20
263.626277
 30
0.0
 10
150.026367
 20
267.319420
 30
0.0
 10
149.684616
 20
268.631312
 30
0.0
 10
148.659353
 20
269.066772
 30
0.0
 10
147.363998
 20
268.543117
 30
0.0
 10
146.889953
 20
267.115470
 30
0.0
 10
146.889953
 20
263.626277
 30
0.0
 10
145.870205
 20
263.626277
 30
0.0
 10
145.870205
 20
272.203187
 30
0.0
 10
146.889953
 20
272.203187
 30
0.0
 10
146.889953
 20
268.840774
 30
0.0
 10
147.744338
 20
269.673109
 30
0.0
 10
148.885351
 20
269.948716
 30
0.0
 10
150.494901
 20
269.287258
 30
0.0
 10
151.040603
 20
267.352492
 30
0.0
  0
LWPOLYLINE
  5
151
100
AcDbEntity
  8
layout
 62
3
100
AcDbPolyline
 90
19
 70
0
 10
144.133878
 20
269.562866
 30
0.0
 10
144.133878
 20
268.614775
 30
0.0
 10
143.268469
 20
268.967553
 30
0.0
 10
142.397548
 20
269.088821
 30
0.0
 10
140.865171
 20
268.460435
 30
0.0
 10
140.319466
 20
266.707571
 30
0.0
 10
140.865171
 20
264.949194
 30
0.0
 10
142.397548
 20
264.326321
 30
0.0
 10
143.268469
 20
264.442076
 30
0.0
 10
144.133878
 20
264.800366
 30
0.0
 10
144.133878
 20
263.863300
 30
0.0
 10
143.251933
 20
263.565643
 30
0.0
 10
142.287306
 20
263.466425
 30
0.0
 10
140.071421
 20
264.342857
 30
0.0
 10
139.250110
 20
266.707571
 30
0.0
 10
140.076933
 20
269.083309
 30
0.0
 10
142.353451
 20
269.948716
 30
0.0
 10
143.268469
 20
269.849498
 30
0.0
 10
144.133878
 20
269.562866
 30
0.0
  0
LWPOLYLINE
  5
152
100
AcDbEntity
  8
layout
 62
3
100
AcDbPolyline
 90
15
 70
0
 10
138.858746
 20
268.851798
 30
0.0
 10
138.483921
 20
268.995114
 30
0.0
 10
138.042949
 20
269.044723
 30
0.0
 10
136.720032
 20
268.482484
 30
0.0
 10
136.262522
 20
266.878447
 30
0.0
 10
136.262522
 20
263.626277
 30
0.0
 10
135.242774
 20
263.626277
 30
0.0
 10
135.242774
 20
269.799888
 30
0.0
 10
136.262522
 20
269.799888
 30
0.0
 10
136.262522
 20
268.840774
 30
0.0
 10
137.094857
 20
269.673109
 30
0.0
 10
138.340603
 20
269.948716
 30
0.0
 10
138.572116
 20
269.932181
 30
0.0
 10
138.853235
 20
269.893596
 30
0.0
 10
138.858738
 20
268.851799
 30
0.0
  0
LWPOLYLINE
  5
153
100
AcDbEntity
  8
layout
 62
3
100
AcDbPolyline
 90
5
 70
0
 10
132.150457
 20
269.799888
 30
0.0
 10
133.164693
 20
269.799888
 30
0.0
 10
133.164693
 20
263.626277
 30
0.0
 10
132.150457
 20
263.626277
 30
0.0
 10
132.150457
 20
269.799888
 30
0.0
  0
LWPOLYLINE
  5
154
100
AcDbEntity
  8
layout
 62
3
100
AcDbPolyline
 90
5
 70
0
 10
132.150457
 20
272.203187
 30
0.0
 10
133.164693
 20
272.203187
 30
0.0
 10
133.164693
 20
270.918855
 30
0.0
 10
132.150457
 20
270.918855
 30
0.0
 10
132.150457
 20
272.203187
 30
0.0
  0
LWPOLYLINE
  5
155
100
AcDbEntity
  8
layout
 62
3
100
AcDbPolyline
 90
8
 70
0
 10
125.568947
 20
267.556442
 30
0.0
 10
125.568947
 20
264.541295
 30
0.0
 10
127.354883
 20
264.541295
 30
0.0
 10
128.683312
 20
264.910609
 30
0.0
 10
129.118772
 20
266.051624
 30
0.0
 10
128.683312
 20
267.187128
 30
0.0
 10
127.354883
 20
267.556442
 30
0.0
 10
125.568947
 20
267.556442
 30
0.0
  0
LWPOLYLINE
  5
156
100
AcDbEntity
  8
layout
 62
3
100
AcDbPolyline
 90
8
 70
0
 10
125.568947
 20
270.940904
 30
0.0
 10
125.568947
 20
268.460435
 30
0.0
 10
127.217080
 20
268.460435
 30
0.0
 10
128.429755
 20
268.763604
 30
0.0
 10
128.832142
 20
269.700670
 30
0.0
 10
128.429755
 20
270.632223
 30
0.0
 10
127.217080
 20
270.940904
 30
0.0
 10
125.568947
 20
270.940904
 30
0.0
  0
LWPOLYLINE
  5
157
100
AcDbEntity
  8
layout
 62
3
100
AcDbPolyline
 90
12
 70
0
 10
124.455490
 20
271.855921
 30
0.0
 10
127.299762
 20
271.855921
 30
0.0
 10
129.262087
 20
271.326754
 30
0.0
 10
129.951107
 20
269.821937
 30
0.0
 10
129.598330
 20
268.620288
 30
0.0
 10
128.562046
 20
268.063560
 30
0.0
 10
129.835351
 20
267.324932
 30
0.0
 10
130.292862
 20
265.930357
 30
0.0
 10
129.543209
 20
264.227102
 30
0.0
 10
127.410004
 20
263.626277
 30
0.0
 10
124.455490
 20
263.626277
 30
0.0
 10
124.455490
 20
271.855921
 30
0.0
  0
LWPOLYLINE
  5
158
100
AcDbEntity
  8
layout
 62
3
100
AcDbPolyline
 90
19
 70
0
 10
119.042558
 20
269.562866
 30
0.0
 10
119.042558
 20
268.614775
 30
0.0
 10
118.177149
 20
268.967553
 30
0.0
 10
117.306228
 20
269.088821
 30
0.0
 10
115.773852
 20
268.460435
 30
0.0
 10
115.228147
 20
266.707571
 30
0.0
 10
115.773852
 20
264.949194
 30
0.0
 10
117.306228
 20
264.326321
 30
0.0
 10
118.177149
 20
264.442076
 30
0.0
 10
119.042558
 20
264.800366
 30
0.0
 10
119.042558
 20
263.863300
 30
0.0
 10
118.160614
 20
263.565643
 30
0.0
 10
117.195987
 20
263.466425
 30
0.0
 10
114.980102
 20
264.342857
 30
0.0
 10
114.158790
 20
266.707571
 30
0.0
 10
114.985614
 20
269.083309
 30
0.0
 10
117.262131
 20
269.948716
 30
0.0
 10
118.177149
 20
269.849498
 30
0.0
 10
119.042558
 20
269.562866
 30
0.0
  0
LWPOLYLINE
  5
159
100
AcDbEntity
  8
layout
 62
3
100
AcDbPolyline
 90
5
 70
0
 10
111.468860
 20
269.799888
 30
0.0
 10
112.483096
 20
269.799888
 30
0.0
 10
112.483096
 20
263.626277
 30
0.0
 10
111.468860
 20
263.626277
 30
0.0
 10
111.468860
 20
269.799888
 30
0.0
  0
LWPOLYLINE
  5
15a
100
AcDbEntity
  8
layout
 62
3
100
AcDbPolyline
 90
5
 70
0
 10
111.468860
 20
272.203187
 30
0.0
 10
112.483096
 20
272.203187
 30
0.0
 10
112.483096
 20
270.918855
 30
0.0
 10
111.468860
 20
270.918855
 30
0.0
 10
111.468860
 20
272.203187
 30
0.0
  0
LWPOLYLINE
  5
15b
100
AcDbEntity
  8
layout
 62
3
100
AcDbPolyline
 90
19
 70
0
 10
108.040300
 20
271.552753
 30
0.0
 10
108.040300
 20
269.799888
 30
0.0
 10
110.129407
 20
269.799888
 30
0.0
 10
110.129407
 20
269.011650
 30
0.0
 10
108.040300
 20
269.011650
 30
0.0
 10
108.040300
 20
265.660261
 30
0.0
 10
108.244251
 20
264.690123
 30
0.0
 10
109.087610
 20
264.475149
 30
0.0
 10
110.129407
 20
264.475149
 30
0.0
 10
110.129407
 20
263.626277
 30
0.0
 10
109.087610
 20
263.626277
 30
0.0
 10
107.467036
 20
264.061737
 30
0.0
 10
107.020552
 20
265.660261
 30
0.0
 10
107.020552
 20
269.011650
 30
0.0
 10
106.276411
 20
269.011650
 30
0.0
 10
106.276411
 20
269.799888
 30
0.0
 10
107.020552
 20
269.799888
 30
0.0
 10
107.020552
 20
271.552753
 30
0.0
 10
108.040300
 20
271.552753
 30
0.0
  0
LWPOLYLINE
  5
15c
100
AcDbEntity
  8
layout
 62
3
100
AcDbPolyline
 90
5
 70
0
 10
103.906185
 20
272.203187
 30
0.0
 10
104.920421
 20
272.203187
 30
0.0
 10
104.920421
 20
263.626277
 30
0.0
 10
103.906185
 20
263.626277
 30
0.0
 10
103.906185
 20
272.203187
 30
0.0
  0
LWPOLYLINE
  5
15d
100
AcDbEntity
  8
layout
 62
3
100
AcDbPolyline
 90
9
 70
0
 10
99.788607
 20
266.729619
 30
0.0
 10
98.085351
 20
266.448499
 30
0.0
 10
97.611308
 20
265.489385
 30
0.0
 10
97.964086
 20
264.629489
 30
0.0
 10
98.934225
 20
264.315296
 30
0.0
 10
100.284701
 20
264.910609
 30
0.0
 10
100.797332
 20
266.503621
 30
0.0
 10
100.797332
 20
266.729619
 30
0.0
 10
99.788607
 20
266.729619
 30
0.0
  0
LWPOLYLINE
  5
15e
100
AcDbEntity
  8
layout
 62
3
100
AcDbPolyline
 90
21
 70
0
 10
101.811568
 20
267.148543
 30
0.0
 10
101.811568
 20
263.626277
 30
0.0
 10
100.797332
 20
263.626277
 30
0.0
 10
100.797332
 20
264.563343
 30
0.0
 10
99.931923
 20
263.731008
 30
0.0
 10
98.664130
 20
263.466425
 30
0.0
 10
97.153798
 20
263.995591
 30
0.0
 10
96.597072
 20
265.423239
 30
0.0
 10
97.291601
 20
266.994203
 30
0.0
 10
99.375197
 20
267.523369
 30
0.0
 10
100.797332
 20
267.523369
 30
0.0
 10
100.797332
 20
267.622588
 30
0.0
 10
100.334310
 20
268.702970
 30
0.0
 10
99.044466
 20
269.088821
 30
0.0
 10
98.013695
 20
268.962041
 30
0.0
 10
97.049068
 20
268.581703
 30
0.0
 10
97.049068
 20
269.518768
 30
0.0
 10
98.129448
 20
269.838473
 30
0.0
 10
99.149199
 20
269.948716
 30
0.0
 10
101.150110
 20
269.254185
 30
0.0
 10
101.811568
 20
267.148543
 30
0.0
  0
LWPOLYLINE
  5
15f
100
AcDbEntity
  8
layout
 62
3
100
AcDbPolyline
 90
8
 70
0
 10
90.401411
 20
267.556442
 30
0.0
 10
90.401411
 20
264.541295
 30
0.0
 10
92.187350
 20
264.541295
 30
0.0
 10
93.515778
 20
264.910609
 30
0.0
 10
93.951239
 20
266.051624
 30
0.0
 10
93.515778
 20
267.187128
 30
0.0
 10
92.187350
 20
267.556442
 30
0.0
 10
90.401411
 20
267.556442
 30
0.0
  0
LWPOLYLINE
  5
160
100
AcDbEntity
  8
layout
 62
3
100
AcDbPolyline
 90
8
 70
0
 10
90.401411
 20
270.940904
 30
0.0
 10
90.401411
 20
268.460435
 30
0.0
 10
92.049546
 20
268.460435
 30
0.0
 10
93.262219
 20
268.763604
 30
0.0
 10
93.664605
 20
269.700670
 30
0.0
 10
93.262219
 20
270.632223
 30
0.0
 10
92.049546
 20
270.940904
 30
0.0
 10
90.401411
 20
270.940904
 30
0.0
  0
LWPOLYLINE
  5
161
100
AcDbEntity
  8
layout
 62
3
100
AcDbPolyline
 90
12
 70
0
 10
89.287957
 20
271.855921
 30
0.0
 10
92.132226
 20
271.855921
 30
0.0
 10
94.094554
 20
271.326754
 30
0.0
 10
94.783574
 20
269.821937
 30
0.0
 10
94.430796
 20
268.620288
 30
0.0
 10
93.394510
 20
268.063560
 30
0.0
 10
94.667818
 20
267.324932
 30
0.0
 10
95.125326
 20
265.930357
 30
0.0
 10
94.375673
 20
264.227102
 30
0.0
 10
92.242471
 20
263.626277
 30
0.0
 10
89.287957
 20
263.626277
 30
0.0
 10
89.287957
 20
271.855921
 30
0.0
  0
LWPOLYLINE
  5
162
100
AcDbEntity
  8
layout
 62
3
100
AcDbPolyline
 90
9
 70
0
 10
80.986655
 20
267.534393
 30
0.0
 10
79.735395
 20
267.109958
 30
0.0
 10
79.283399
 20
265.941381
 30
0.0
 10
79.735395
 20
264.772805
 30
0.0
 10
80.986655
 20
264.348369
 30
0.0
 10
82.237913
 20
264.772805
 30
0.0
 10
82.695421
 20
265.941381
 30
0.0
 10
82.237913
 20
267.109958
 30
0.0
 10
80.986655
 20
267.534393
 30
0.0
  0
LWPOLYLINE
  5
163
100
AcDbEntity
  8
layout
 62
3
100
AcDbPolyline
 90
17
 70
0
 10
79.873198
 20
268.008439
 30
0.0
 10
78.754232
 20
268.675409
 30
0.0
 10
78.357357
 20
269.871546
 30
0.0
 10
79.057401
 20
271.431485
 30
0.0
 10
80.986655
 20
272.004749
 30
0.0
 10
82.915907
 20
271.431485
 30
0.0
 10
83.615951
 20
269.871546
 30
0.0
 10
83.213564
 20
268.675409
 30
0.0
 10
82.105621
 20
268.008439
 30
0.0
 10
83.356879
 20
267.275322
 30
0.0
 10
83.808878
 20
265.941381
 30
0.0
 10
83.075760
 20
264.105835
 30
0.0
 10
80.986655
 20
263.466425
 30
0.0
 10
78.892036
 20
264.105835
 30
0.0
 10
78.164433
 20
265.941381
 30
0.0
 10
78.616429
 20
267.275322
 30
0.0
 10
79.873198
 20
268.008439
 30
0.0
  0
LWPOLYLINE
  5
164
100
AcDbEntity
  8
layout
 62
3
100
AcDbPolyline
 90
9
 70
0
 10
79.465300
 20
269.766815
 30
0.0
 10
79.862175
 20
268.769116
 30
0.0
 10
80.986655
 20
268.410826
 30
0.0
 10
82.105621
 20
268.769116
 30
0.0
 10
82.513520
 20
269.766815
 30
0.0
 10
82.105621
 20
270.764515
 30
0.0
 10
80.986655
 20
271.122805
 30
0.0
 10
79.862175
 20
270.764515
 30
0.0
 10
79.465300
 20
269.766815
 30
0.0
  0
LWPOLYLINE
  5
165
100
AcDbEntity
  8
layout
 62
3
100
AcDbPolyline
 90
5
 70
0
 10
76.450153
 20
271.855921
 30
0.0
 10
77.387219
 20
271.855921
 30
0.0
 10
74.520899
 20
262.578968
 30
0.0
 10
73.583834
 20
262.578968
 30
0.0
 10
76.450153
 20
271.855921
 30
0.0
  0
LWPOLYLINE
  5
166
100
AcDbEntity
  8
layout
 62
3
100
AcDbPolyline
 90
12
 70
0
 10
67.796074
 20
264.563343
 30
0.0
 10
69.615084
 20
264.563343
 30
0.0
 10
69.615084
 20
270.841685
 30
0.0
 10
67.636221
 20
270.444810
 30
0.0
 10
67.636221
 20
271.459046
 30
0.0
 10
69.604060
 20
271.855921
 30
0.0
 10
70.717514
 20
271.855921
 30
0.0
 10
70.717514
 20
264.563343
 30
0.0
 10
72.536524
 20
264.563343
 30
0.0
 10
72.536524
 20
263.626277
 30
0.0
 10
67.796074
 20
263.626277
 30
0.0
 10
67.796074
 20
264.563343
 30
0.0
  0
LWPOLYLINE
  5
167
100
AcDbEntity
  8
layout
 62
3
100
AcDbPolyline
 90
11
 70
0
 10
157.475832
 20
239.639125
 30
0.0
 10
158.357776
 20
239.639125
 30
0.0
 10
159.592498
 20
237.092510
 30
0.0
 10
160.005909
 20
234.617554
 30
0.0
 10
159.592498
 20
232.131571
 30
0.0
 10
158.357776
 20
229.584958
 30
0.0
 10
157.475832
 20
229.584958
 30
0.0
 10
158.567239
 20
232.092985
 30
0.0
 10
158.931040
 20
234.617554
 30
0.0
 10
158.567239
 20
237.131095
 30
0.0
 10
157.475832
 20
239.639125
 30
0.0
  0
LWPOLYLINE
  5
168
100
AcDbEntity
  8
layout
 62
3
100
AcDbPolyline
 90
9
 70
0
 10
154.041760
 20
234.694722
 30
0.0
 10
153.286595
 20
234.286823
 30
0.0
 10
153.016500
 20
233.151319
 30
0.0
 10
153.286595
 20
232.021329
 30
0.0
 10
154.041760
 20
231.613431
 30
0.0
 10
154.780389
 20
232.021329
 30
0.0
 10
155.055996
 20
233.151319
 30
0.0
 10
154.780389
 20
234.281311
 30
0.0
 10
154.041760
 20
234.694722
 30
0.0
  0
LWPOLYLINE
  5
169
100
AcDbEntity
  8
layout
 62
3
100
AcDbPolyline
 90
9
 70
0
 10
154.041760
 20
235.394765
 30
0.0
 10
155.425309
 20
234.788431
 30
0.0
 10
155.937941
 20
233.151319
 30
0.0
 10
155.419798
 20
231.514210
 30
0.0
 10
154.041760
 20
230.913387
 30
0.0
 10
152.647184
 20
231.514210
 30
0.0
 10
152.134556
 20
233.151319
 30
0.0
 10
152.647184
 20
234.788431
 30
0.0
 10
154.041760
 20
235.394765
 30
0.0
  0
LWPOLYLINE
  5
16a
100
AcDbEntity
  8
layout
 62
3
100
AcDbPolyline
 90
9
 70
0
 10
148.353218
 20
238.751666
 30
0.0
 10
147.603566
 20
238.338256
 30
0.0
 10
147.333470
 20
237.213778
 30
0.0
 10
147.603566
 20
236.078274
 30
0.0
 10
148.353218
 20
235.670375
 30
0.0
 10
149.102871
 20
236.078274
 30
0.0
 10
149.378478
 20
237.213778
 30
0.0
 10
149.102871
 20
238.338256
 30
0.0
 10
148.353218
 20
238.751666
 30
0.0
  0
LWPOLYLINE
  5
16b
100
AcDbEntity
  8
layout
 62
3
100
AcDbPolyline
 90
5
 70
0
 10
153.330693
 20
239.451710
 30
0.0
 10
154.212637
 20
239.451710
 30
0.0
 10
149.064286
 20
230.913387
 30
0.0
 10
148.182341
 20
230.913387
 30
0.0
 10
153.330693
 20
239.451710
 30
0.0
  0
LWPOLYLINE
  5
16c
100
AcDbEntity
  8
layout
 62
3
100
AcDbPolyline
 90
9
 70
0
 10
148.353218
 20
239.451710
 30
0.0
 10
149.742282
 20
238.845375
 30
0.0
 10
150.260423
 20
237.213778
 30
0.0
 10
149.742282
 20
235.571154
 30
0.0
 10
148.353218
 20
234.970331
 30
0.0
 10
146.964157
 20
235.571154
 30
0.0
 10
146.457038
 20
237.213778
 30
0.0
 10
146.969669
 20
238.845375
 30
0.0
 10
148.353218
 20
239.451710
 30
0.0
  0
LWPOLYLINE
  5
16d
100
AcDbEntity
  8
layout
 62
3
100
AcDbPolyline
 90
11
 70
0
 10
144.924659
 20
239.639125
 30
0.0
 10
143.827740
 20
237.131095
 30
0.0
 10
143.469450
 20
234.617554
 30
0.0
 10
143.827740
 20
232.092985
 30
0.0
 10
144.924659
 20
229.584958
 30
0.0
 10
144.042714
 20
229.584958
 30
0.0
 10
142.802480
 20
232.131571
 30
0.0
 10
142.394582
 20
234.617554
 30
0.0
 10
142.802480
 20
237.092510
 30
0.0
 10
144.042714
 20
239.639125
 30
0.0
 10
144.924659
 20
239.639125
 30
0.0
  0
LWPOLYLINE
  5
16e
100
AcDbEntity
  8
layout
 62
3
100
AcDbPolyline
 90
15
 70
0
 10
137.819494
 20
236.298760
 30
0.0
 10
137.444669
 20
236.442075
 30
0.0
 10
137.003697
 20
236.491684
 30
0.0
 10
135.680780
 20
235.929444
 30
0.0
 10
135.223270
 20
234.325408
 30
0.0
 10
135.223270
 20
231.073238
 30
0.0
 10
134.203522
 20
231.073238
 30
0.0
 10
134.203522
 20
237.246849
 30
0.0
 10
135.223270
 20
237.246849
 30
0.0
 10
135.223270
 20
236.287736
 30
0.0
 10
136.055605
 20
237.120069
 30
0.0
 10
137.301351
 20
237.395679
 30
0.0
 10
137.532864
 20
237.379140
 30
0.0
 10
137.813982
 20
237.340555
 30
0.0
 10
137.819486
 20
236.298760
 30
0.0
  0
LWPOLYLINE
  5
16f
100
AcDbEntity
  8
layout
 62
3
100
AcDbPolyline
 90
16
 70
0
 10
132.577436
 20
234.413603
 30
0.0
 10
132.577436
 20
233.917510
 30
0.0
 10
127.914157
 20
233.917510
 30
0.0
 10
128.542542
 20
232.318986
 30
0.0
 10
130.119018
 20
231.773281
 30
0.0
 10
131.249008
 20
231.916597
 30
0.0
 10
132.340415
 20
232.346545
 30
0.0
 10
132.340415
 20
231.387430
 30
0.0
 10
131.221449
 20
231.034652
 30
0.0
 10
130.058383
 20
230.913387
 30
0.0
 10
127.715718
 20
231.773281
 30
0.0
 10
126.855824
 20
234.099410
 30
0.0
 10
127.671621
 20
236.502708
 30
0.0
 10
129.881994
 20
237.395679
 30
0.0
 10
131.849834
 20
236.590902
 30
0.0
 10
132.577436
 20
234.413603
 30
0.0
  0
LWPOLYLINE
  5
170
100
AcDbEntity
  8
layout
 62
3
100
AcDbPolyline
 90
6
 70
0
 10
131.563200
 20
234.711260
 30
0.0
 10
131.094669
 20
236.039688
 30
0.0
 10
129.893018
 20
236.535781
 30
0.0
 10
128.531518
 20
236.056224
 30
0.0
 10
127.947228
 20
234.705748
 30
0.0
 10
131.563200
 20
234.711251
 30
0.0
  0
LWPOLYLINE
  5
171
100
AcDbEntity
  8
layout
 62
3
100
AcDbPolyline
 90
14
 70
0
 10
117.468627
 20
237.246849
 30
0.0
 10
118.482864
 20
237.246849
 30
0.0
 10
119.750657
 20
232.429228
 30
0.0
 10
121.012941
 20
237.246849
 30
0.0
 10
122.209077
 20
237.246849
 30
0.0
 10
123.476873
 20
232.429228
 30
0.0
 10
124.739157
 20
237.246849
 30
0.0
 10
125.753393
 20
237.246849
 30
0.0
 10
124.138332
 20
231.073238
 30
0.0
 10
122.942195
 20
231.073238
 30
0.0
 10
121.613766
 20
236.133394
 30
0.0
 10
120.279823
 20
231.073238
 30
0.0
 10
119.083686
 20
231.073238
 30
0.0
 10
117.468627
 20
237.246849
 30
0.0
  0
LWPOLYLINE
  5
172
100
AcDbEntity
  8
layout
 62
3
100
AcDbPolyline
 90
9
 70
0
 10
113.549486
 20
236.535781
 30
0.0
 10
112.259643
 20
235.896373
 30
0.0
 10
111.785598
 20
234.154531
 30
0.0
 10
112.254129
 20
232.407181
 30
0.0
 10
113.549486
 20
231.773281
 30
0.0
 10
114.833818
 20
232.412692
 30
0.0
 10
115.307864
 20
234.154531
 30
0.0
 10
114.833818
 20
235.890861
 30
0.0
 10
113.549486
 20
236.535781
 30
0.0
  0
LWPOLYLINE
  5
173
100
AcDbEntity
  8
layout
 62
3
100
AcDbPolyline
 90
9
 70
0
 10
113.549486
 20
237.395679
 30
0.0
 10
115.627568
 20
236.535781
 30
0.0
 10
116.382732
 20
234.154531
 30
0.0
 10
115.627568
 20
231.773281
 30
0.0
 10
113.549486
 20
230.913387
 30
0.0
 10
111.465893
 20
231.773281
 30
0.0
 10
110.716241
 20
234.154531
 30
0.0
 10
111.465893
 20
236.535781
 30
0.0
 10
113.549486
 20
237.395679
 30
0.0
  0
LWPOLYLINE
  5
174
100
AcDbEntity
  8
layout
 62
3
100
AcDbPolyline
 90
8
 70
0
 10
105.898617
 20
238.387865
 30
0.0
 10
105.898617
 20
235.295547
 30
0.0
 10
107.298704
 20
235.295547
 30
0.0
 10
108.500353
 20
235.697934
 30
0.0
 10
108.924790
 20
236.844462
 30
0.0
 10
108.500353
 20
237.985478
 30
0.0
 10
107.298704
 20
238.387865
 30
0.0
 10
105.898617
 20
238.387865
 30
0.0
  0
LWPOLYLINE
  5
175
100
AcDbEntity
  8
layout
 62
3
100
AcDbPolyline
 90
10
 70
0
 10
104.785163
 20
239.302883
 30
0.0
 10
107.298704
 20
239.302883
 30
0.0
 10
109.387809
 20
238.674498
 30
0.0
 10
110.098880
 20
236.844462
 30
0.0
 10
109.387809
 20
235.003402
 30
0.0
 10
107.298704
 20
234.380529
 30
0.0
 10
105.898617
 20
234.380529
 30
0.0
 10
105.898617
 20
231.073238
 30
0.0
 10
104.785163
 20
231.073238
 30
0.0
 10
104.785163
 20
239.302883
 30
0.0
  0
LWPOLYLINE
  5
176
100
AcDbEntity
  8
layout
 62
3
100
AcDbPolyline
 90
23
 70
0
 10
194.348444
 20
226.241452
 30
0.0
 10
198.719581
 20
226.241452
 30
0.0
 10
198.719581
 20
225.304387
 30
0.0
 10
195.368192
 20
225.304387
 30
0.0
 10
195.368192
 20
223.286938
 30
0.0
 10
195.853262
 20
223.408206
 30
0.0
 10
196.338331
 20
223.452303
 30
0.0
 10
198.521145
 20
222.697139
 30
0.0
 10
199.325919
 20
220.652131
 30
0.0
 10
198.499095
 20
218.585074
 30
0.0
 10
196.167454
 20
217.851956
 30
0.0
 10
195.109121
 20
217.940151
 30
0.0
 10
194.001178
 20
218.204734
 30
0.0
 10
194.001178
 20
219.323703
 30
0.0
 10
195.026441
 20
218.921313
 30
0.0
 10
196.145407
 20
218.789021
 30
0.0
 10
197.655736
 20
219.290629
 30
0.0
 10
198.212464
 20
220.652131
 30
0.0
 10
197.655736
 20
222.013633
 30
0.0
 10
196.145407
 20
222.515238
 30
0.0
 10
195.252439
 20
222.416020
 30
0.0
 10
194.348444
 20
222.107339
 30
0.0
 10
194.348444
 20
226.241452
 30
0.0
  0
LWPOLYLINE
  5
177
100
AcDbEntity
  8
layout
 62
3
100
AcDbPolyline
 90
23
 70
0
 10
187.160597
 20
226.241452
 30
0.0
 10
191.531734
 20
226.241452
 30
0.0
 10
191.531734
 20
225.304387
 30
0.0
 10
188.180345
 20
225.304387
 30
0.0
 10
188.180345
 20
223.286938
 30
0.0
 10
188.665414
 20
223.408206
 30
0.0
 10
189.150484
 20
223.452303
 30
0.0
 10
191.333298
 20
222.697139
 30
0.0
 10
192.138071
 20
220.652131
 30
0.0
 10
191.311248
 20
218.585074
 30
0.0
 10
188.979607
 20
217.851956
 30
0.0
 10
187.921273
 20
217.940151
 30
0.0
 10
186.813331
 20
218.204734
 30
0.0
 10
186.813331
 20
219.323703
 30
0.0
 10
187.838594
 20
218.921313
 30
0.0
 10
188.957560
 20
218.789021
 30
0.0
 10
190.467889
 20
219.290629
 30
0.0
 10
191.024617
 20
220.652131
 30
0.0
 10
190.467889
 20
222.013633
 30
0.0
 10
188.957560
 20
222.515238
 30
0.0
 10
188.064592
 20
222.416020
 30
0.0
 10
187.160597
 20
222.107339
 30
0.0
 10
187.160597
 20
226.241452
 30
0.0
  0
LWPOLYLINE
  5
178
100
AcDbEntity
  8
layout
 62
3
100
AcDbPolyline
 90
23
 70
0
 10
164.114751
 20
226.241452
 30
0.0
 10
168.485888
 20
226.241452
 30
0.0
 10
168.485888
 20
225.304387
 30
0.0
 10
165.134499
 20
225.304387
 30
0.0
 10
165.134499
 20
223.286938
 30
0.0
 10
165.619568
 20
223.408206
 30
0.0
 10
166.104638
 20
223.452303
 30
0.0
 10
168.287452
 20
222.697139
 30
0.0
 10
169.092225
 20
220.652131
 30
0.0
 10
168.265402
 20
218.585074
 30
0.0
 10
165.933763
 20
217.851956
 30
0.0
 10
164.875430
 20
217.940151
 30
0.0
 10
163.767485
 20
218.204734
 30
0.0
 10
163.767485
 20
219.323703
 30
0.0
 10
164.792747
 20
218.921313
 30
0.0
 10
165.911713
 20
218.789021
 30
0.0
 10
167.422043
 20
219.290629
 30
0.0
 10
167.978771
 20
220.652131
 30
0.0
 10
167.422043
 20
222.013633
 30
0.0
 10
165.911713
 20
222.515238
 30
0.0
 10
165.018745
 20
222.416020
 30
0.0
 10
164.114751
 20
222.107339
 30
0.0
 10
164.114751
 20
226.241452
 30
0.0
  0
LWPOLYLINE
  5
179
100
AcDbEntity
  8
layout
 62
3
100
AcDbPolyline
 90
4
 70
0
 10
159.975124
 20
225.271313
 30
0.0
 10
157.163928
 20
220.878129
 30
0.0
 10
159.975124
 20
220.878129
 30
0.0
 10
159.975124
 20
225.271313
 30
0.0
  0
LWPOLYLINE
  5
17a
100
AcDbEntity
  8
layout
 62
3
100
AcDbPolyline
 90
12
 70
0
 10
159.682982
 20
226.241452
 30
0.0
 10
161.083069
 20
226.241452
 30
0.0
 10
161.083069
 20
220.878129
 30
0.0
 10
162.257156
 20
220.878129
 30
0.0
 10
162.257156
 20
219.952087
 30
0.0
 10
161.083069
 20
219.952087
 30
0.0
 10
161.083069
 20
218.011810
 30
0.0
 10
159.975124
 20
218.011810
 30
0.0
 10
159.975124
 20
219.952087
 30
0.0
 10
156.259934
 20
219.952087
 30
0.0
 10
156.259934
 20
221.026956
 30
0.0
 10
159.682982
 20
226.241452
 30
0.0
  0
LWPOLYLINE
  5
17b
100
AcDbEntity
  8
layout
 62
3
100
AcDbPolyline
 90
23
 70
0
 10
133.566865
 20
226.167038
 30
0.0
 10
137.938002
 20
226.167038
 30
0.0
 10
137.938002
 20
225.229973
 30
0.0
 10
134.586613
 20
225.229973
 30
0.0
 10
134.586613
 20
223.212525
 30
0.0
 10
135.071683
 20
223.333793
 30
0.0
 10
135.556752
 20
223.377890
 30
0.0
 10
137.739566
 20
222.622725
 30
0.0
 10
138.544340
 20
220.577718
 30
0.0
 10
137.717516
 20
218.510660
 30
0.0
 10
135.385878
 20
217.777543
 30
0.0
 10
134.327544
 20
217.865737
 30
0.0
 10
133.219599
 20
218.130320
 30
0.0
 10
133.219599
 20
219.249286
 30
0.0
 10
134.244862
 20
218.846900
 30
0.0
 10
135.363828
 20
218.714608
 30
0.0
 10
136.874157
 20
219.216216
 30
0.0
 10
137.430885
 20
220.577718
 30
0.0
 10
136.874157
 20
221.939217
 30
0.0
 10
135.363828
 20
222.440825
 30
0.0
 10
134.470860
 20
222.341607
 30
0.0
 10
133.566865
 20
222.032926
 30
0.0
 10
133.566865
 20
226.167038
 30
0.0
  0
LWPOLYLINE
  5
17c
100
AcDbEntity
  8
layout
 62
3
100
AcDbPolyline
 90
30
 70
0
 10
129.741433
 20
222.374677
 30
0.0
 10
130.987179
 20
221.663610
 30
0.0
 10
131.439175
 20
220.329670
 30
0.0
 10
130.601328
 20
218.444513
 30
0.0
 10
128.220078
 20
217.777543
 30
0.0
 10
127.150721
 20
217.882272
 30
0.0
 10
126.020728
 20
218.185441
 30
0.0
 10
126.020728
 20
219.260313
 30
0.0
 10
127.034965
 20
218.852411
 30
0.0
 10
128.187004
 20
218.714608
 30
0.0
 10
129.780016
 20
219.128021
 30
0.0
 10
130.331233
 20
220.329670
 30
0.0
 10
129.818601
 20
221.465174
 30
0.0
 10
128.401978
 20
221.878584
 30
0.0
 10
127.442863
 20
221.878584
 30
0.0
 10
127.442863
 20
222.793602
 30
0.0
 10
128.446076
 20
222.793602
 30
0.0
 10
129.702848
 20
223.118818
 30
0.0
 10
130.138308
 20
224.066910
 30
0.0
 10
129.686310
 20
225.037049
 30
0.0
 10
128.401978
 20
225.378800
 30
0.0
 10
127.420816
 20
225.279582
 30
0.0
 10
126.268776
 20
224.970902
 30
0.0
 10
126.268776
 20
225.963091
 30
0.0
 10
127.453890
 20
226.227674
 30
0.0
 10
128.501196
 20
226.315868
 30
0.0
 10
130.507621
 20
225.737093
 30
0.0
 10
131.246251
 20
224.182663
 30
0.0
 10
130.854887
 20
223.025112
 30
0.0
 10
129.741433
 20
222.374677
 30
0.0
  0
LWPOLYLINE
  5
17d
100
AcDbEntity
  8
layout
 62
3
100
AcDbPolyline
 90
23
 70
0
 10
103.189857
 20
226.167038
 30
0.0
 10
107.560993
 20
226.167038
 30
0.0
 10
107.560993
 20
225.229973
 30
0.0
 10
104.209604
 20
225.229973
 30
0.0
 10
104.209604
 20
223.212525
 30
0.0
 10
104.694674
 20
223.333793
 30
0.0
 10
105.179743
 20
223.377890
 30
0.0
 10
107.362557
 20
222.622725
 30
0.0
 10
108.167331
 20
220.577718
 30
0.0
 10
107.340507
 20
218.510660
 30
0.0
 10
105.008869
 20
217.777543
 30
0.0
 10
103.950536
 20
217.865737
 30
0.0
 10
102.842591
 20
218.130320
 30
0.0
 10
102.842591
 20
219.249286
 30
0.0
 10
103.867853
 20
218.846900
 30
0.0
 10
104.986819
 20
218.714608
 30
0.0
 10
106.497148
 20
219.216216
 30
0.0
 10
107.053877
 20
220.577718
 30
0.0
 10
106.497148
 20
221.939217
 30
0.0
 10
104.986819
 20
222.440825
 30
0.0
 10
104.093851
 20
222.341607
 30
0.0
 10
103.189857
 20
222.032926
 30
0.0
 10
103.189857
 20
226.167038
 30
0.0
  0
LWPOLYLINE
  5
17e
100
AcDbEntity
  8
layout
 62
3
100
AcDbPolyline
 90
22
 70
0
 10
96.950101
 20
218.874461
 30
0.0
 10
100.836168
 20
218.874461
 30
0.0
 10
100.836168
 20
217.937396
 30
0.0
 10
95.610646
 20
217.937396
 30
0.0
 10
95.610646
 20
218.874461
 30
0.0
 10
97.335952
 20
220.632838
 30
0.0
 10
98.713990
 20
222.060485
 30
0.0
 10
99.458131
 20
223.074721
 30
0.0
 10
99.673105
 20
223.896033
 30
0.0
 10
99.210083
 20
224.965390
 30
0.0
 10
98.013946
 20
225.378800
 30
0.0
 10
96.906004
 20
225.196900
 30
0.0
 10
95.665770
 20
224.645686
 30
0.0
 10
95.665770
 20
225.770163
 30
0.0
 10
96.922539
 20
226.178065
 30
0.0
 10
97.991896
 20
226.315868
 30
0.0
 10
100.031395
 20
225.676457
 30
0.0
 10
100.792071
 20
223.967689
 30
0.0
 10
100.599147
 20
223.003065
 30
0.0
 10
99.910127
 20
221.933705
 30
0.0
 10
99.033694
 20
221.007663
 30
0.0
 10
96.950101
 20
218.874461
 30
0.0
  0
LWPOLYLINE
  5
17f
100
AcDbEntity
  8
layout
 62
3
100
AcDbPolyline
 90
23
 70
0
 10
72.589599
 20
226.241452
 30
0.0
 10
76.960736
 20
226.241452
 30
0.0
 10
76.960736
 20
225.304387
 30
0.0
 10
73.609347
 20
225.304387
 30
0.0
 10
73.609347
 20
223.286938
 30
0.0
 10
74.094416
 20
223.408206
 30
0.0
 10
74.579486
 20
223.452303
 30
0.0
 10
76.762297
 20
222.697139
 30
0.0
 10
77.567070
 20
220.652131
 30
0.0
 10
76.740250
 20
218.585074
 30
0.0
 10
74.408609
 20
217.851956
 30
0.0
 10
73.350275
 20
217.940151
 30
0.0
 10
72.242333
 20
218.204734
 30
0.0
 10
72.242333
 20
219.323703
 30
0.0
 10
73.267593
 20
218.921313
 30
0.0
 10
74.386559
 20
218.789021
 30
0.0
 10
75.896891
 20
219.290629
 30
0.0
 10
76.453616
 20
220.652131
 30
0.0
 10
75.896891
 20
222.013633
 30
0.0
 10
74.386559
 20
222.515238
 30
0.0
 10
73.493590
 20
222.416020
 30
0.0
 10
72.589599
 20
222.107339
 30
0.0
 10
72.589599
 20
226.241452
 30
0.0
  0
LWPOLYLINE
  5
180
100
AcDbEntity
  8
layout
 62
3
100
AcDbPolyline
 90
12
 70
0
 10
65.583652
 20
218.948875
 30
0.0
 10
67.402662
 20
218.948875
 30
0.0
 10
67.402662
 20
225.227216
 30
0.0
 10
65.423799
 20
224.830341
 30
0.0
 10
65.423799
 20
225.844577
 30
0.0
 10
67.391638
 20
226.241452
 30
0.0
 10
68.505093
 20
226.241452
 30
0.0
 10
68.505093
 20
218.948875
 30
0.0
 10
70.324102
 20
218.948875
 30
0.0
 10
70.324102
 20
218.011810
 30
0.0
 10
65.583652
 20
218.011810
 30
0.0
 10
65.583652
 20
218.948875
 30
0.0
  0
LWPOLYLINE
  5
181
100
AcDbEntity
  8
layout
 62
3
100
AcDbPolyline
 90
9
 70
0
 10
211.838280
 20
225.433924
 30
0.0
 10
210.542926
 20
224.585050
 30
0.0
 10
210.112977
 20
222.043950
 30
0.0
 10
210.542926
 20
219.502846
 30
0.0
 10
211.838280
 20
218.659487
 30
0.0
 10
213.133638
 20
219.502846
 30
0.0
 10
213.569098
 20
222.043950
 30
0.0
 10
213.133638
 20
224.585050
 30
0.0
 10
211.838280
 20
225.433924
 30
0.0
  0
LWPOLYLINE
  5
182
100
AcDbEntity
  8
layout
 62
3
100
AcDbPolyline
 90
9
 70
0
 10
211.838280
 20
226.315868
 30
0.0
 10
213.949435
 20
225.218950
 30
0.0
 10
214.682553
 20
222.043950
 30
0.0
 10
213.949435
 20
218.868950
 30
0.0
 10
211.838280
 20
217.777543
 30
0.0
 10
209.721614
 20
218.868950
 30
0.0
 10
208.994011
 20
222.043950
 30
0.0
 10
209.721614
 20
225.218950
 30
0.0
 10
211.838280
 20
226.315868
 30
0.0
  0
LWPOLYLINE
  5
183
100
AcDbEntity
  8
layout
 62
3
100
AcDbPolyline
 90
9
 70
0
 10
204.788239
 20
222.495945
 30
0.0
 10
203.597614
 20
221.983314
 30
0.0
 10
203.162154
 20
220.577718
 30
0.0
 10
203.597614
 20
219.172118
 30
0.0
 10
204.788239
 20
218.659487
 30
0.0
 10
205.973350
 20
219.172118
 30
0.0
 10
206.414322
 20
220.577718
 30
0.0
 10
205.973350
 20
221.983314
 30
0.0
 10
204.788239
 20
222.495945
 30
0.0
  0
LWPOLYLINE
  5
184
100
AcDbEntity
  8
layout
 62
3
100
AcDbPolyline
 90
18
 70
0
 10
206.998612
 20
225.985138
 30
0.0
 10
206.998612
 20
224.970902
 30
0.0
 10
206.149739
 20
225.274070
 30
0.0
 10
205.306380
 20
225.378800
 30
0.0
 10
203.619662
 20
224.634662
 30
0.0
 10
202.958203
 20
222.385704
 30
0.0
 10
203.774003
 20
223.118818
 30
0.0
 10
204.854384
 20
223.377890
 30
0.0
 10
206.811197
 20
222.622725
 30
0.0
 10
207.533291
 20
220.577718
 30
0.0
 10
206.783638
 20
218.543731
 30
0.0
 10
204.788239
 20
217.777543
 30
0.0
 10
202.605426
 20
218.868950
 30
0.0
 10
201.850261
 20
222.043950
 30
0.0
 10
202.776303
 20
225.152802
 30
0.0
 10
205.262282
 20
226.315868
 30
0.0
 10
206.105641
 20
226.233186
 30
0.0
 10
206.998612
 20
225.985138
 30
0.0
  0
LWPOLYLINE
  5
185
100
AcDbEntity
  8
layout
 62
3
100
AcDbPolyline
 90
9
 70
0
 10
181.403396
 20
225.433924
 30
0.0
 10
180.108039
 20
224.585050
 30
0.0
 10
179.678090
 20
222.043950
 30
0.0
 10
180.108039
 20
219.502846
 30
0.0
 10
181.403396
 20
218.659487
 30
0.0
 10
182.698751
 20
219.502846
 30
0.0
 10
183.134212
 20
222.043950
 30
0.0
 10
182.698751
 20
224.585050
 30
0.0
 10
181.403396
 20
225.433924
 30
0.0
  0
LWPOLYLINE
  5
186
100
AcDbEntity
  8
layout
 62
3
100
AcDbPolyline
 90
9
 70
0
 10
181.403396
 20
226.315868
 30
0.0
 10
183.514548
 20
225.218950
 30
0.0
 10
184.247666
 20
222.043950
 30
0.0
 10
183.514548
 20
218.868950
 30
0.0
 10
181.403396
 20
217.777543
 30
0.0
 10
179.286730
 20
218.868950
 30
0.0
 10
178.559124
 20
222.043950
 30
0.0
 10
179.286730
 20
225.218950
 30
0.0
 10
181.403396
 20
226.315868
 30
0.0
  0
LWPOLYLINE
  5
187
100
AcDbEntity
  8
layout
 62
3
100
AcDbPolyline
 90
23
 70
0
 10
171.845323
 20
226.167038
 30
0.0
 10
176.216460
 20
226.167038
 30
0.0
 10
176.216460
 20
225.229973
 30
0.0
 10
172.865071
 20
225.229973
 30
0.0
 10
172.865071
 20
223.212525
 30
0.0
 10
173.350140
 20
223.333793
 30
0.0
 10
173.835210
 20
223.377890
 30
0.0
 10
176.018021
 20
222.622725
 30
0.0
 10
176.822797
 20
220.577718
 30
0.0
 10
175.995973
 20
218.510660
 30
0.0
 10
173.664332
 20
217.777543
 30
0.0
 10
172.605999
 20
217.865737
 30
0.0
 10
171.498057
 20
218.130320
 30
0.0
 10
171.498057
 20
219.249286
 30
0.0
 10
172.523317
 20
218.846900
 30
0.0
 10
173.642285
 20
218.714608
 30
0.0
 10
175.152614
 20
219.216216
 30
0.0
 10
175.709340
 20
220.577718
 30
0.0
 10
175.152614
 20
221.939217
 30
0.0
 10
173.642285
 20
222.440825
 30
0.0
 10
172.749314
 20
222.341607
 30
0.0
 10
171.845323
 20
222.032926
 30
0.0
 10
171.845323
 20
226.167038
 30
0.0
  0
LWPOLYLINE
  5
188
100
AcDbEntity
  8
layout
 62
3
100
AcDbPolyline
 90
9
 70
0
 10
151.169703
 20
225.433924
 30
0.0
 10
149.874345
 20
224.585050
 30
0.0
 10
149.444400
 20
222.043950
 30
0.0
 10
149.874345
 20
219.502846
 30
0.0
 10
151.169703
 20
218.659487
 30
0.0
 10
152.465058
 20
219.502846
 30
0.0
 10
152.900518
 20
222.043950
 30
0.0
 10
152.465058
 20
224.585050
 30
0.0
 10
151.169703
 20
225.433924
 30
0.0
  0
LWPOLYLINE
  5
189
100
AcDbEntity
  8
layout
 62
3
100
AcDbPolyline
 90
9
 70
0
 10
151.169703
 20
226.315868
 30
0.0
 10
153.280858
 20
225.218950
 30
0.0
 10
154.013972
 20
222.043950
 30
0.0
 10
153.280858
 20
218.868950
 30
0.0
 10
151.169703
 20
217.777543
 30
0.0
 10
149.053036
 20
218.868950
 30
0.0
 10
148.325431
 20
222.043950
 30
0.0
 10
149.053036
 20
225.218950
 30
0.0
 10
151.169703
 20
226.315868
 30
0.0
  0
LWPOLYLINE
  5
18a
100
AcDbEntity
  8
layout
 62
3
100
AcDbPolyline
 90
4
 70
0
 10
144.659850
 20
225.196900
 30
0.0
 10
141.848651
 20
220.803716
 30
0.0
 10
144.659850
 20
220.803716
 30
0.0
 10
144.659850
 20
225.196900
 30
0.0
  0
LWPOLYLINE
  5
18b
100
AcDbEntity
  8
layout
 62
3
100
AcDbPolyline
 90
12
 70
0
 10
144.367704
 20
226.167038
 30
0.0
 10
145.767792
 20
226.167038
 30
0.0
 10
145.767792
 20
220.803716
 30
0.0
 10
146.941881
 20
220.803716
 30
0.0
 10
146.941881
 20
219.877674
 30
0.0
 10
145.767792
 20
219.877674
 30
0.0
 10
145.767792
 20
217.937396
 30
0.0
 10
144.659850
 20
217.937396
 30
0.0
 10
144.659850
 20
219.877674
 30
0.0
 10
140.944659
 20
219.877674
 30
0.0
 10
140.944659
 20
220.952543
 30
0.0
 10
144.367704
 20
226.167038
 30
0.0
  0
LWPOLYLINE
  5
18c
100
AcDbEntity
  8
layout
 62
3
100
AcDbPolyline
 90
9
 70
0
 10
120.621800
 20
225.433924
 30
0.0
 10
119.326443
 20
224.585050
 30
0.0
 10
118.896497
 20
222.043950
 30
0.0
 10
119.326443
 20
219.502846
 30
0.0
 10
120.621800
 20
218.659487
 30
0.0
 10
121.917155
 20
219.502846
 30
0.0
 10
122.352616
 20
222.043950
 30
0.0
 10
121.917155
 20
224.585050
 30
0.0
 10
120.621800
 20
225.433924
 30
0.0
  0
LWPOLYLINE
  5
18d
100
AcDbEntity
  8
layout
 62
3
100
AcDbPolyline
 90
9
 70
0
 10
120.621800
 20
226.315868
 30
0.0
 10
122.732955
 20
225.218950
 30
0.0
 10
123.466070
 20
222.043950
 30
0.0
 10
122.732955
 20
218.868950
 30
0.0
 10
120.621800
 20
217.777543
 30
0.0
 10
118.505134
 20
218.868950
 30
0.0
 10
117.777528
 20
222.043950
 30
0.0
 10
118.505134
 20
225.218950
 30
0.0
 10
120.621800
 20
226.315868
 30
0.0
  0
LWPOLYLINE
  5
18e
100
AcDbEntity
  8
layout
 62
3
100
AcDbPolyline
 90
30
 70
0
 10
114.426139
 20
222.374677
 30
0.0
 10
115.671885
 20
221.663610
 30
0.0
 10
116.123884
 20
220.329670
 30
0.0
 10
115.286036
 20
218.444513
 30
0.0
 10
112.904786
 20
217.777543
 30
0.0
 10
111.835427
 20
217.882272
 30
0.0
 10
110.705437
 20
218.185441
 30
0.0
 10
110.705437
 20
219.260313
 30
0.0
 10
111.719673
 20
218.852411
 30
0.0
 10
112.871713
 20
218.714608
 30
0.0
 10
114.464725
 20
219.128021
 30
0.0
 10
115.015941
 20
220.329670
 30
0.0
 10
114.503310
 20
221.465174
 30
0.0
 10
113.086687
 20
221.878584
 30
0.0
 10
112.127572
 20
221.878584
 30
0.0
 10
112.127572
 20
222.793602
 30
0.0
 10
113.130784
 20
222.793602
 30
0.0
 10
114.387554
 20
223.118818
 30
0.0
 10
114.823014
 20
224.066910
 30
0.0
 10
114.371018
 20
225.037049
 30
0.0
 10
113.086687
 20
225.378800
 30
0.0
 10
112.105525
 20
225.279582
 30
0.0
 10
110.953482
 20
224.970902
 30
0.0
 10
110.953482
 20
225.963091
 30
0.0
 10
112.138595
 20
226.227674
 30
0.0
 10
113.185905
 20
226.315868
 30
0.0
 10
115.192330
 20
225.737093
 30
0.0
 10
115.930957
 20
224.182663
 30
0.0
 10
115.539593
 20
223.025112
 30
0.0
 10
114.426139
 20
222.374677
 30
0.0
  0
LWPOLYLINE
  5
18f
100
AcDbEntity
  8
layout
 62
3
100
AcDbPolyline
 90
9
 70
0
 10
90.244792
 20
225.433924
 30
0.0
 10
88.949434
 20
224.585050
 30
0.0
 10
88.519485
 20
222.043950
 30
0.0
 10
88.949434
 20
219.502846
 30
0.0
 10
90.244792
 20
218.659487
 30
0.0
 10
91.540147
 20
219.502846
 30
0.0
 10
91.975607
 20
222.043950
 30
0.0
 10
91.540147
 20
224.585050
 30
0.0
 10
90.244792
 20
225.433924
 30
0.0
  0
LWPOLYLINE
  5
190
100
AcDbEntity
  8
layout
 62
3
100
AcDbPolyline
 90
9
 70
0
 10
90.244792
 20
226.315868
 30
0.0
 10
92.355944
 20
225.218950
 30
0.0
 10
93.089061
 20
222.043950
 30
0.0
 10
92.355944
 20
218.868950
 30
0.0
 10
90.244792
 20
217.777543
 30
0.0
 10
88.128125
 20
218.868950
 30
0.0
 10
87.400519
 20
222.043950
 30
0.0
 10
88.128125
 20
225.218950
 30
0.0
 10
90.244792
 20
226.315868
 30
0.0
  0
LWPOLYLINE
  5
191
100
AcDbEntity
  8
layout
 62
3
100
AcDbPolyline
 90
22
 70
0
 10
81.634807
 20
218.874461
 30
0.0
 10
85.520874
 20
218.874461
 30
0.0
 10
85.520874
 20
217.937396
 30
0.0
 10
80.295355
 20
217.937396
 30
0.0
 10
80.295355
 20
218.874461
 30
0.0
 10
82.020658
 20
220.632838
 30
0.0
 10
83.398696
 20
222.060485
 30
0.0
 10
84.142837
 20
223.074721
 30
0.0
 10
84.357811
 20
223.896033
 30
0.0
 10
83.894792
 20
224.965390
 30
0.0
 10
82.698652
 20
225.378800
 30
0.0
 10
81.590710
 20
225.196900
 30
0.0
 10
80.350476
 20
224.645686
 30
0.0
 10
80.350476
 20
225.770163
 30
0.0
 10
81.607248
 20
226.178065
 30
0.0
 10
82.676605
 20
226.315868
 30
0.0
 10
84.716101
 20
225.676457
 30
0.0
 10
85.476777
 20
223.967689
 30
0.0
 10
85.283853
 20
223.003065
 30
0.0
 10
84.594833
 20
221.933705
 30
0.0
 10
83.718403
 20
221.007663
 30
0.0
 10
81.634807
 20
218.874461
 30
0.0
  0
LWPOLYLINE
  5
192
100
AcDbEntity
  8
layout
 62
3
100
AcDbPolyline
 90
9
 70
0
 10
59.644534
 20
225.433924
 30
0.0
 10
58.349179
 20
224.585050
 30
0.0
 10
57.919231
 20
222.043950
 30
0.0
 10
58.349179
 20
219.502846
 30
0.0
 10
59.644534
 20
218.659487
 30
0.0
 10
60.939892
 20
219.502846
 30
0.0
 10
61.375352
 20
222.043950
 30
0.0
 10
60.939892
 20
224.585050
 30
0.0
 10
59.644534
 20
225.433924
 30
0.0
  0
LWPOLYLINE
  5
193
100
AcDbEntity
  8
layout
 62
3
100
AcDbPolyline
 90
9
 70
0
 10
59.644534
 20
226.315868
 30
0.0
 10
61.755689
 20
225.218950
 30
0.0
 10
62.488806
 20
222.043950
 30
0.0
 10
61.755689
 20
218.868950
 30
0.0
 10
59.644534
 20
217.777543
 30
0.0
 10
57.527867
 20
218.868950
 30
0.0
 10
56.800265
 20
222.043950
 30
0.0
 10
57.527867
 20
225.218950
 30
0.0
 10
59.644534
 20
226.315868
 30
0.0
  0
LWPOLYLINE
  5
194
100
AcDbEntity
  8
layout
 62
3
100
AcDbPolyline
 90
12
 70
0
 10
50.268364
 20
218.874461
 30
0.0
 10
52.087374
 20
218.874461
 30
0.0
 10
52.087374
 20
225.152802
 30
0.0
 10
50.108510
 20
224.755927
 30
0.0
 10
50.108510
 20
225.770163
 30
0.0
 10
52.076350
 20
226.167038
 30
0.0
 10
53.189804
 20
226.167038
 30
0.0
 10
53.189804
 20
218.874461
 30
0.0
 10
55.008814
 20
218.874461
 30
0.0
 10
55.008814
 20
217.937396
 30
0.0
 10
50.268364
 20
217.937396
 30
0.0
 10
50.268364
 20
218.874461
 30
0.0
  0
LWPOLYLINE
  5
195
100
AcDbEntity
  8
layout
 62
3
100
AcDbPolyline
 90
14
 70
0
 10
25.018527
 20
152.035318
 30
0.0
 10
21.678162
 20
152.035318
 30
0.0
 10
21.678162
 20
153.049554
 30
0.0
 10
30.255072
 20
153.049554
 30
0.0
 10
30.255072
 20
152.035318
 30
0.0
 10
29.329030
 20
152.035318
 30
0.0
 10
30.150342
 20
151.225033
 30
0.0
 10
30.414925
 20
150.056458
 30
0.0
 10
29.521954
 20
148.231933
 30
0.0
 10
27.173779
 20
147.531890
 30
0.0
 10
24.825601
 20
148.231933
 30
0.0
 10
23.932633
 20
150.056458
 30
0.0
 10
24.202728
 20
151.225033
 30
0.0
 10
25.018527
 20
152.035318
 30
0.0
  0
LWPOLYLINE
  5
196
100
AcDbEntity
  8
layout
 62
3
100
AcDbPolyline
 90
9
 70
0
 10
27.173779
 20
148.579199
 30
0.0
 10
28.932155
 20
149.036707
 30
0.0
 10
29.566052
 20
150.304503
 30
0.0
 10
28.932155
 20
151.572299
 30
0.0
 10
27.173779
 20
152.035318
 30
0.0
 10
25.420914
 20
151.572299
 30
0.0
 10
24.781504
 20
150.304503
 30
0.0
 10
25.420914
 20
149.036707
 30
0.0
 10
27.173779
 20
148.579199
 30
0.0
  0
LWPOLYLINE
  5
197
100
AcDbEntity
  8
layout
 62
3
100
AcDbPolyline
 90
16
 70
0
 10
26.914707
 20
146.308194
 30
0.0
 10
27.410801
 20
146.308194
 30
0.0
 10
27.410801
 20
141.644912
 30
0.0
 10
29.009326
 20
142.273297
 30
0.0
 10
29.555028
 20
143.849773
 30
0.0
 10
29.411713
 20
144.979763
 30
0.0
 10
28.981764
 20
146.071169
 30
0.0
 10
29.940879
 20
146.071169
 30
0.0
 10
30.293657
 20
144.952204
 30
0.0
 10
30.414925
 20
143.789138
 30
0.0
 10
29.555028
 20
141.446473
 30
0.0
 10
27.228900
 20
140.586579
 30
0.0
 10
24.825601
 20
141.402376
 30
0.0
 10
23.932633
 20
143.612749
 30
0.0
 10
24.737407
 20
145.580588
 30
0.0
 10
26.914707
 20
146.308194
 30
0.0
  0
LWPOLYLINE
  5
198
100
AcDbEntity
  8
layout
 62
3
100
AcDbPolyline
 90
6
 70
0
 10
26.617051
 20
145.293958
 30
0.0
 10
25.288622
 20
144.825424
 30
0.0
 10
24.792529
 20
143.623775
 30
0.0
 10
25.272086
 20
142.262273
 30
0.0
 10
26.622563
 20
141.677985
 30
0.0
 10
26.617051
 20
145.293958
 30
0.0
  0
LWPOLYLINE
  5
199
100
AcDbEntity
  8
layout
 62
3
100
AcDbPolyline
 90
16
 70
0
 10
26.914707
 20
139.362880
 30
0.0
 10
27.410801
 20
139.362880
 30
0.0
 10
27.410801
 20
134.699598
 30
0.0
 10
29.009326
 20
135.327985
 30
0.0
 10
29.555028
 20
136.904459
 30
0.0
 10
29.411713
 20
138.034451
 30
0.0
 10
28.981764
 20
139.125858
 30
0.0
 10
29.940879
 20
139.125858
 30
0.0
 10
30.293657
 20
138.006890
 30
0.0
 10
30.414925
 20
136.843826
 30
0.0
 10
29.555028
 20
134.501162
 30
0.0
 10
27.228900
 20
133.641265
 30
0.0
 10
24.825601
 20
134.457065
 30
0.0
 10
23.932633
 20
136.667438
 30
0.0
 10
24.737407
 20
138.635277
 30
0.0
 10
26.914707
 20
139.362880
 30
0.0
  0
LWPOLYLINE
  5
19a
100
AcDbEntity
  8
layout
 62
3
100
AcDbPolyline
 90
6
 70
0
 10
26.617051
 20
138.348644
 30
0.0
 10
25.288622
 20
137.880110
 30
0.0
 10
24.792529
 20
136.678461
 30
0.0
 10
25.272086
 20
135.316959
 30
0.0
 10
26.622563
 20
134.732672
 30
0.0
 10
26.617051
 20
138.348644
 30
0.0
  0
LWPOLYLINE
  5
19b
100
AcDbEntity
  8
layout
 62
3
100
AcDbPolyline
 90
14
 70
0
 10
29.329030
 20
127.897602
 30
0.0
 10
32.603248
 20
127.897602
 30
0.0
 10
32.603248
 20
126.877854
 30
0.0
 10
24.081461
 20
126.877854
 30
0.0
 10
24.081461
 20
127.897602
 30
0.0
 10
25.018527
 20
127.897602
 30
0.0
 10
24.202728
 20
128.702376
 30
0.0
 10
23.932633
 20
129.870954
 30
0.0
 10
24.825601
 20
131.695475
 30
0.0
 10
27.173779
 20
132.401031
 30
0.0
 10
29.521954
 20
131.695475
 30
0.0
 10
30.414925
 20
129.870954
 30
0.0
 10
30.150342
 20
128.702376
 30
0.0
 10
29.329030
 20
127.897602
 30
0.0
  0
LWPOLYLINE
  5
19c
100
AcDbEntity
  8
layout
 62
3
100
AcDbPolyline
 90
9
 70
0
 10
27.173779
 20
131.348209
 30
0.0
 10
25.420914
 20
130.885190
 30
0.0
 10
24.781504
 20
129.622906
 30
0.0
 10
25.420914
 20
128.355110
 30
0.0
 10
27.173779
 20
127.897602
 30
0.0
 10
28.932155
 20
128.355110
 30
0.0
 10
29.566052
 20
129.622906
 30
0.0
 10
28.932155
 20
130.885190
 30
0.0
 10
27.173779
 20
131.348209
 30
0.0
  0
LWPOLYLINE
  5
19d
100
AcDbEntity
  8
layout
 62
3
100
AcDbPolyline
 90
29
 70
0
 10
22.295523
 20
124.728114
 30
0.0
 10
23.381417
 20
124.728114
 30
0.0
 10
22.929421
 20
123.531977
 30
0.0
 10
22.780593
 20
122.446082
 30
0.0
 10
23.133371
 20
121.040485
 30
0.0
 10
24.136582
 20
120.549901
 30
0.0
 10
24.963405
 20
120.875120
 30
0.0
 10
25.409890
 20
122.120866
 30
0.0
 10
25.547693
 20
122.793348
 30
0.0
 10
26.385541
 20
124.628896
 30
0.0
 10
27.984065
 20
125.224207
 30
0.0
 10
29.797564
 20
124.419433
 30
0.0
 10
30.414925
 20
122.071257
 30
0.0
 10
30.282634
 20
120.825511
 30
0.0
 10
29.891270
 20
119.464009
 30
0.0
 10
28.744743
 20
119.464009
 30
0.0
 10
29.318006
 20
120.792438
 30
0.0
 10
29.510931
 20
122.071257
 30
0.0
 10
29.136106
 20
123.543001
 30
0.0
 10
28.066747
 20
124.061144
 30
0.0
 10
27.118657
 20
123.686319
 30
0.0
 10
26.606027
 20
122.468132
 30
0.0
 10
26.473735
 20
121.790138
 30
0.0
 10
25.696522
 20
119.987664
 30
0.0
 10
24.224777
 20
119.430935
 30
0.0
 10
22.504985
 20
120.197124
 30
0.0
 10
21.876600
 20
122.319305
 30
0.0
 10
21.981330
 20
123.498904
 30
0.0
 10
22.295523
 20
124.728114
 30
0.0
  0
LWPOLYLINE
  5
19e
100
AcDbEntity
  8
layout
 62
3
100
AcDbPolyline
 90
29
 70
0
 10
47.656812
 20
27.296051
 30
0.0
 10
47.656812
 20
26.663328
 30
0.0
 10
47.067724
 20
26.881509
 30
0.0
 10
46.435002
 20
26.954234
 30
0.0
 10
45.685916
 20
26.801507
 30
0.0
 10
45.438644
 20
26.343328
 30
0.0
 10
45.616825
 20
25.976058
 30
0.0
 10
46.333184
 20
25.725151
 30
0.0
 10
46.562272
 20
25.674241
 30
0.0
 10
47.573176
 20
25.241518
 30
0.0
 10
47.874992
 20
24.466976
 30
0.0
 10
47.424086
 20
23.568801
 30
0.0
 10
46.191368
 20
23.237893
 30
0.0
 10
45.507735
 20
23.303349
 30
0.0
 10
44.762285
 20
23.492437
 30
0.0
 10
44.762285
 20
24.183343
 30
0.0
 10
45.493189
 20
23.892434
 30
0.0
 10
46.205910
 20
23.797889
 30
0.0
 10
46.933180
 20
23.957890
 30
0.0
 10
47.187725
 20
24.416069
 30
0.0
 10
47.002271
 20
24.834246
 30
0.0
 10
46.198638
 20
25.114244
 30
0.0
 10
45.965914
 20
25.168789
 30
0.0
 10
45.067736
 20
25.568789
 30
0.0
 10
44.791376
 20
26.314239
 30
0.0
 10
45.198645
 20
27.201506
 30
0.0
 10
46.355003
 20
27.514231
 30
0.0
 10
47.053178
 20
27.459686
 30
0.0
 10
47.656812
 20
27.296051
 30
0.0
  0
LWPOLYLINE
  5
19f
100
AcDbEntity
  8
layout
 62
3
100
AcDbPolyline
 90
5
 70
0
 10
43.733201
 20
28.772406
 30
0.0
 10
44.351377
 20
28.772406
 30
0.0
 10
42.460480
 20
22.652442
 30
0.0
 10
41.842301
 20
22.652442
 30
0.0
 10
43.733201
 20
28.772406
 30
0.0
  0
LWPOLYLINE
  5
1a0
100
AcDbEntity
  8
layout
 62
3
100
AcDbPolyline
 90
28
 70
0
 10
38.456867
 20
26.634237
 30
0.0
 10
39.056863
 20
27.299686
 30
0.0
 10
39.878677
 20
27.514231
 30
0.0
 10
40.860489
 20
27.066960
 30
0.0
 10
41.205943
 20
25.801515
 30
0.0
 10
41.205943
 20
23.343348
 30
0.0
 10
40.533218
 20
23.343348
 30
0.0
 10
40.533218
 20
25.779696
 30
0.0
 10
40.325949
 20
26.648783
 30
0.0
 10
39.693223
 20
26.932416
 30
0.0
 10
38.871412
 20
26.586965
 30
0.0
 10
38.569595
 20
25.645152
 30
0.0
 10
38.569595
 20
23.343348
 30
0.0
 10
37.896871
 20
23.343348
 30
0.0
 10
37.896871
 20
25.779696
 30
0.0
 10
37.689601
 20
26.648783
 30
0.0
 10
37.049603
 20
26.932416
 30
0.0
 10
36.235064
 20
26.583327
 30
0.0
 10
35.933247
 20
25.645152
 30
0.0
 10
35.933247
 20
23.343348
 30
0.0
 10
35.260523
 20
23.343348
 30
0.0
 10
35.260523
 20
27.416049
 30
0.0
 10
35.933247
 20
27.416049
 30
0.0
 10
35.933247
 20
26.783326
 30
0.0
 10
36.482333
 20
27.336050
 30
0.0
 10
37.242329
 20
27.514231
 30
0.0
 10
37.995053
 20
27.288778
 30
0.0
 10
38.456867
 20
26.634237
 30
0.0
  0
LWPOLYLINE
  5
1a1
100
AcDbEntity
  8
layout
 62
3
100
AcDbPolyline
 90
28
 70
0
 10
31.198730
 20
26.634237
 30
0.0
 10
31.798726
 20
27.299686
 30
0.0
 10
32.620540
 20
27.514231
 30
0.0
 10
33.602351
 20
27.066960
 30
0.0
 10
33.947806
 20
25.801515
 30
0.0
 10
33.947806
 20
23.343348
 30
0.0
 10
33.275081
 20
23.343348
 30
0.0
 10
33.275081
 20
25.779696
 30
0.0
 10
33.067808
 20
26.648783
 30
0.0
 10
32.435086
 20
26.932416
 30
0.0
 10
31.613272
 20
26.586965
 30
0.0
 10
31.311458
 20
25.645152
 30
0.0
 10
31.311458
 20
23.343348
 30
0.0
 10
30.638733
 20
23.343348
 30
0.0
 10
30.638733
 20
25.779696
 30
0.0
 10
30.431461
 20
26.648783
 30
0.0
 10
29.791465
 20
26.932416
 30
0.0
 10
28.976924
 20
26.583327
 30
0.0
 10
28.675110
 20
25.645152
 30
0.0
 10
28.675110
 20
23.343348
 30
0.0
 10
28.002386
 20
23.343348
 30
0.0
 10
28.002386
 20
27.416049
 30
0.0
 10
28.675110
 20
27.416049
 30
0.0
 10
28.675110
 20
26.783326
 30
0.0
 10
29.224196
 20
27.336050
 30
0.0
 10
29.984192
 20
27.514231
 30
0.0
 10
30.736915
 20
27.288778
 30
0.0
 10
31.198730
 20
26.634237
 30
0.0
  0
LWPOLYLINE
  5
1a2
100
AcDbEntity
  8
layout
 62
3
100
AcDbPolyline
 90
22
 70
0
 10
43.986566
 20
34.873116
 30
0.0
 10
47.872633
 20
34.873116
 30
0.0
 10
47.872633
 20
33.936051
 30
0.0
 10
42.647114
 20
33.936051
 30
0.0
 10
42.647114
 20
34.873116
 30
0.0
 10
44.372417
 20
36.631493
 30
0.0
 10
45.750455
 20
38.059140
 30
0.0
 10
46.494596
 20
39.073376
 30
0.0
 10
46.709570
 20
39.894688
 30
0.0
 10
46.246548
 20
40.964045
 30
0.0
 10
45.050411
 20
41.377458
 30
0.0
 10
43.942468
 20
41.195557
 30
0.0
 10
42.702234
 20
40.644341
 30
0.0
 10
42.702234
 20
41.768821
 30
0.0
 10
43.959004
 20
42.176720
 30
0.0
 10
45.028364
 20
42.314523
 30
0.0
 10
47.067859
 20
41.675112
 30
0.0
 10
47.828536
 20
39.966347
 30
0.0
 10
47.635612
 20
39.001720
 30
0.0
 10
46.946591
 20
37.932363
 30
0.0
 10
46.070159
 20
37.006321
 30
0.0
 10
43.986566
 20
34.873116
 30
0.0
  0
LWPOLYLINE
  5
1a3
100
AcDbEntity
  8
layout
 62
3
100
AcDbPolyline
 90
12
 70
0
 10
36.032530
 20
34.873116
 30
0.0
 10
37.851540
 20
34.873116
 30
0.0
 10
37.851540
 20
41.151460
 30
0.0
 10
35.872677
 20
40.754585
 30
0.0
 10
35.872677
 20
41.768821
 30
0.0
 10
37.840516
 20
42.165696
 30
0.0
 10
38.953971
 20
42.165696
 30
0.0
 10
38.953971
 20
34.873116
 30
0.0
 10
40.772980
 20
34.873116
 30
0.0
 10
40.772980
 20
33.936051
 30
0.0
 10
36.032530
 20
33.936051
 30
0.0
 10
36.032530
 20
34.873116
 30
0.0
  0
LWPOLYLINE
  5
1a4
100
AcDbEntity
  8
layout
 62
3
100
AcDbPolyline
 90
23
 70
0
 10
28.662782
 20
42.165696
 30
0.0
 10
33.033919
 20
42.165696
 30
0.0
 10
33.033919
 20
41.228628
 30
0.0
 10
29.682530
 20
41.228628
 30
0.0
 10
29.682530
 20
39.211182
 30
0.0
 10
30.167600
 20
39.332448
 30
0.0
 10
30.652669
 20
39.376545
 30
0.0
 10
32.835480
 20
38.621380
 30
0.0
 10
33.640254
 20
36.576373
 30
0.0
 10
32.813433
 20
34.509315
 30
0.0
 10
30.481792
 20
33.776198
 30
0.0
 10
29.423459
 20
33.864392
 30
0.0
 10
28.315516
 20
34.128975
 30
0.0
 10
28.315516
 20
35.247944
 30
0.0
 10
29.340776
 20
34.845557
 30
0.0
 10
30.459742
 20
34.713266
 30
0.0
 10
31.970074
 20
35.214870
 30
0.0
 10
32.526800
 20
36.576373
 30
0.0
 10
31.970074
 20
37.937875
 30
0.0
 10
30.459742
 20
38.439479
 30
0.0
 10
29.566774
 20
38.340261
 30
0.0
 10
28.662782
 20
38.031581
 30
0.0
 10
28.662782
 20
42.165696
 30
0.0
  0
LWPOLYLINE
  5
1a5
100
AcDbEntity
  8
layout
 62
3
100
AcDbPolyline
 90
4
 70
0
 10
46.086697
 20
55.306668
 30
0.0
 10
43.275498
 20
50.913482
 30
0.0
 10
46.086697
 20
50.913482
 30
0.0
 10
46.086697
 20
55.306668
 30
0.0
  0
LWPOLYLINE
  5
1a6
100
AcDbEntity
  8
layout
 62
3
100
AcDbPolyline
 90
12
 70
0
 10
45.794552
 20
56.276807
 30
0.0
 10
47.194639
 20
56.276807
 30
0.0
 10
47.194639
 20
50.913482
 30
0.0
 10
48.368726
 20
50.913482
 30
0.0
 10
48.368726
 20
49.987440
 30
0.0
 10
47.194639
 20
49.987440
 30
0.0
 10
47.194639
 20
48.047162
 30
0.0
 10
46.086697
 20
48.047162
 30
0.0
 10
46.086697
 20
49.987440
 30
0.0
 10
42.371504
 20
49.987440
 30
0.0
 10
42.371504
 20
51.062309
 30
0.0
 10
45.794552
 20
56.276807
 30
0.0
  0
LWPOLYLINE
  5
1a7
100
AcDbEntity
  8
layout
 62
3
100
AcDbPolyline
 90
9
 70
0
 10
38.220853
 20
51.955279
 30
0.0
 10
36.969596
 20
51.530843
 30
0.0
 10
36.517600
 20
50.362265
 30
0.0
 10
36.969596
 20
49.193690
 30
0.0
 10
38.220853
 20
48.769253
 30
0.0
 10
39.472114
 20
49.193690
 30
0.0
 10
39.929621
 20
50.362265
 30
0.0
 10
39.472114
 20
51.530843
 30
0.0
 10
38.220853
 20
51.955279
 30
0.0
  0
LWPOLYLINE
  5
1a8
100
AcDbEntity
  8
layout
 62
3
100
AcDbPolyline
 90
17
 70
0
 10
37.107399
 20
52.429323
 30
0.0
 10
35.988433
 20
53.096293
 30
0.0
 10
35.591558
 20
54.292432
 30
0.0
 10
36.291602
 20
55.852370
 30
0.0
 10
38.220853
 20
56.425634
 30
0.0
 10
40.150107
 20
55.852370
 30
0.0
 10
40.850151
 20
54.292432
 30
0.0
 10
40.447764
 20
53.096293
 30
0.0
 10
39.339822
 20
52.429323
 30
0.0
 10
40.591080
 20
51.696208
 30
0.0
 10
41.043075
 20
50.362265
 30
0.0
 10
40.309961
 20
48.526720
 30
0.0
 10
38.220853
 20
47.887309
 30
0.0
 10
36.126237
 20
48.526720
 30
0.0
 10
35.398631
 20
50.362265
 30
0.0
 10
35.850630
 20
51.696208
 30
0.0
 10
37.107399
 20
52.429323
 30
0.0
  0
LWPOLYLINE
  5
1a9
100
AcDbEntity
  8
layout
 62
3
100
AcDbPolyline
 90
9
 70
0
 10
36.699500
 20
54.187700
 30
0.0
 10
37.096375
 20
53.190002
 30
0.0
 10
38.220853
 20
52.831709
 30
0.0
 10
39.339822
 20
53.190002
 30
0.0
 10
39.747721
 20
54.187700
 30
0.0
 10
39.339822
 20
55.185400
 30
0.0
 10
38.220853
 20
55.543690
 30
0.0
 10
37.096375
 20
55.185400
 30
0.0
 10
36.699500
 20
54.187700
 30
0.0
  0
LWPOLYLINE
  5
1aa
100
AcDbEntity
  8
layout
 62
3
100
AcDbPolyline
 90
30
 70
0
 10
32.025195
 20
52.484446
 30
0.0
 10
33.270941
 20
51.773376
 30
0.0
 10
33.722937
 20
50.439436
 30
0.0
 10
32.885089
 20
48.554279
 30
0.0
 10
30.503839
 20
47.887309
 30
0.0
 10
29.434482
 20
47.992041
 30
0.0
 10
28.304490
 20
48.295210
 30
0.0
 10
28.304490
 20
49.370079
 30
0.0
 10
29.318726
 20
48.962180
 30
0.0
 10
30.470769
 20
48.824377
 30
0.0
 10
32.063780
 20
49.237787
 30
0.0
 10
32.614994
 20
50.439436
 30
0.0
 10
32.102366
 20
51.574940
 30
0.0
 10
30.685740
 20
51.988350
 30
0.0
 10
29.726628
 20
51.988350
 30
0.0
 10
29.726628
 20
52.903368
 30
0.0
 10
30.729837
 20
52.903368
 30
0.0
 10
31.986609
 20
53.228584
 30
0.0
 10
32.422070
 20
54.176676
 30
0.0
 10
31.970074
 20
55.146815
 30
0.0
 10
30.685740
 20
55.488569
 30
0.0
 10
29.704578
 20
55.389348
 30
0.0
 10
28.552538
 20
55.080668
 30
0.0
 10
28.552538
 20
56.072857
 30
0.0
 10
29.737651
 20
56.337440
 30
0.0
 10
30.784961
 20
56.425634
 30
0.0
 10
32.791383
 20
55.846859
 30
0.0
 10
33.530012
 20
54.292432
 30
0.0
 10
33.138649
 20
53.134878
 30
0.0
 10
32.025195
 20
52.484446
 30
0.0
  0
LWPOLYLINE
  5
1ab
100
AcDbEntity
  8
layout
 62
3
100
AcDbPolyline
 90
9
 70
0
 10
45.546504
 20
66.716823
 30
0.0
 10
44.355879
 20
66.204194
 30
0.0
 10
43.920421
 20
64.798595
 30
0.0
 10
44.355879
 20
63.392995
 30
0.0
 10
45.546504
 20
62.880364
 30
0.0
 10
46.731617
 20
63.392995
 30
0.0
 10
47.172589
 20
64.798595
 30
0.0
 10
46.731617
 20
66.204194
 30
0.0
 10
45.546504
 20
66.716823
 30
0.0
  0
LWPOLYLINE
  5
1ac
100
AcDbEntity
  8
layout
 62
3
100
AcDbPolyline
 90
18
 70
0
 10
47.756880
 20
70.206015
 30
0.0
 10
47.756880
 20
69.191779
 30
0.0
 10
46.908006
 20
69.494948
 30
0.0
 10
46.064647
 20
69.599680
 30
0.0
 10
44.377929
 20
68.855539
 30
0.0
 10
43.716471
 20
66.606581
 30
0.0
 10
44.532268
 20
67.339695
 30
0.0
 10
45.612651
 20
67.598767
 30
0.0
 10
47.569464
 20
66.843602
 30
0.0
 10
48.291558
 20
64.798595
 30
0.0
 10
47.541905
 20
62.764611
 30
0.0
 10
45.546504
 20
61.998420
 30
0.0
 10
43.363693
 20
63.089827
 30
0.0
 10
42.608528
 20
66.264827
 30
0.0
 10
43.534570
 20
69.373682
 30
0.0
 10
46.020550
 20
70.536745
 30
0.0
 10
46.863909
 20
70.454063
 30
0.0
 10
47.756880
 20
70.206015
 30
0.0
  0
LWPOLYLINE
  5
1ad
100
AcDbEntity
  8
layout
 62
3
100
AcDbPolyline
 90
23
 70
0
 10
35.850630
 20
70.387918
 30
0.0
 10
40.221766
 20
70.387918
 30
0.0
 10
40.221766
 20
69.450850
 30
0.0
 10
36.870378
 20
69.450850
 30
0.0
 10
36.870378
 20
67.433404
 30
0.0
 10
37.355447
 20
67.554670
 30
0.0
 10
37.840516
 20
67.598767
 30
0.0
 10
40.023328
 20
66.843602
 30
0.0
 10
40.828101
 20
64.798595
 30
0.0
 10
40.001280
 20
62.731537
 30
0.0
 10
37.669639
 20
61.998420
 30
0.0
 10
36.611306
 20
62.086614
 30
0.0
 10
35.503364
 20
62.351198
 30
0.0
 10
35.503364
 20
63.470166
 30
0.0
 10
36.528623
 20
63.067779
 30
0.0
 10
37.647589
 20
62.935488
 30
0.0
 10
39.157921
 20
63.437093
 30
0.0
 10
39.714647
 20
64.798595
 30
0.0
 10
39.157921
 20
66.160097
 30
0.0
 10
37.647589
 20
66.661702
 30
0.0
 10
36.754621
 20
66.562484
 30
0.0
 10
35.850630
 20
66.253803
 30
0.0
 10
35.850630
 20
70.387918
 30
0.0
  0
LWPOLYLINE
  5
1ae
100
AcDbEntity
  8
layout
 62
3
100
AcDbPolyline
 90
22
 70
0
 10
29.610871
 20
63.095338
 30
0.0
 10
33.496939
 20
63.095338
 30
0.0
 10
33.496939
 20
62.158273
 30
0.0
 10
28.271419
 20
62.158273
 30
0.0
 10
28.271419
 20
63.095338
 30
0.0
 10
29.996723
 20
64.853716
 30
0.0
 10
31.374760
 20
66.281362
 30
0.0
 10
32.118901
 20
67.295598
 30
0.0
 10
32.333875
 20
68.116910
 30
0.0
 10
31.870853
 20
69.186267
 30
0.0
 10
30.674716
 20
69.599680
 30
0.0
 10
29.566774
 20
69.417779
 30
0.0
 10
28.326540
 20
68.866563
 30
0.0
 10
28.326540
 20
69.991043
 30
0.0
 10
29.583309
 20
70.398942
 30
0.0
 10
30.652669
 20
70.536745
 30
0.0
 10
32.692165
 20
69.897334
 30
0.0
 10
33.452841
 20
68.188569
 30
0.0
 10
33.259917
 20
67.223942
 30
0.0
 10
32.570897
 20
66.154585
 30
0.0
 10
31.694464
 20
65.228543
 30
0.0
 10
29.610871
 20
63.095338
 30
0.0
  0
LWPOLYLINE
  5
1af
100
AcDbEntity
  8
layout
 62
3
100
AcDbPolyline
 90
22
 70
0
 10
43.986566
 20
77.206450
 30
0.0
 10
47.872633
 20
77.206450
 30
0.0
 10
47.872633
 20
76.269384
 30
0.0
 10
42.647114
 20
76.269384
 30
0.0
 10
42.647114
 20
77.206450
 30
0.0
 10
44.372417
 20
78.964827
 30
0.0
 10
45.750455
 20
80.392473
 30
0.0
 10
46.494596
 20
81.406709
 30
0.0
 10
46.709570
 20
82.228021
 30
0.0
 10
46.246548
 20
83.297378
 30
0.0
 10
45.050411
 20
83.710791
 30
0.0
 10
43.942468
 20
83.528891
 30
0.0
 10
42.702234
 20
82.977674
 30
0.0
 10
42.702234
 20
84.102154
 30
0.0
 10
43.959004
 20
84.510053
 30
0.0
 10
45.028364
 20
84.647857
 30
0.0
 10
47.067859
 20
84.008445
 30
0.0
 10
47.828536
 20
82.299680
 30
0.0
 10
47.635612
 20
81.335053
 30
0.0
 10
46.946591
 20
80.265696
 30
0.0
 10
46.070159
 20
79.339654
 30
0.0
 10
43.986566
 20
77.206450
 30
0.0
  0
LWPOLYLINE
  5
1b0
100
AcDbEntity
  8
layout
 62
3
100
AcDbPolyline
 90
18
 70
0
 10
35.872677
 20
76.440261
 30
0.0
 10
35.872677
 20
77.454498
 30
0.0
 10
36.721548
 20
77.151329
 30
0.0
 10
37.564907
 20
77.046599
 30
0.0
 10
39.246116
 20
77.785225
 30
0.0
 10
39.913086
 20
80.039695
 30
0.0
 10
39.102798
 20
79.312093
 30
0.0
 10
38.016905
 20
79.058533
 30
0.0
 10
36.060089
 20
79.802674
 30
0.0
 10
35.343510
 20
81.847682
 30
0.0
 10
36.093163
 20
83.881668
 30
0.0
 10
38.088562
 20
84.647857
 30
0.0
 10
40.265864
 20
83.550938
 30
0.0
 10
41.021028
 20
80.375938
 30
0.0
 10
40.094987
 20
77.267085
 30
0.0
 10
37.614519
 20
76.109531
 30
0.0
 10
36.765645
 20
76.192213
 30
0.0
 10
35.872677
 20
76.440261
 30
0.0
  0
LWPOLYLINE
  5
1b1
100
AcDbEntity
  8
layout
 62
3
100
AcDbPolyline
 90
9
 70
0
 10
38.088562
 20
79.929454
 30
0.0
 10
39.273675
 20
80.442085
 30
0.0
 10
39.714647
 20
81.847682
 30
0.0
 10
39.273675
 20
83.247769
 30
0.0
 10
38.088562
 20
83.765912
 30
0.0
 10
36.897937
 20
83.247769
 30
0.0
 10
36.462476
 20
81.847682
 30
0.0
 10
36.897937
 20
80.442085
 30
0.0
 10
38.088562
 20
79.929454
 30
0.0
  0
LWPOLYLINE
  5
1b2
100
AcDbEntity
  8
layout
 62
3
100
AcDbPolyline
 90
12
 70
0
 10
28.844683
 20
77.206450
 30
0.0
 10
30.663693
 20
77.206450
 30
0.0
 10
30.663693
 20
83.484793
 30
0.0
 10
28.684830
 20
83.087918
 30
0.0
 10
28.684830
 20
84.102154
 30
0.0
 10
30.652669
 20
84.499029
 30
0.0
 10
31.766123
 20
84.499029
 30
0.0
 10
31.766123
 20
77.206450
 30
0.0
 10
33.585133
 20
77.206450
 30
0.0
 10
33.585133
 20
76.269384
 30
0.0
 10
28.844683
 20
76.269384
 30
0.0
 10
28.844683
 20
77.206450
 30
0.0
  0
LWPOLYLINE
  5
1b3
100
AcDbEntity
  8
layout
 62
3
100
AcDbPolyline
 90
9
 70
0
 10
45.408700
 20
94.288613
 30
0.0
 10
44.157443
 20
93.864176
 30
0.0
 10
43.705447
 20
92.695598
 30
0.0
 10
44.157443
 20
91.527023
 30
0.0
 10
45.408700
 20
91.102586
 30
0.0
 10
46.659961
 20
91.527023
 30
0.0
 10
47.117468
 20
92.695598
 30
0.0
 10
46.659961
 20
93.864176
 30
0.0
 10
45.408700
 20
94.288613
 30
0.0
  0
LWPOLYLINE
  5
1b4
100
AcDbEntity
  8
layout
 62
3
100
AcDbPolyline
 90
17
 70
0
 10
44.295246
 20
94.762656
 30
0.0
 10
43.176280
 20
95.429626
 30
0.0
 10
42.779405
 20
96.625766
 30
0.0
 10
43.479449
 20
98.185704
 30
0.0
 10
45.408700
 20
98.758968
 30
0.0
 10
47.337955
 20
98.185704
 30
0.0
 10
48.037998
 20
96.625766
 30
0.0
 10
47.635612
 20
95.429626
 30
0.0
 10
46.527669
 20
94.762656
 30
0.0
 10
47.778927
 20
94.029541
 30
0.0
 10
48.230923
 20
92.695598
 30
0.0
 10
47.497808
 20
90.860053
 30
0.0
 10
45.408700
 20
90.220642
 30
0.0
 10
43.314084
 20
90.860053
 30
0.0
 10
42.586478
 20
92.695598
 30
0.0
 10
43.038477
 20
94.029541
 30
0.0
 10
44.295246
 20
94.762656
 30
0.0
  0
LWPOLYLINE
  5
1b5
100
AcDbEntity
  8
layout
 62
3
100
AcDbPolyline
 90
9
 70
0
 10
43.887348
 20
96.521033
 30
0.0
 10
44.284223
 20
95.523335
 30
0.0
 10
45.408700
 20
95.165043
 30
0.0
 10
46.527669
 20
95.523335
 30
0.0
 10
46.935568
 20
96.521033
 30
0.0
 10
46.527669
 20
97.518734
 30
0.0
 10
45.408700
 20
97.877023
 30
0.0
 10
44.284223
 20
97.518734
 30
0.0
 10
43.887348
 20
96.521033
 30
0.0
  0
LWPOLYLINE
  5
1b6
100
AcDbEntity
  8
layout
 62
3
100
AcDbPolyline
 90
22
 70
0
 10
36.798718
 20
91.317561
 30
0.0
 10
40.684786
 20
91.317561
 30
0.0
 10
40.684786
 20
90.380495
 30
0.0
 10
35.459266
 20
90.380495
 30
0.0
 10
35.459266
 20
91.317561
 30
0.0
 10
37.184570
 20
93.075938
 30
0.0
 10
38.562607
 20
94.503584
 30
0.0
 10
39.306748
 20
95.517820
 30
0.0
 10
39.521723
 20
96.339132
 30
0.0
 10
39.058700
 20
97.408489
 30
0.0
 10
37.862564
 20
97.821902
 30
0.0
 10
36.754621
 20
97.640002
 30
0.0
 10
35.514387
 20
97.088785
 30
0.0
 10
35.514387
 20
98.213266
 30
0.0
 10
36.771157
 20
98.621164
 30
0.0
 10
37.840516
 20
98.758968
 30
0.0
 10
39.880012
 20
98.119557
 30
0.0
 10
40.640689
 20
96.410791
 30
0.0
 10
40.447764
 20
95.446164
 30
0.0
 10
39.758744
 20
94.376807
 30
0.0
 10
38.882312
 20
93.450766
 30
0.0
 10
36.798718
 20
91.317561
 30
0.0
  0
LWPOLYLINE
  5
1b7
100
AcDbEntity
  8
layout
 62
3
100
AcDbPolyline
 90
12
 70
0
 10
28.844683
 20
91.317561
 30
0.0
 10
30.663693
 20
91.317561
 30
0.0
 10
30.663693
 20
97.595904
 30
0.0
 10
28.684830
 20
97.199029
 30
0.0
 10
28.684830
 20
98.213266
 30
0.0
 10
30.652669
 20
98.610141
 30
0.0
 10
31.766123
 20
98.610141
 30
0.0
 10
31.766123
 20
91.317561
 30
0.0
 10
33.585133
 20
91.317561
 30
0.0
 10
33.585133
 20
90.380495
 30
0.0
 10
28.844683
 20
90.380495
 30
0.0
 10
28.844683
 20
91.317561
 30
0.0
  0
LWPOLYLINE
  5
1b8
100
AcDbEntity
  8
layout
 62
3
100
AcDbPolyline
 90
9
 70
0
 10
45.546504
 20
109.050156
 30
0.0
 10
44.355879
 20
108.537527
 30
0.0
 10
43.920421
 20
107.131928
 30
0.0
 10
44.355879
 20
105.726329
 30
0.0
 10
45.546504
 20
105.213698
 30
0.0
 10
46.731617
 20
105.726329
 30
0.0
 10
47.172589
 20
107.131928
 30
0.0
 10
46.731617
 20
108.537527
 30
0.0
 10
45.546504
 20
109.050156
 30
0.0
  0
LWPOLYLINE
  5
1b9
100
AcDbEntity
  8
layout
 62
3
100
AcDbPolyline
 90
18
 70
0
 10
47.756880
 20
112.539348
 30
0.0
 10
47.756880
 20
111.525112
 30
0.0
 10
46.908006
 20
111.828281
 30
0.0
 10
46.064647
 20
111.933014
 30
0.0
 10
44.377929
 20
111.188873
 30
0.0
 10
43.716471
 20
108.939914
 30
0.0
 10
44.532268
 20
109.673029
 30
0.0
 10
45.612651
 20
109.932100
 30
0.0
 10
47.569464
 20
109.176936
 30
0.0
 10
48.291558
 20
107.131928
 30
0.0
 10
47.541905
 20
105.097944
 30
0.0
 10
45.546504
 20
104.331753
 30
0.0
 10
43.363693
 20
105.423160
 30
0.0
 10
42.608528
 20
108.598160
 30
0.0
 10
43.534570
 20
111.707016
 30
0.0
 10
46.020550
 20
112.870079
 30
0.0
 10
46.863909
 20
112.787396
 30
0.0
 10
47.756880
 20
112.539348
 30
0.0
  0
LWPOLYLINE
  5
1ba
100
AcDbEntity
  8
layout
 62
3
100
AcDbPolyline
 90
18
 70
0
 10
35.872677
 20
104.662484
 30
0.0
 10
35.872677
 20
105.676720
 30
0.0
 10
36.721548
 20
105.373551
 30
0.0
 10
37.564907
 20
105.268821
 30
0.0
 10
39.246116
 20
106.007448
 30
0.0
 10
39.913086
 20
108.261918
 30
0.0
 10
39.102798
 20
107.534315
 30
0.0
 10
38.016905
 20
107.280755
 30
0.0
 10
36.060089
 20
108.024896
 30
0.0
 10
35.343510
 20
110.069904
 30
0.0
 10
36.093163
 20
112.103891
 30
0.0
 10
38.088562
 20
112.870079
 30
0.0
 10
40.265864
 20
111.773160
 30
0.0
 10
41.021028
 20
108.598160
 30
0.0
 10
40.094987
 20
105.489307
 30
0.0
 10
37.614519
 20
104.331753
 30
0.0
 10
36.765645
 20
104.414436
 30
0.0
 10
35.872677
 20
104.662484
 30
0.0
  0
LWPOLYLINE
  5
1bb
100
AcDbEntity
  8
layout
 62
3
100
AcDbPolyline
 90
9
 70
0
 10
38.088562
 20
108.151676
 30
0.0
 10
39.273675
 20
108.664307
 30
0.0
 10
39.714647
 20
110.069904
 30
0.0
 10
39.273675
 20
111.469991
 30
0.0
 10
38.088562
 20
111.988134
 30
0.0
 10
36.897937
 20
111.469991
 30
0.0
 10
36.462476
 20
110.069904
 30
0.0
 10
36.897937
 20
108.664307
 30
0.0
 10
38.088562
 20
108.151676
 30
0.0
  0
LWPOLYLINE
  5
1bc
100
AcDbEntity
  8
layout
 62
3
100
AcDbPolyline
 90
4
 70
0
 10
46.086697
 20
125.862224
 30
0.0
 10
43.275498
 20
121.469037
 30
0.0
 10
46.086697
 20
121.469037
 30
0.0
 10
46.086697
 20
125.862224
 30
0.0
  0
LWPOLYLINE
  5
1bd
100
AcDbEntity
  8
layout
 62
3
100
AcDbPolyline
 90
12
 70
0
 10
45.794552
 20
126.832363
 30
0.0
 10
47.194639
 20
126.832363
 30
0.0
 10
47.194639
 20
121.469037
 30
0.0
 10
48.368726
 20
121.469037
 30
0.0
 10
48.368726
 20
120.542995
 30
0.0
 10
47.194639
 20
120.542995
 30
0.0
 10
47.194639
 20
118.602718
 30
0.0
 10
46.086697
 20
118.602718
 30
0.0
 10
46.086697
 20
120.542995
 30
0.0
 10
42.371504
 20
120.542995
 30
0.0
 10
42.371504
 20
121.617864
 30
0.0
 10
45.794552
 20
126.832363
 30
0.0
  0
LWPOLYLINE
  5
1be
100
AcDbEntity
  8
layout
 62
3
100
AcDbPolyline
 90
9
 70
0
 10
38.358657
 20
123.161267
 30
0.0
 10
37.168032
 20
122.648639
 30
0.0
 10
36.732574
 20
121.243039
 30
0.0
 10
37.168032
 20
119.837440
 30
0.0
 10
38.358657
 20
119.324809
 30
0.0
 10
39.543770
 20
119.837440
 30
0.0
 10
39.984742
 20
121.243039
 30
0.0
 10
39.543770
 20
122.648639
 30
0.0
 10
38.358657
 20
123.161267
 30
0.0
  0
LWPOLYLINE
  5
1bf
100
AcDbEntity
  8
layout
 62
3
100
AcDbPolyline
 90
18
 70
0
 10
40.569032
 20
126.650459
 30
0.0
 10
40.569032
 20
125.636223
 30
0.0
 10
39.720159
 20
125.939392
 30
0.0
 10
38.876800
 20
126.044125
 30
0.0
 10
37.190082
 20
125.299984
 30
0.0
 10
36.528623
 20
123.051025
 30
0.0
 10
37.344421
 20
123.784140
 30
0.0
 10
38.424804
 20
124.043211
 30
0.0
 10
40.381617
 20
123.288047
 30
0.0
 10
41.103711
 20
121.243039
 30
0.0
 10
40.354058
 20
119.209055
 30
0.0
 10
38.358657
 20
118.442864
 30
0.0
 10
36.175846
 20
119.534271
 30
0.0
 10
35.420681
 20
122.709271
 30
0.0
 10
36.346723
 20
125.818127
 30
0.0
 10
38.832703
 20
126.981190
 30
0.0
 10
39.676062
 20
126.898507
 30
0.0
 10
40.569032
 20
126.650459
 30
0.0
  0
LWPOLYLINE
  5
1c0
100
AcDbEntity
  8
layout
 62
3
100
AcDbPolyline
 90
9
 70
0
 10
45.408700
 20
136.621946
 30
0.0
 10
44.157443
 20
136.197509
 30
0.0
 10
43.705447
 20
135.028932
 30
0.0
 10
44.157443
 20
133.860357
 30
0.0
 10
45.408700
 20
133.435920
 30
0.0
 10
46.659961
 20
133.860357
 30
0.0
 10
47.117468
 20
135.028932
 30
0.0
 10
46.659961
 20
136.197509
 30
0.0
 10
45.408700
 20
136.621946
 30
0.0
  0
LWPOLYLINE
  5
1c1
100
AcDbEntity
  8
layout
 62
3
100
AcDbPolyline
 90
17
 70
0
 10
44.295246
 20
137.095989
 30
0.0
 10
43.176280
 20
137.762959
 30
0.0
 10
42.779405
 20
138.959099
 30
0.0
 10
43.479449
 20
140.519037
 30
0.0
 10
45.408700
 20
141.092301
 30
0.0
 10
47.337955
 20
140.519037
 30
0.0
 10
48.037998
 20
138.959099
 30
0.0
 10
47.635612
 20
137.762959
 30
0.0
 10
46.527669
 20
137.095989
 30
0.0
 10
47.778927
 20
136.362875
 30
0.0
 10
48.230923
 20
135.028932
 30
0.0
 10
47.497808
 20
133.193386
 30
0.0
 10
45.408700
 20
132.553975
 30
0.0
 10
43.314084
 20
133.193386
 30
0.0
 10
42.586478
 20
135.028932
 30
0.0
 10
43.038477
 20
136.362875
 30
0.0
 10
44.295246
 20
137.095989
 30
0.0
  0
LWPOLYLINE
  5
1c2
100
AcDbEntity
  8
layout
 62
3
100
AcDbPolyline
 90
9
 70
0
 10
43.887348
 20
138.854366
 30
0.0
 10
44.284223
 20
137.856668
 30
0.0
 10
45.408700
 20
137.498376
 30
0.0
 10
46.527669
 20
137.856668
 30
0.0
 10
46.935568
 20
138.854366
 30
0.0
 10
46.527669
 20
139.852067
 30
0.0
 10
45.408700
 20
140.210357
 30
0.0
 10
44.284223
 20
139.852067
 30
0.0
 10
43.887348
 20
138.854366
 30
0.0
  0
LWPOLYLINE
  5
1c3
100
AcDbEntity
  8
layout
 62
3
100
AcDbPolyline
 90
4
 70
0
 10
38.898850
 20
139.973335
 30
0.0
 10
36.087651
 20
135.580148
 30
0.0
 10
38.898850
 20
135.580148
 30
0.0
 10
38.898850
 20
139.973335
 30
0.0
  0
LWPOLYLINE
  5
1c4
100
AcDbEntity
  8
layout
 62
3
100
AcDbPolyline
 90
12
 70
0
 10
38.606705
 20
140.943474
 30
0.0
 10
40.006792
 20
140.943474
 30
0.0
 10
40.006792
 20
135.580148
 30
0.0
 10
41.180879
 20
135.580148
 30
0.0
 10
41.180879
 20
134.654107
 30
0.0
 10
40.006792
 20
134.654107
 30
0.0
 10
40.006792
 20
132.713829
 30
0.0
 10
38.898850
 20
132.713829
 30
0.0
 10
38.898850
 20
134.654107
 30
0.0
 10
35.183657
 20
134.654107
 30
0.0
 10
35.183657
 20
135.728975
 30
0.0
 10
38.606705
 20
140.943474
 30
0.0
  0
LWPOLYLINE
  5
1c5
100
AcDbEntity
  8
layout
 62
3
100
AcDbPolyline
 90
22
 70
0
 10
43.986566
 20
147.762005
 30
0.0
 10
47.872633
 20
147.762005
 30
0.0
 10
47.872633
 20
146.824940
 30
0.0
 10
42.647114
 20
146.824940
 30
0.0
 10
42.647114
 20
147.762005
 30
0.0
 10
44.372417
 20
149.520382
 30
0.0
 10
45.750455
 20
150.948029
 30
0.0
 10
46.494596
 20
151.962265
 30
0.0
 10
46.709570
 20
152.783577
 30
0.0
 10
46.246548
 20
153.852934
 30
0.0
 10
45.050411
 20
154.266347
 30
0.0
 10
43.942468
 20
154.084446
 30
0.0
 10
42.702234
 20
153.533229
 30
0.0
 10
42.702234
 20
154.657710
 30
0.0
 10
43.959004
 20
155.065609
 30
0.0
 10
45.028364
 20
155.203412
 30
0.0
 10
47.067859
 20
154.564001
 30
0.0
 10
47.828536
 20
152.855236
 30
0.0
 10
47.635612
 20
151.890609
 30
0.0
 10
46.946591
 20
150.821252
 30
0.0
 10
46.070159
 20
149.895210
 30
0.0
 10
43.986566
 20
147.762005
 30
0.0
  0
LWPOLYLINE
  5
1c6
100
AcDbEntity
  8
layout
 62
3
100
AcDbPolyline
 90
30
 70
0
 10
39.213042
 20
151.262224
 30
0.0
 10
40.458788
 20
150.551154
 30
0.0
 10
40.910784
 20
149.217213
 30
0.0
 10
40.072937
 20
147.332057
 30
0.0
 10
37.691687
 20
146.665086
 30
0.0
 10
36.622330
 20
146.769819
 30
0.0
 10
35.492337
 20
147.072988
 30
0.0
 10
35.492337
 20
148.147857
 30
0.0
 10
36.506573
 20
147.739958
 30
0.0
 10
37.658616
 20
147.602154
 30
0.0
 10
39.251628
 20
148.015565
 30
0.0
 10
39.802841
 20
149.217213
 30
0.0
 10
39.290213
 20
150.352718
 30
0.0
 10
37.873587
 20
150.766128
 30
0.0
 10
36.914475
 20
150.766128
 30
0.0
 10
36.914475
 20
151.681146
 30
0.0
 10
37.917684
 20
151.681146
 30
0.0
 10
39.174457
 20
152.006362
 30
0.0
 10
39.609917
 20
152.954454
 30
0.0
 10
39.157921
 20
153.924593
 30
0.0
 10
37.873587
 20
154.266347
 30
0.0
 10
36.892425
 20
154.167126
 30
0.0
 10
35.740385
 20
153.858445
 30
0.0
 10
35.740385
 20
154.850634
 30
0.0
 10
36.925498
 20
155.115218
 30
0.0
 10
37.972808
 20
155.203412
 30
0.0
 10
39.979230
 20
154.624636
 30
0.0
 10
40.717859
 20
153.070210
 30
0.0
 10
40.326496
 20
151.912656
 30
0.0
 10
39.213042
 20
151.262224
 30
0.0
  0
LWPOLYLINE
  5
1c7
100
AcDbEntity
  8
layout
 62
3
100
AcDbPolyline
 90
4
 70
0
 10
46.086697
 20
168.195557
 30
0.0
 10
43.275498
 20
163.802370
 30
0.0
 10
46.086697
 20
163.802370
 30
0.0
 10
46.086697
 20
168.195557
 30
0.0
  0
LWPOLYLINE
  5
1c8
100
AcDbEntity
  8
layout
 62
3
100
AcDbPolyline
 90
12
 70
0
 10
45.794552
 20
169.165696
 30
0.0
 10
47.194639
 20
169.165696
 30
0.0
 10
47.194639
 20
163.802370
 30
0.0
 10
48.368726
 20
163.802370
 30
0.0
 10
48.368726
 20
162.876329
 30
0.0
 10
47.194639
 20
162.876329
 30
0.0
 10
47.194639
 20
160.936051
 30
0.0
 10
46.086697
 20
160.936051
 30
0.0
 10
46.086697
 20
162.876329
 30
0.0
 10
42.371504
 20
162.876329
 30
0.0
 10
42.371504
 20
163.951198
 30
0.0
 10
45.794552
 20
169.165696
 30
0.0
  0
LWPOLYLINE
  5
1c9
100
AcDbEntity
  8
layout
 62
3
100
AcDbPolyline
 90
22
 70
0
 10
36.798718
 20
161.873116
 30
0.0
 10
40.684786
 20
161.873116
 30
0.0
 10
40.684786
 20
160.936051
 30
0.0
 10
35.459266
 20
160.936051
 30
0.0
 10
35.459266
 20
161.873116
 30
0.0
 10
37.184570
 20
163.631493
 30
0.0
 10
38.562607
 20
165.059140
 30
0.0
 10
39.306748
 20
166.073376
 30
0.0
 10
39.521723
 20
166.894688
 30
0.0
 10
39.058700
 20
167.964045
 30
0.0
 10
37.862564
 20
168.377458
 30
0.0
 10
36.754621
 20
168.195557
 30
0.0
 10
35.514387
 20
167.644341
 30
0.0
 10
35.514387
 20
168.768821
 30
0.0
 10
36.771157
 20
169.176720
 30
0.0
 10
37.840516
 20
169.314523
 30
0.0
 10
39.880012
 20
168.675112
 30
0.0
 10
40.640689
 20
166.966347
 30
0.0
 10
40.447764
 20
166.001720
 30
0.0
 10
39.758744
 20
164.932363
 30
0.0
 10
38.882312
 20
164.006321
 30
0.0
 10
36.798718
 20
161.873116
 30
0.0
  0
LWPOLYLINE
  5
1ca
100
AcDbEntity
  8
layout
 62
3
100
AcDbPolyline
 90
9
 70
0
 10
45.546504
 20
179.605711
 30
0.0
 10
44.355879
 20
179.093083
 30
0.0
 10
43.920421
 20
177.687484
 30
0.0
 10
44.355879
 20
176.281884
 30
0.0
 10
45.546504
 20
175.769253
 30
0.0
 10
46.731617
 20
176.281884
 30
0.0
 10
47.172589
 20
177.687484
 30
0.0
 10
46.731617
 20
179.093083
 30
0.0
 10
45.546504
 20
179.605711
 30
0.0
  0
LWPOLYLINE
  5
1cb
100
AcDbEntity
  8
layout
 62
3
100
AcDbPolyline
 90
18
 70
0
 10
47.756880
 20
183.094904
 30
0.0
 10
47.756880
 20
182.080668
 30
0.0
 10
46.908006
 20
182.383836
 30
0.0
 10
46.064647
 20
182.488569
 30
0.0
 10
44.377929
 20
181.744428
 30
0.0
 10
43.716471
 20
179.495470
 30
0.0
 10
44.532268
 20
180.228584
 30
0.0
 10
45.612651
 20
180.487656
 30
0.0
 10
47.569464
 20
179.732491
 30
0.0
 10
48.291558
 20
177.687484
 30
0.0
 10
47.541905
 20
175.653500
 30
0.0
 10
45.546504
 20
174.887309
 30
0.0
 10
43.363693
 20
175.978716
 30
0.0
 10
42.608528
 20
179.153716
 30
0.0
 10
43.534570
 20
182.262571
 30
0.0
 10
46.020550
 20
183.425634
 30
0.0
 10
46.863909
 20
183.342952
 30
0.0
 10
47.756880
 20
183.094904
 30
0.0
  0
LWPOLYLINE
  5
1cc
100
AcDbEntity
  8
layout
 62
3
100
AcDbPolyline
 90
12
 70
0
 10
36.032530
 20
175.984227
 30
0.0
 10
37.851540
 20
175.984227
 30
0.0
 10
37.851540
 20
182.262571
 30
0.0
 10
35.872677
 20
181.865696
 30
0.0
 10
35.872677
 20
182.879932
 30
0.0
 10
37.840516
 20
183.276807
 30
0.0
 10
38.953971
 20
183.276807
 30
0.0
 10
38.953971
 20
175.984227
 30
0.0
 10
40.772980
 20
175.984227
 30
0.0
 10
40.772980
 20
175.047162
 30
0.0
 10
36.032530
 20
175.047162
 30
0.0
 10
36.032530
 20
175.984227
 30
0.0
  0
LWPOLYLINE
  5
1cd
100
AcDbEntity
  8
layout
 62
3
100
AcDbPolyline
 90
22
 70
0
 10
43.986566
 20
190.095338
 30
0.0
 10
47.872633
 20
190.095338
 30
0.0
 10
47.872633
 20
189.158273
 30
0.0
 10
42.647114
 20
189.158273
 30
0.0
 10
42.647114
 20
190.095338
 30
0.0
 10
44.372417
 20
191.853716
 30
0.0
 10
45.750455
 20
193.281362
 30
0.0
 10
46.494596
 20
194.295598
 30
0.0
 10
46.709570
 20
195.116910
 30
0.0
 10
46.246548
 20
196.186267
 30
0.0
 10
45.050411
 20
196.599680
 30
0.0
 10
43.942468
 20
196.417779
 30
0.0
 10
42.702234
 20
195.866563
 30
0.0
 10
42.702234
 20
196.991043
 30
0.0
 10
43.959004
 20
197.398942
 30
0.0
 10
45.028364
 20
197.536745
 30
0.0
 10
47.067859
 20
196.897334
 30
0.0
 10
47.828536
 20
195.188569
 30
0.0
 10
47.635612
 20
194.223942
 30
0.0
 10
46.946591
 20
193.154585
 30
0.0
 10
46.070159
 20
192.228543
 30
0.0
 10
43.986566
 20
190.095338
 30
0.0
  0
LWPOLYLINE
  5
1ce
100
AcDbEntity
  8
layout
 62
3
100
AcDbPolyline
 90
12
 70
0
 10
36.032530
 20
190.095338
 30
0.0
 10
37.851540
 20
190.095338
 30
0.0
 10
37.851540
 20
196.373682
 30
0.0
 10
35.872677
 20
195.976807
 30
0.0
 10
35.872677
 20
196.991043
 30
0.0
 10
37.840516
 20
197.387918
 30
0.0
 10
38.953971
 20
197.387918
 30
0.0
 10
38.953971
 20
190.095338
 30
0.0
 10
40.772980
 20
190.095338
 30
0.0
 10
40.772980
 20
189.158273
 30
0.0
 10
36.032530
 20
189.158273
 30
0.0
 10
36.032530
 20
190.095338
 30
0.0
  0
LWPOLYLINE
  5
1cf
100
AcDbEntity
  8
layout
 62
3
100
AcDbPolyline
 90
9
 70
0
 10
45.408700
 20
207.177502
 30
0.0
 10
44.157443
 20
206.753065
 30
0.0
 10
43.705447
 20
205.584487
 30
0.0
 10
44.157443
 20
204.415912
 30
0.0
 10
45.408700
 20
203.991475
 30
0.0
 10
46.659961
 20
204.415912
 30
0.0
 10
47.117468
 20
205.584487
 30
0.0
 10
46.659961
 20
206.753065
 30
0.0
 10
45.408700
 20
207.177502
 30
0.0
  0
LWPOLYLINE
  5
1d0
100
AcDbEntity
  8
layout
 62
3
100
AcDbPolyline
 90
17
 70
0
 10
44.295246
 20
207.651545
 30
0.0
 10
43.176280
 20
208.318515
 30
0.0
 10
42.779405
 20
209.514654
 30
0.0
 10
43.479449
 20
211.074593
 30
0.0
 10
45.408700
 20
211.647857
 30
0.0
 10
47.337955
 20
211.074593
 30
0.0
 10
48.037998
 20
209.514654
 30
0.0
 10
47.635612
 20
208.318515
 30
0.0
 10
46.527669
 20
207.651545
 30
0.0
 10
47.778927
 20
206.918430
 30
0.0
 10
48.230923
 20
205.584487
 30
0.0
 10
47.497808
 20
203.748942
 30
0.0
 10
45.408700
 20
203.109531
 30
0.0
 10
43.314084
 20
203.748942
 30
0.0
 10
42.586478
 20
205.584487
 30
0.0
 10
43.038477
 20
206.918430
 30
0.0
 10
44.295246
 20
207.651545
 30
0.0
  0
LWPOLYLINE
  5
1d1
100
AcDbEntity
  8
layout
 62
3
100
AcDbPolyline
 90
9
 70
0
 10
43.887348
 20
209.409922
 30
0.0
 10
44.284223
 20
208.412224
 30
0.0
 10
45.408700
 20
208.053932
 30
0.0
 10
46.527669
 20
208.412224
 30
0.0
 10
46.935568
 20
209.409922
 30
0.0
 10
46.527669
 20
210.407623
 30
0.0
 10
45.408700
 20
210.765912
 30
0.0
 10
44.284223
 20
210.407623
 30
0.0
 10
43.887348
 20
209.409922
 30
0.0
  0
ENDSEC
  0
SECTION
  2
OBJECTS
  0
DICTIONARY
  5
C
330
0
100
AcDbDictionary
  3
ACAD_GROUP
350
D
  3
ACAD_MLINESTYLE
350
17
  0
DICTIONARY
  5
D
330
C
100
AcDbDictionary
  0
DICTIONARY
  5
1A
330
C
100
AcDbDictionary
  0
DICTIONARY
  5
17
330
C
100
AcDbDictionary
  3
STANDARD
350
18
  0
DICTIONARY
  5
19
330
C
100
AcDbDictionary
  0
ENDSEC
  0
EOF
